<svg width="23" height="13" viewBox="0 0 23 13" fill="none" xmlns="http://www.w3.org/2000/svg">
<path d="M5.744 12V9.824H0.56V8.272L5.088 0.832H7.456V8.4H8.976V9.824H7.456V12H5.744ZM2.096 8.4H5.744V2.48H5.632L2.096 8.4ZM11.9138 12.192C11.5191 12.192 11.2258 12.0907 11.0338 11.888C10.8418 11.6747 10.7458 11.4133 10.7458 11.104V10.864C10.7458 10.5547 10.8418 10.2987 11.0338 10.096C11.2258 9.88267 11.5191 9.776 11.9138 9.776C12.3084 9.776 12.6018 9.88267 12.7938 10.096C12.9858 10.2987 13.0818 10.5547 13.0818 10.864V11.104C13.0818 11.4133 12.9858 11.6747 12.7938 11.888C12.6018 12.0907 12.3084 12.192 11.9138 12.192ZM22.8904 12H15.3064V10.272L18.8744 7.088C19.4397 6.576 19.8717 6.09067 20.1704 5.632C20.4797 5.16267 20.6344 4.672 20.6344 4.16V3.952C20.6344 3.408 20.469 2.98133 20.1384 2.672C19.8184 2.36267 19.381 2.208 18.8264 2.208C18.517 2.208 18.245 2.256 18.0104 2.352C17.7864 2.43733 17.589 2.56 17.4184 2.72C17.2477 2.88 17.1037 3.06667 16.9864 3.28C16.8797 3.49333 16.7944 3.72267 16.7304 3.968L15.1464 3.36C15.2637 3.008 15.4237 2.672 15.6264 2.352C15.829 2.02133 16.085 1.728 16.3944 1.472C16.7037 1.216 17.0664 1.01333 17.4824 0.863999C17.909 0.714666 18.405 0.639999 18.9704 0.639999C19.5357 0.639999 20.0424 0.725333 20.4904 0.896C20.9384 1.056 21.3117 1.28533 21.6104 1.584C21.9197 1.872 22.1544 2.21867 22.3144 2.624C22.4744 3.02933 22.5544 3.472 22.5544 3.952C22.5544 4.4 22.485 4.816 22.3464 5.2C22.2077 5.584 22.0157 5.94667 21.7704 6.288C21.525 6.62933 21.237 6.95467 20.9064 7.264C20.5864 7.57333 20.245 7.888 19.8824 8.208L17.2584 10.464H22.8904V12Z" fill="black" fill-opacity="0.5"/>
</svg>
