<svg width="16" height="16" viewBox="0 0 16 16" fill="none" xmlns="http://www.w3.org/2000/svg">
<g clip-path="url(#clip0_736_695)">
<path d="M15.0781 1.71875C15.2135 1.95312 15.3359 2.17708 15.4453 2.39062C15.5547 2.60417 15.6536 2.82031 15.7422 3.03906C15.8307 3.25781 15.8932 3.48438 15.9297 3.71875C15.9661 3.95312 15.9896 4.21354 16 4.5C16 4.91146 15.9479 5.30729 15.8438 5.6875C15.7396 6.06771 15.5885 6.42708 15.3906 6.76562C15.1927 7.10417 14.9557 7.40885 14.6797 7.67969C14.4036 7.95052 14.099 8.1849 13.7656 8.38281C13.4323 8.58073 13.0755 8.73177 12.6953 8.83594C12.3151 8.9401 11.9167 8.99479 11.5 9C11.3802 9 11.2604 8.99479 11.1406 8.98438C11.0208 8.97396 10.8984 8.95833 10.7734 8.9375L4.47656 15.2344C4.22656 15.4844 3.94271 15.6745 3.625 15.8047C3.30729 15.9349 2.97135 16 2.61719 16C2.25781 16 1.91927 15.9323 1.60156 15.7969C1.28385 15.6615 1.00781 15.474 0.773438 15.2344C0.539062 14.9948 0.351562 14.7161 0.210938 14.3984C0.0703125 14.0807 0 13.7422 0 13.3828C0 13.0339 0.0651042 12.7005 0.195312 12.3828C0.325521 12.0651 0.515625 11.7786 0.765625 11.5234L7.0625 5.22656C7.04167 5.10677 7.02604 4.98698 7.01562 4.86719C7.00521 4.7474 7 4.625 7 4.5C7 4.08854 7.05208 3.69271 7.15625 3.3125C7.26042 2.93229 7.41146 2.57292 7.60938 2.23438C7.80729 1.89583 8.04427 1.59115 8.32031 1.32031C8.59635 1.04948 8.90104 0.815104 9.23438 0.617188C9.56771 0.419271 9.92448 0.268229 10.3047 0.164062C10.6849 0.0598958 11.0833 0.00520833 11.5 0C11.7812 0 12.0391 0.0208333 12.2734 0.0625C12.5078 0.104167 12.737 0.169271 12.9609 0.257812C13.1849 0.346354 13.401 0.442708 13.6094 0.546875C13.8177 0.651042 14.0417 0.776042 14.2812 0.921875L11.2031 4L12 4.79688L15.0781 1.71875ZM11.5 8C11.9844 8 12.4375 7.90885 12.8594 7.72656C13.2812 7.54427 13.651 7.29427 13.9688 6.97656C14.2865 6.65885 14.5365 6.28906 14.7188 5.86719C14.901 5.44531 14.9948 4.98958 15 4.5C15 4.11979 14.9375 3.7526 14.8125 3.39844L12 6.20312L9.79688 4L12.6016 1.1875C12.2474 1.0625 11.8802 1 11.5 1C11.0156 1 10.5625 1.09115 10.1406 1.27344C9.71875 1.45573 9.34896 1.70573 9.03125 2.02344C8.71354 2.34115 8.46354 2.71094 8.28125 3.13281C8.09896 3.55469 8.00521 4.01042 8 4.5C8 4.68229 8.01562 4.85938 8.04688 5.03125C8.07812 5.20312 8.11458 5.375 8.15625 5.54688L1.47656 12.2344C1.32552 12.3854 1.20833 12.5599 1.125 12.7578C1.04167 12.9557 1 13.1641 1 13.3828C1 13.6016 1.04167 13.8099 1.125 14.0078C1.20833 14.2057 1.32552 14.3776 1.47656 14.5234C1.6276 14.6693 1.79948 14.7839 1.99219 14.8672C2.1849 14.9505 2.39323 14.9948 2.61719 15C2.83594 15 3.04427 14.9583 3.24219 14.875C3.4401 14.7917 3.61458 14.6745 3.76562 14.5234L10.4531 7.84375C10.625 7.88542 10.7969 7.92188 10.9688 7.95312C11.1406 7.98438 11.3177 8 11.5 8Z" fill="#007FEE"/>
</g>
<defs>
<clipPath id="clip0_736_695">
<rect width="16" height="16" fill="white"/>
</clipPath>
</defs>
</svg>
