<svg width="72" height="24" viewBox="0 0 72 24" fill="none" xmlns="http://www.w3.org/2000/svg">
<rect width="72" height="24" rx="5" fill="#F4F4F4"/>
<path d="M16.3746 17.168C15.74 17.168 15.1613 17.0607 14.6386 16.846C14.1253 16.622 13.682 16.3 13.3086 15.88C12.9446 15.4507 12.66 14.9233 12.4546 14.298C12.2586 13.6633 12.1606 12.9353 12.1606 12.114C12.1606 11.2927 12.2586 10.5693 12.4546 9.944C12.66 9.30933 12.9446 8.782 13.3086 8.362C13.682 7.93267 14.1253 7.61067 14.6386 7.396C15.1613 7.172 15.74 7.06 16.3746 7.06C17.0093 7.06 17.5833 7.172 18.0966 7.396C18.6193 7.61067 19.0626 7.93267 19.4266 8.362C19.8 8.782 20.0846 9.30933 20.2806 9.944C20.486 10.5693 20.5886 11.2927 20.5886 12.114C20.5886 12.9353 20.486 13.6633 20.2806 14.298C20.0846 14.9233 19.8 15.4507 19.4266 15.88C19.0626 16.3 18.6193 16.622 18.0966 16.846C17.5833 17.0607 17.0093 17.168 16.3746 17.168ZM16.3746 15.754C16.748 15.754 17.0886 15.6887 17.3966 15.558C17.714 15.4273 17.98 15.2407 18.1946 14.998C18.4186 14.746 18.5913 14.4427 18.7126 14.088C18.834 13.7333 18.8946 13.332 18.8946 12.884V11.344C18.8946 10.896 18.834 10.4947 18.7126 10.14C18.5913 9.78533 18.4186 9.48667 18.1946 9.244C17.98 8.992 17.714 8.80067 17.3966 8.67C17.0886 8.53933 16.748 8.474 16.3746 8.474C15.992 8.474 15.6466 8.53933 15.3386 8.67C15.0306 8.80067 14.7646 8.992 14.5406 9.244C14.326 9.48667 14.158 9.78533 14.0366 10.14C13.9153 10.4947 13.8546 10.896 13.8546 11.344V12.884C13.8546 13.332 13.9153 13.7333 14.0366 14.088C14.158 14.4427 14.326 14.746 14.5406 14.998C14.7646 15.2407 15.0306 15.4273 15.3386 15.558C15.6466 15.6887 15.992 15.754 16.3746 15.754ZM22.4494 17V9.72H23.9754V10.924H24.0454C24.2041 10.532 24.4421 10.2053 24.7594 9.944C25.0861 9.68267 25.5294 9.552 26.0894 9.552C26.8361 9.552 27.4148 9.79933 27.8254 10.294C28.2454 10.7793 28.4554 11.4747 28.4554 12.38V17H26.9294V12.576C26.9294 11.4373 26.4721 10.868 25.5574 10.868C25.3614 10.868 25.1654 10.896 24.9694 10.952C24.7828 10.9987 24.6148 11.0733 24.4654 11.176C24.3161 11.2787 24.1948 11.4093 24.1014 11.568C24.0174 11.7267 23.9754 11.9133 23.9754 12.128V17H22.4494ZM36.9171 17.168C36.0958 17.168 35.3958 17.0187 34.8171 16.72C34.2478 16.4213 33.7578 16.02 33.3471 15.516L34.4391 14.494C34.7844 14.914 35.1624 15.2313 35.5731 15.446C35.9931 15.6607 36.4691 15.768 37.0011 15.768C37.6264 15.768 38.0978 15.628 38.4151 15.348C38.7324 15.068 38.8911 14.69 38.8911 14.214C38.8911 13.8313 38.7791 13.528 38.5551 13.304C38.3311 13.08 37.9344 12.912 37.3651 12.8L36.4971 12.646C35.5451 12.4687 34.8311 12.156 34.3551 11.708C33.8791 11.26 33.6411 10.644 33.6411 9.86C33.6411 9.43067 33.7204 9.04333 33.8791 8.698C34.0471 8.34333 34.2758 8.04933 34.5651 7.816C34.8638 7.57333 35.2231 7.38667 35.6431 7.256C36.0631 7.12533 36.5344 7.06 37.0571 7.06C37.7944 7.06 38.4338 7.19067 38.9751 7.452C39.5164 7.704 39.9784 8.07267 40.3611 8.558L39.2551 9.538C39.0031 9.21133 38.6951 8.95 38.3311 8.754C37.9671 8.558 37.5144 8.46 36.9731 8.46C36.4131 8.46 35.9791 8.572 35.6711 8.796C35.3631 9.02 35.2091 9.34667 35.2091 9.776C35.2091 10.1867 35.3351 10.4947 35.5871 10.7C35.8391 10.896 36.2311 11.0453 36.7631 11.148L37.6311 11.33C38.6111 11.5167 39.3251 11.834 39.7731 12.282C40.2304 12.73 40.4591 13.346 40.4591 14.13C40.4591 14.5873 40.3798 15.0027 40.2211 15.376C40.0624 15.7493 39.8291 16.0713 39.5211 16.342C39.2224 16.6033 38.8538 16.8087 38.4151 16.958C37.9764 17.098 37.4771 17.168 36.9171 17.168ZM47.5803 17C47.179 17 46.871 16.888 46.6563 16.664C46.4416 16.4307 46.311 16.1367 46.2643 15.782H46.1943C46.0543 16.2393 45.7976 16.5847 45.4243 16.818C45.051 17.0513 44.5983 17.168 44.0663 17.168C43.3103 17.168 42.727 16.972 42.3163 16.58C41.915 16.188 41.7143 15.6607 41.7143 14.998C41.7143 14.27 41.9756 13.724 42.4983 13.36C43.0303 12.996 43.805 12.814 44.8223 12.814H46.1383V12.198C46.1383 11.75 46.017 11.4047 45.7743 11.162C45.5316 10.9193 45.1536 10.798 44.6403 10.798C44.211 10.798 43.861 10.8913 43.5903 11.078C43.3196 11.2647 43.091 11.5027 42.9043 11.792L41.9943 10.966C42.237 10.5553 42.5776 10.2193 43.0163 9.958C43.455 9.68733 44.029 9.552 44.7383 9.552C45.681 9.552 46.4043 9.77133 46.9083 10.21C47.4123 10.6487 47.6643 11.2787 47.6643 12.1V15.754H48.4343V17H47.5803ZM44.5003 16.006C44.9763 16.006 45.3683 15.9033 45.6763 15.698C45.9843 15.4833 46.1383 15.1987 46.1383 14.844V13.794H44.8503C43.7956 13.794 43.2683 14.1207 43.2683 14.774V15.026C43.2683 15.3527 43.3756 15.6 43.5903 15.768C43.8143 15.9267 44.1176 16.006 44.5003 16.006ZM51.4839 17C50.9612 17 50.5692 16.8693 50.3079 16.608C50.0559 16.3373 49.9299 15.964 49.9299 15.488V6.64H51.4559V15.754H52.4639V17H51.4839ZM56.7781 17.168C56.2554 17.168 55.7887 17.0793 55.3781 16.902C54.9674 16.7247 54.6174 16.4727 54.3281 16.146C54.0387 15.81 53.8147 15.4087 53.6561 14.942C53.5067 14.466 53.4321 13.9387 53.4321 13.36C53.4321 12.7813 53.5067 12.2587 53.6561 11.792C53.8147 11.316 54.0387 10.9147 54.3281 10.588C54.6174 10.252 54.9674 9.99533 55.3781 9.818C55.7887 9.64067 56.2554 9.552 56.7781 9.552C57.3101 9.552 57.7767 9.64533 58.1781 9.832C58.5887 10.0187 58.9294 10.28 59.2001 10.616C59.4707 10.9427 59.6714 11.3253 59.8021 11.764C59.9421 12.2027 60.0121 12.674 60.0121 13.178V13.752H55.0141V13.99C55.0141 14.55 55.1774 15.012 55.5041 15.376C55.8401 15.7307 56.3161 15.908 56.9321 15.908C57.3801 15.908 57.7581 15.81 58.0661 15.614C58.3741 15.418 58.6354 15.152 58.8501 14.816L59.7461 15.698C59.4754 16.146 59.0834 16.5053 58.5701 16.776C58.0567 17.0373 57.4594 17.168 56.7781 17.168ZM56.7781 10.742C56.5167 10.742 56.2741 10.7887 56.0501 10.882C55.8354 10.9753 55.6487 11.106 55.4901 11.274C55.3407 11.442 55.2241 11.6427 55.1401 11.876C55.0561 12.1093 55.0141 12.366 55.0141 12.646V12.744H58.4021V12.604C58.4021 12.044 58.2574 11.596 57.9681 11.26C57.6787 10.9147 57.2821 10.742 56.7781 10.742Z" fill="#34A853"/>
</svg>
