<svg width="147" height="152" viewBox="0 0 147 152" fill="none" xmlns="http://www.w3.org/2000/svg">
<rect x="0.864355" y="0.15" width="145.414" height="151.7" rx="9.85" fill="white"/>
<rect x="0.864355" y="0.15" width="145.414" height="151.7" rx="9.85" stroke="#E1E1E1" stroke-width="0.3"/>
<path d="M95.7144 76.521C95.7144 74.896 95.5685 73.3335 95.2977 71.8335H73.7144V80.6981H86.0477C85.5164 83.5627 83.9019 85.9897 81.4748 87.6147V93.3647H88.881C93.2144 89.3752 95.7144 83.5002 95.7144 76.521Z" fill="#4285F4"/>
<path d="M73.7143 98.9165C79.9018 98.9165 85.0893 96.8644 88.8809 93.3644L81.4747 87.6144C79.4226 88.9894 76.7976 89.8019 73.7143 89.8019C67.7455 89.8019 62.6934 85.7707 60.8914 80.354H53.2351V86.2915C57.0059 93.7811 64.7559 98.9165 73.7143 98.9165Z" fill="#34A853"/>
<path d="M60.8914 80.3543C60.433 78.9793 60.1726 77.5106 60.1726 76.0002C60.1726 74.4897 60.433 73.021 60.8914 71.646V65.7085H53.2351C51.6309 68.902 50.7962 72.4264 50.7976 76.0002C50.7976 79.6981 51.683 83.1981 53.2351 86.2918L60.8914 80.3543Z" fill="#FBBC05"/>
<path d="M73.7143 62.1981C77.0789 62.1981 80.0997 63.3543 82.4747 65.6252L89.0476 59.0522C85.0789 55.3543 79.8914 53.0835 73.7143 53.0835C64.7559 53.0835 57.0059 58.2189 53.2351 65.7085L60.8914 71.646C62.6934 66.2293 67.7455 62.1981 73.7143 62.1981Z" fill="#EA4335"/>
</svg>
