<svg width="136" height="15" viewBox="0 0 136 15" fill="none" xmlns="http://www.w3.org/2000/svg">
<path d="M6.22474 5.14746L7.95674 1.87746C8.00716 1.78283 8.0847 1.70323 8.18067 1.6476C8.27664 1.59197 8.38724 1.5625 8.50008 1.5625C8.61291 1.5625 8.72351 1.59197 8.81948 1.6476C8.91545 1.70323 8.99299 1.78283 9.04341 1.87746L10.7754 5.14746L14.6474 5.67496C14.7591 5.68948 14.8642 5.73315 14.9507 5.80097C15.0371 5.86879 15.1015 5.95805 15.1365 6.05854C15.1715 6.15904 15.1756 6.26672 15.1484 6.36931C15.1212 6.4719 15.0638 6.56525 14.9827 6.63871L12.1814 9.18246L12.8427 12.7762C12.9274 13.2375 12.4074 13.5887 11.9627 13.3712L8.50008 11.6737L5.03674 13.3712C4.59274 13.5893 4.07274 13.2375 4.15741 12.7756L4.81874 9.18184L2.01741 6.63809C1.93673 6.56457 1.87968 6.47131 1.85272 6.36891C1.82576 6.26651 1.82999 6.15907 1.86492 6.0588C1.89985 5.95854 1.96409 5.86948 2.05032 5.80173C2.13656 5.73399 2.24133 5.69029 2.35274 5.67559L6.22474 5.14746Z" fill="#F4E027" stroke="#F4E027" stroke-width="1.5" stroke-linecap="round" stroke-linejoin="round"/>
<path d="M27.2247 5.14746L28.9567 1.87746C29.0072 1.78283 29.0847 1.70323 29.1807 1.6476C29.2766 1.59197 29.3872 1.5625 29.5001 1.5625C29.6129 1.5625 29.7235 1.59197 29.8195 1.6476C29.9155 1.70323 29.993 1.78283 30.0434 1.87746L31.7754 5.14746L35.6474 5.67496C35.7591 5.68948 35.8642 5.73315 35.9507 5.80097C36.0371 5.86879 36.1015 5.95805 36.1365 6.05854C36.1715 6.15904 36.1756 6.26672 36.1484 6.36931C36.1212 6.4719 36.0638 6.56525 35.9827 6.63871L33.1814 9.18246L33.8427 12.7762C33.9274 13.2375 33.4074 13.5887 32.9627 13.3712L29.5001 11.6737L26.0367 13.3712C25.5927 13.5893 25.0727 13.2375 25.1574 12.7756L25.8187 9.18184L23.0174 6.63809C22.9367 6.56457 22.8797 6.47131 22.8527 6.36891C22.8258 6.26651 22.83 6.15907 22.8649 6.0588C22.8999 5.95854 22.9641 5.86948 23.0503 5.80173C23.1366 5.73399 23.2413 5.69029 23.3527 5.67559L27.2247 5.14746Z" fill="#F4E027" stroke="#F4E027" stroke-width="1.5" stroke-linecap="round" stroke-linejoin="round"/>
<path d="M48.2247 5.14746L49.9567 1.87746C50.0072 1.78283 50.0847 1.70323 50.1807 1.6476C50.2766 1.59197 50.3872 1.5625 50.5001 1.5625C50.6129 1.5625 50.7235 1.59197 50.8195 1.6476C50.9155 1.70323 50.993 1.78283 51.0434 1.87746L52.7754 5.14746L56.6474 5.67496C56.7591 5.68948 56.8642 5.73315 56.9507 5.80097C57.0371 5.86879 57.1015 5.95805 57.1365 6.05854C57.1715 6.15904 57.1756 6.26672 57.1484 6.36931C57.1212 6.4719 57.0638 6.56525 56.9827 6.63871L54.1814 9.18246L54.8427 12.7762C54.9274 13.2375 54.4074 13.5887 53.9627 13.3712L50.5001 11.6737L47.0367 13.3712C46.5927 13.5893 46.0727 13.2375 46.1574 12.7756L46.8187 9.18184L44.0174 6.63809C43.9367 6.56457 43.8797 6.47131 43.8527 6.36891C43.8258 6.26651 43.83 6.15907 43.8649 6.0588C43.8999 5.95854 43.9641 5.86948 44.0503 5.80173C44.1366 5.73399 44.2413 5.69029 44.3527 5.67559L48.2247 5.14746Z" fill="#F4E027" stroke="#F4E027" stroke-width="1.5" stroke-linecap="round" stroke-linejoin="round"/>
<path d="M69.2247 5.14746L70.9567 1.87746C71.0072 1.78283 71.0847 1.70323 71.1807 1.6476C71.2766 1.59197 71.3872 1.5625 71.5001 1.5625C71.6129 1.5625 71.7235 1.59197 71.8195 1.6476C71.9155 1.70323 71.993 1.78283 72.0434 1.87746L73.7754 5.14746L77.6474 5.67496C77.7591 5.68948 77.8642 5.73315 77.9507 5.80097C78.0371 5.86879 78.1015 5.95805 78.1365 6.05854C78.1715 6.15904 78.1756 6.26672 78.1484 6.36931C78.1212 6.4719 78.0638 6.56525 77.9827 6.63871L75.1814 9.18246L75.8427 12.7762C75.9274 13.2375 75.4074 13.5887 74.9627 13.3712L71.5001 11.6737L68.0367 13.3712C67.5927 13.5893 67.0727 13.2375 67.1574 12.7756L67.8187 9.18184L65.0174 6.63809C64.9367 6.56457 64.8797 6.47131 64.8527 6.36891C64.8258 6.26651 64.83 6.15907 64.8649 6.0588C64.8999 5.95854 64.9641 5.86948 65.0503 5.80173C65.1366 5.73399 65.2413 5.69029 65.3527 5.67559L69.2247 5.14746Z" fill="#F4E027" stroke="#F4E027" stroke-width="1.5" stroke-linecap="round" stroke-linejoin="round"/>
<path d="M88.09 10V8.64H84.85V7.67L87.68 3.02H89.16V7.75H90.11V8.64H89.16V10H88.09ZM85.81 7.75H88.09V4.05H88.02L85.81 7.75ZM91.9461 10.12C91.6994 10.12 91.5161 10.0567 91.3961 9.93C91.2761 9.79667 91.2161 9.63333 91.2161 9.44V9.29C91.2161 9.09667 91.2761 8.93667 91.3961 8.81C91.5161 8.67667 91.6994 8.61 91.9461 8.61C92.1928 8.61 92.3761 8.67667 92.4961 8.81C92.6161 8.93667 92.6761 9.09667 92.6761 9.29V9.44C92.6761 9.63333 92.6161 9.79667 92.4961 9.93C92.3761 10.0567 92.1928 10.12 91.9461 10.12ZM98.8065 10H94.0665V8.92L96.2965 6.93C96.6498 6.61 96.9198 6.30667 97.1065 6.02C97.2998 5.72667 97.3965 5.42 97.3965 5.1V4.97C97.3965 4.63 97.2932 4.36333 97.0865 4.17C96.8865 3.97667 96.6132 3.88 96.2665 3.88C96.0732 3.88 95.9032 3.91 95.7565 3.97C95.6165 4.02333 95.4932 4.1 95.3865 4.2C95.2798 4.3 95.1898 4.41667 95.1165 4.55C95.0498 4.68333 94.9965 4.82667 94.9565 4.98L93.9665 4.6C94.0398 4.38 94.1398 4.17 94.2665 3.97C94.3932 3.76333 94.5532 3.58 94.7465 3.42C94.9398 3.26 95.1665 3.13333 95.4265 3.04C95.6932 2.94667 96.0032 2.9 96.3565 2.9C96.7098 2.9 97.0265 2.95333 97.3065 3.06C97.5865 3.16 97.8198 3.30333 98.0065 3.49C98.1998 3.67 98.3465 3.88667 98.4465 4.14C98.5465 4.39333 98.5965 4.67 98.5965 4.97C98.5965 5.25 98.5532 5.51 98.4665 5.75C98.3798 5.99 98.2598 6.21667 98.1065 6.43C97.9532 6.64333 97.7732 6.84667 97.5665 7.04C97.3665 7.23333 97.1532 7.43 96.9265 7.63L95.2865 9.04H98.8065V10ZM102.386 6.89C102.386 6.40333 102.429 5.93667 102.516 5.49C102.609 5.04333 102.736 4.62667 102.896 4.24C103.056 3.85333 103.243 3.50333 103.456 3.19C103.676 2.87667 103.913 2.61333 104.166 2.4H105.196C104.923 2.65333 104.676 2.93667 104.456 3.25C104.236 3.56333 104.049 3.89667 103.896 4.25C103.743 4.60333 103.623 4.97 103.536 5.35C103.456 5.73 103.416 6.11 103.416 6.49V7.29C103.416 7.67 103.456 8.05 103.536 8.43C103.623 8.81 103.743 9.17667 103.896 9.53C104.049 9.88333 104.236 10.2167 104.456 10.53C104.676 10.85 104.923 11.1333 105.196 11.38H104.166C103.913 11.1667 103.676 10.9033 103.456 10.59C103.243 10.2767 103.056 9.92667 102.896 9.54C102.736 9.15333 102.609 8.73667 102.516 8.29C102.429 7.84333 102.386 7.37667 102.386 6.89ZM110.525 10H105.785V8.92L108.015 6.93C108.369 6.61 108.639 6.30667 108.825 6.02C109.019 5.72667 109.115 5.42 109.115 5.1V4.97C109.115 4.63 109.012 4.36333 108.805 4.17C108.605 3.97667 108.332 3.88 107.985 3.88C107.792 3.88 107.622 3.91 107.475 3.97C107.335 4.02333 107.212 4.1 107.105 4.2C106.999 4.3 106.909 4.41667 106.835 4.55C106.769 4.68333 106.715 4.82667 106.675 4.98L105.685 4.6C105.759 4.38 105.859 4.17 105.985 3.97C106.112 3.76333 106.272 3.58 106.465 3.42C106.659 3.26 106.885 3.13333 107.145 3.04C107.412 2.94667 107.722 2.9 108.075 2.9C108.429 2.9 108.745 2.95333 109.025 3.06C109.305 3.16 109.539 3.30333 109.725 3.49C109.919 3.67 110.065 3.88667 110.165 4.14C110.265 4.39333 110.315 4.67 110.315 4.97C110.315 5.25 110.272 5.51 110.185 5.75C110.099 5.99 109.979 6.21667 109.825 6.43C109.672 6.64333 109.492 6.84667 109.285 7.04C109.085 7.23333 108.872 7.43 108.645 7.63L107.005 9.04H110.525V10ZM112.561 8.61C112.808 8.61 112.991 8.67333 113.111 8.8C113.231 8.92667 113.291 9.09 113.291 9.29V9.45C113.291 9.77667 113.201 10.1167 113.021 10.47C112.848 10.83 112.611 11.1333 112.311 11.38H111.501C111.715 11.1667 111.891 10.96 112.031 10.76C112.171 10.56 112.278 10.3367 112.351 10.09C112.178 10.0567 112.048 9.98333 111.961 9.87C111.875 9.75 111.831 9.61 111.831 9.45V9.29C111.831 9.09 111.891 8.92667 112.011 8.8C112.131 8.67333 112.315 8.61 112.561 8.61ZM117.602 10V8.64H114.362V7.67L117.192 3.02H118.672V7.75H119.622V8.64H118.672V10H117.602ZM115.322 7.75H117.602V4.05H117.532L115.322 7.75ZM125.088 4H121.988L121.808 6.47H121.878C121.958 6.33 122.041 6.20667 122.128 6.1C122.214 5.98667 122.314 5.89 122.428 5.81C122.541 5.73 122.671 5.67 122.818 5.63C122.964 5.58333 123.138 5.56 123.338 5.56C123.638 5.56 123.914 5.61 124.168 5.71C124.428 5.81 124.651 5.95333 124.838 6.14C125.031 6.32667 125.181 6.55667 125.288 6.83C125.394 7.09667 125.448 7.4 125.448 7.74C125.448 8.08667 125.391 8.40667 125.278 8.7C125.171 8.99333 125.011 9.24667 124.798 9.46C124.584 9.66667 124.321 9.83 124.008 9.95C123.701 10.0633 123.351 10.12 122.958 10.12C122.644 10.12 122.368 10.0833 122.128 10.01C121.888 9.94333 121.674 9.85333 121.488 9.74C121.308 9.62 121.148 9.48667 121.008 9.34C120.874 9.18667 120.754 9.03 120.648 8.87L121.468 8.22C121.554 8.36 121.644 8.48667 121.738 8.6C121.831 8.71333 121.938 8.81333 122.058 8.9C122.178 8.98667 122.311 9.05333 122.458 9.1C122.611 9.14667 122.784 9.17 122.978 9.17C123.391 9.17 123.708 9.05667 123.928 8.83C124.154 8.60333 124.268 8.29 124.268 7.89V7.77C124.268 7.37 124.154 7.05667 123.928 6.83C123.708 6.60333 123.391 6.49 122.978 6.49C122.678 6.49 122.438 6.54667 122.258 6.66C122.078 6.77333 121.924 6.9 121.798 7.04L120.868 6.91L121.128 3.02H125.088V4ZM129.024 10.12C128.637 10.12 128.291 10.0567 127.984 9.93C127.684 9.80333 127.427 9.62333 127.214 9.39C127.007 9.15 126.847 8.86333 126.734 8.53C126.621 8.19667 126.564 7.82 126.564 7.4C126.564 6.89333 126.641 6.41667 126.794 5.97C126.947 5.52333 127.144 5.11333 127.384 4.74C127.624 4.36667 127.891 4.03667 128.184 3.75C128.484 3.45667 128.777 3.21333 129.064 3.02H130.564C130.171 3.30667 129.817 3.58333 129.504 3.85C129.191 4.11667 128.917 4.39 128.684 4.67C128.451 4.95 128.254 5.24667 128.094 5.56C127.941 5.87333 127.821 6.21667 127.734 6.59L127.804 6.61C127.877 6.47 127.961 6.34 128.054 6.22C128.154 6.09333 128.267 5.98333 128.394 5.89C128.527 5.79667 128.677 5.72333 128.844 5.67C129.011 5.61667 129.204 5.59 129.424 5.59C129.717 5.59 129.987 5.64 130.234 5.74C130.487 5.84 130.704 5.98667 130.884 6.18C131.071 6.36667 131.214 6.59333 131.314 6.86C131.421 7.12667 131.474 7.42333 131.474 7.75C131.474 8.10333 131.414 8.42667 131.294 8.72C131.181 9.00667 131.017 9.25333 130.804 9.46C130.591 9.66667 130.331 9.83 130.024 9.95C129.724 10.0633 129.391 10.12 129.024 10.12ZM129.024 9.2C129.431 9.2 129.747 9.09333 129.974 8.88C130.201 8.66 130.314 8.34 130.314 7.92V7.78C130.314 7.36 130.201 7.04333 129.974 6.83C129.747 6.61 129.431 6.5 129.024 6.5C128.617 6.5 128.301 6.61 128.074 6.83C127.847 7.04333 127.734 7.36 127.734 7.78V7.92C127.734 8.34 127.847 8.66 128.074 8.88C128.301 9.09333 128.617 9.2 129.024 9.2ZM134.73 6.89C134.73 7.37667 134.683 7.84333 134.59 8.29C134.503 8.73667 134.38 9.15333 134.22 9.54C134.06 9.92667 133.87 10.2767 133.65 10.59C133.437 10.9033 133.203 11.1667 132.95 11.38H131.92C132.193 11.1333 132.44 10.85 132.66 10.53C132.88 10.2167 133.067 9.88333 133.22 9.53C133.373 9.17667 133.49 8.81 133.57 8.43C133.657 8.05 133.7 7.67 133.7 7.29V6.49C133.7 6.11 133.657 5.73 133.57 5.35C133.49 4.97 133.373 4.60333 133.22 4.25C133.067 3.89667 132.88 3.56333 132.66 3.25C132.44 2.93667 132.193 2.65333 131.92 2.4H132.95C133.203 2.61333 133.437 2.87667 133.65 3.19C133.87 3.50333 134.06 3.85333 134.22 4.24C134.38 4.62667 134.503 5.04333 134.59 5.49C134.683 5.93667 134.73 6.40333 134.73 6.89Z" fill="black" fill-opacity="0.5"/>
</svg>
