<svg width="16" height="20" viewBox="0 0 16 20" fill="none" xmlns="http://www.w3.org/2000/svg">
<path d="M7.9999 8.57176C8.88356 8.57176 9.5999 7.93214 9.5999 7.14313C9.5999 6.35413 8.88356 5.71451 7.9999 5.71451C7.11625 5.71451 6.3999 6.35413 6.3999 7.14313C6.3999 7.93214 7.11625 8.57176 7.9999 8.57176Z" fill="black"/>
<path d="M7.29815 18.9414L7.30076 18.9446C7.37143 19.0307 7.46989 19.1078 7.59296 19.1636C7.71614 19.2193 7.85639 19.25 8.0015 19.25C8.14661 19.25 8.28686 19.2193 8.41004 19.1636C8.53311 19.1078 8.63157 19.0307 8.70225 18.9446L8.70444 18.9419C9.56602 17.9019 11.2205 15.819 12.6444 13.5243L7.29815 18.9414ZM7.29815 18.9414C6.43562 17.902 4.78246 15.8189 3.35832 13.5239C1.57022 10.6416 0.75 8.40637 0.75 6.83061C0.75 3.58582 3.88771 0.75 8 0.75M7.29815 18.9414L8 0.75M8 0.75C12.1123 0.75 15.25 3.58582 15.25 6.83061C15.25 8.40739 14.4297 10.6426 12.6446 13.5241L8 0.75ZM8 10.7504H8.00073C9.02211 10.7494 10.0161 10.3874 10.7612 9.72204C11.5092 9.0542 11.9488 8.12933 11.95 7.14404V7.14312C11.95 6.40945 11.7059 5.70059 11.2612 5.10636C10.8175 4.51345 10.1962 4.06305 9.48475 3.79994C8.77354 3.5369 7.99498 3.46905 7.24456 3.60233C6.49409 3.73562 5.79445 4.06621 5.23774 4.5633C4.68017 5.06115 4.28903 5.70622 4.12943 6.42262C3.96959 7.14013 4.05267 7.88272 4.36323 8.55216C4.67306 9.22005 5.19103 9.77699 5.83791 10.1629L6.22218 9.51884L5.83791 10.1629C6.48427 10.5485 7.23646 10.7504 8 10.7504Z" stroke="black" stroke-width="1.5"/>
</svg>
