<svg width="19" height="20" viewBox="0 0 19 20" fill="none" xmlns="http://www.w3.org/2000/svg">
<path d="M16 16.5L12.8634 13.3634M12.8634 13.3634C13.3999 12.8269 13.8255 12.19 14.1159 11.489C14.4063 10.7879 14.5557 10.0366 14.5557 9.27786C14.5557 8.5191 14.4063 7.76777 14.1159 7.06677C13.8255 6.36577 13.3999 5.72882 12.8634 5.1923C12.3269 4.65577 11.69 4.23018 10.989 3.93981C10.2879 3.64945 9.53662 3.5 8.77786 3.5C8.0191 3.5 7.26777 3.64945 6.56677 3.93981C5.86577 4.23018 5.22882 4.65577 4.6923 5.1923C3.60874 6.27586 3 7.74548 3 9.27786C3 10.8102 3.60874 12.2799 4.6923 13.3634C5.77586 14.447 7.24548 15.0557 8.77786 15.0557C10.3102 15.0557 11.7799 14.447 12.8634 13.3634Z" stroke="black" stroke-width="1.5" stroke-linecap="round" stroke-linejoin="round"/>
</svg>
