<svg width="22" height="21" viewBox="0 0 22 21" fill="none" xmlns="http://www.w3.org/2000/svg">
<path d="M20.5 10.5H18.389M18.389 10.5C18.389 12.4598 17.611 14.3389 16.2252 15.7247C14.8394 17.1105 12.9598 17.889 11 17.889M18.389 10.5C18.389 8.54018 17.611 6.66013 16.2252 5.27433C14.8394 3.88853 12.9598 3.111 11 3.111M11 1V3.111M11 3.111C9.04032 3.111 7.16089 3.88848 5.77519 5.27419C4.38948 6.65989 3.611 8.53931 3.611 10.499C3.611 12.4587 4.38948 14.3381 5.77519 15.7238C7.16089 17.1095 9.04032 17.889 11 17.889M1.5 10.5H3.611M11 20V17.889" stroke="black" stroke-width="1.5" stroke-miterlimit="10" stroke-linecap="round"/>
<path d="M10.9993 14.7213C12.1191 14.7213 13.193 14.2765 13.9847 13.4847C14.7765 12.693 15.2213 11.6191 15.2213 10.4993C15.2213 9.3796 14.7765 8.30572 13.9847 7.51394C13.193 6.72216 12.1191 6.27734 10.9993 6.27734C9.8796 6.27734 8.80572 6.72216 8.01394 7.51394C7.22216 8.30572 6.77734 9.3796 6.77734 10.4993C6.77734 11.6191 7.22216 12.693 8.01394 13.4847C8.80572 14.2765 9.8796 14.7213 10.9993 14.7213Z" stroke="black" stroke-width="1.5" stroke-miterlimit="10" stroke-linecap="round"/>
</svg>
