<svg width="27" height="28" viewBox="0 0 27 28" fill="none" xmlns="http://www.w3.org/2000/svg">
<path d="M10.1908 9.03565L9.6826 9.05156C8.36913 9.09268 7.88507 9.24558 7.5561 9.52764L10.1908 9.03565ZM10.1908 9.03565V9.03614H11.1908H15.8093H16.8093V9.03565M10.1908 9.03565H16.8093M16.8093 9.03565L17.3175 9.05156C18.631 9.09268 19.115 9.24558 19.444 9.52764L16.8093 9.03565ZM20.0569 10.636C19.8665 10.0187 19.6728 9.72411 19.4442 9.52781L20.0569 10.636ZM20.0569 10.636C20.2548 11.2774 20.4129 12.1384 20.6426 13.4035M20.0569 10.636L20.6426 13.4035M20.6426 13.4035C20.6426 13.4036 20.6426 13.4036 20.6426 13.4036M20.6426 13.4035L20.6426 13.4036M20.6426 13.4036L21.4123 17.6444L20.6426 13.4036ZM21.994 21.5783C21.9547 20.6473 21.7342 19.4189 21.4123 17.6445L21.994 21.5783ZM21.994 21.5783C22.0322 22.4852 21.8865 22.9215 21.6431 23.2247M21.994 21.5783L21.6431 23.2247M21.6431 23.2247C21.4048 23.521 21.0325 23.7414 20.1797 23.867C19.2948 23.9974 18.0933 24 16.343 24M21.6431 23.2247L16.343 24M16.343 24H10.6571M16.343 24H10.6571M10.6571 24C8.90621 24 7.70478 23.9974 6.81999 23.867M10.6571 24L6.81999 23.867M6.81999 23.867C5.96711 23.7413 5.59499 23.5209 5.3566 23.2242M6.81999 23.867L5.3566 23.2242M5.3566 23.2242C5.11321 22.9214 4.96764 22.4856 5.00612 21.5786M5.3566 23.2242L5.00612 21.5786M5.00612 21.5786C5.04561 20.6474 5.26631 19.4191 5.58775 17.6445M5.00612 21.5786L5.58775 17.6445M5.58775 17.6445C5.58777 17.6444 5.58779 17.6443 5.58781 17.6442M5.58775 17.6445L5.58781 17.6442M5.58781 17.6442L6.35741 13.404C6.35742 13.404 6.35743 13.4039 6.35744 13.4039C6.35746 13.4038 6.35748 13.4037 6.3575 13.4035C6.5877 12.1388 6.74581 11.2779 6.9436 10.6362C7.134 10.0184 7.32753 9.72387 7.5559 9.52781L5.58781 17.6442Z" stroke="black" stroke-width="2"/>
</svg>
