<svg width="19" height="20" viewBox="0 0 19 20" fill="none" xmlns="http://www.w3.org/2000/svg">
<path d="M6.27778 4.44444C6.27778 3.51484 6.62908 2.63298 7.23944 1.9905C7.84814 1.34975 8.66245 1 9.5 1C10.3376 1 11.1519 1.34975 11.7606 1.9905C12.3709 2.63298 12.7222 3.51484 12.7222 4.44444C12.7222 5.37405 12.3709 6.25591 11.7606 6.89839C11.1519 7.53914 10.3376 7.88889 9.5 7.88889C8.66245 7.88889 7.84814 7.53914 7.23944 6.89839C6.62908 6.25591 6.27778 5.37405 6.27778 4.44444ZM2.27082 13.427C3.07749 12.5779 4.16027 12.1111 5.27778 12.1111H13.7222C14.8397 12.1111 15.9225 12.5779 16.7292 13.427C17.5375 14.2779 18 15.4424 18 16.6667C18 17.3016 17.7599 17.9008 17.3475 18.3349C16.9368 18.7673 16.3909 19 15.8333 19H3.16667C2.60906 19 2.06324 18.7673 1.6525 18.3349C1.24009 17.9008 1 17.3016 1 16.6667C1 15.4424 1.46251 14.2779 2.27082 13.427Z" stroke="black" stroke-width="2"/>
</svg>
