<svg width="379" height="166" viewBox="0 0 379 166" fill="none" xmlns="http://www.w3.org/2000/svg">
<path d="M191.235 100.455H198.293L210.564 130.418H211.016L223.287 100.455H230.345V139H224.811V111.107H224.454L213.086 138.944H208.494L197.126 111.088H196.768V139H191.235V100.455ZM249.466 139.583C246.755 139.583 244.39 138.962 242.37 137.72C240.35 136.478 238.782 134.74 237.665 132.507C236.548 130.273 235.99 127.663 235.99 124.677C235.99 121.678 236.548 119.056 237.665 116.81C238.782 114.564 240.35 112.82 242.37 111.578C244.39 110.336 246.755 109.714 249.466 109.714C252.176 109.714 254.541 110.336 256.561 111.578C258.581 112.82 260.15 114.564 261.266 116.81C262.383 119.056 262.942 121.678 262.942 124.677C262.942 127.663 262.383 130.273 261.266 132.507C260.15 134.74 258.581 136.478 256.561 137.72C254.541 138.962 252.176 139.583 249.466 139.583ZM249.484 134.859C251.241 134.859 252.697 134.395 253.851 133.467C255.005 132.538 255.859 131.302 256.411 129.759C256.975 128.216 257.258 126.515 257.258 124.658C257.258 122.814 256.975 121.12 256.411 119.577C255.859 118.021 255.005 116.772 253.851 115.831C252.697 114.89 251.241 114.42 249.484 114.42C247.715 114.42 246.247 114.89 245.08 115.831C243.926 116.772 243.067 118.021 242.502 119.577C241.95 121.12 241.674 122.814 241.674 124.658C241.674 126.515 241.95 128.216 242.502 129.759C243.067 131.302 243.926 132.538 245.08 133.467C246.247 134.395 247.715 134.859 249.484 134.859ZM268.615 139V100.455H274.242V114.777H274.581C274.907 114.175 275.378 113.479 275.993 112.688C276.607 111.898 277.461 111.208 278.552 110.618C279.644 110.016 281.087 109.714 282.881 109.714C285.215 109.714 287.298 110.304 289.13 111.484C290.962 112.663 292.398 114.363 293.44 116.584C294.494 118.805 295.021 121.478 295.021 124.602C295.021 127.726 294.5 130.405 293.458 132.638C292.417 134.859 290.987 136.572 289.167 137.777C287.348 138.969 285.271 139.565 282.938 139.565C281.181 139.565 279.744 139.27 278.628 138.68C277.523 138.09 276.658 137.4 276.03 136.61C275.403 135.819 274.92 135.117 274.581 134.502H274.11V139H268.615ZM274.129 124.545C274.129 126.578 274.424 128.36 275.014 129.891C275.604 131.421 276.457 132.62 277.574 133.485C278.69 134.339 280.058 134.765 281.677 134.765C283.358 134.765 284.763 134.32 285.892 133.429C287.022 132.526 287.875 131.302 288.452 129.759C289.042 128.216 289.337 126.478 289.337 124.545C289.337 122.638 289.048 120.926 288.471 119.407C287.906 117.889 287.053 116.691 285.911 115.812C284.782 114.934 283.37 114.495 281.677 114.495C280.045 114.495 278.665 114.915 277.536 115.756C276.419 116.597 275.572 117.77 274.995 119.276C274.418 120.781 274.129 122.538 274.129 124.545ZM300.28 139V110.091H305.907V139H300.28ZM303.122 105.63C302.143 105.63 301.302 105.304 300.6 104.652C299.91 103.987 299.565 103.196 299.565 102.28C299.565 101.352 299.91 100.561 300.6 99.9087C301.302 99.2437 302.143 98.9112 303.122 98.9112C304.1 98.9112 304.935 99.2437 305.625 99.9087C306.328 100.561 306.679 101.352 306.679 102.28C306.679 103.196 306.328 103.987 305.625 104.652C304.935 105.304 304.1 105.63 303.122 105.63ZM318.046 100.455V139H312.418V100.455H318.046ZM337.016 139.583C334.168 139.583 331.715 138.975 329.657 137.758C327.612 136.528 326.031 134.803 324.914 132.582C323.81 130.349 323.258 127.732 323.258 124.734C323.258 121.772 323.81 119.163 324.914 116.904C326.031 114.646 327.586 112.883 329.581 111.615C331.589 110.348 333.935 109.714 336.621 109.714C338.252 109.714 339.833 109.984 341.363 110.524C342.894 111.063 344.268 111.91 345.485 113.065C346.702 114.219 347.662 115.718 348.365 117.563C349.068 119.395 349.419 121.622 349.419 124.244V126.239H326.438V122.023H343.904C343.904 120.543 343.603 119.232 343.001 118.09C342.399 116.935 341.552 116.026 340.46 115.361C339.381 114.696 338.114 114.363 336.658 114.363C335.077 114.363 333.697 114.752 332.518 115.53C331.351 116.296 330.447 117.299 329.807 118.542C329.18 119.771 328.866 121.107 328.866 122.55V125.844C328.866 127.776 329.205 129.42 329.883 130.775C330.573 132.13 331.533 133.165 332.762 133.881C333.992 134.583 335.429 134.935 337.072 134.935C338.139 134.935 339.111 134.784 339.99 134.483C340.868 134.169 341.627 133.705 342.267 133.09C342.907 132.475 343.396 131.716 343.735 130.813L349.061 131.773C348.635 133.341 347.869 134.715 346.765 135.895C345.673 137.061 344.3 137.971 342.643 138.624C341 139.263 339.124 139.583 337.016 139.583Z" fill="#F26921"/>
<path d="M203.315 67.7955H212.724L217.455 73.8807L222.108 79.3011L230.878 90.2955H220.548L214.514 82.8807L211.42 78.483L203.315 67.7955ZM231.67 59.8182C231.67 65.5284 230.588 70.3864 228.423 74.392C226.276 78.3977 223.344 81.4574 219.628 83.571C215.929 85.6676 211.77 86.7159 207.151 86.7159C202.497 86.7159 198.321 85.6591 194.622 83.5455C190.923 81.4318 188 78.3722 185.852 74.3665C183.705 70.3608 182.631 65.5114 182.631 59.8182C182.631 54.108 183.705 49.25 185.852 45.2443C188 41.2386 190.923 38.1875 194.622 36.0909C198.321 33.9773 202.497 32.9205 207.151 32.9205C211.77 32.9205 215.929 33.9773 219.628 36.0909C223.344 38.1875 226.276 41.2386 228.423 45.2443C230.588 49.25 231.67 54.108 231.67 59.8182ZM220.446 59.8182C220.446 56.1193 219.892 53 218.784 50.4602C217.693 47.9205 216.151 45.9943 214.156 44.6818C212.162 43.3693 209.827 42.7131 207.151 42.7131C204.474 42.7131 202.139 43.3693 200.145 44.6818C198.151 45.9943 196.599 47.9205 195.491 50.4602C194.401 53 193.855 56.1193 193.855 59.8182C193.855 63.517 194.401 66.6364 195.491 69.1761C196.599 71.7159 198.151 73.642 200.145 74.9545C202.139 76.267 204.474 76.9233 207.151 76.9233C209.827 76.9233 212.162 76.267 214.156 74.9545C216.151 73.642 217.693 71.7159 218.784 69.1761C219.892 66.6364 220.446 63.517 220.446 59.8182ZM264.132 69.2784V46.7273H275.024V86H264.566V78.8665H264.157C263.271 81.1676 261.796 83.017 259.734 84.4148C257.688 85.8125 255.191 86.5114 252.242 86.5114C249.617 86.5114 247.308 85.9148 245.313 84.7216C243.319 83.5284 241.759 81.8324 240.634 79.6335C239.526 77.4347 238.964 74.8011 238.947 71.733V46.7273H249.839V69.7898C249.856 72.108 250.478 73.9403 251.705 75.2869C252.933 76.6335 254.578 77.3068 256.64 77.3068C257.953 77.3068 259.18 77.0085 260.322 76.4119C261.464 75.7983 262.384 74.8949 263.083 73.7017C263.799 72.5085 264.149 71.0341 264.132 69.2784ZM316.704 86.767C312.682 86.767 309.221 85.9148 306.324 84.2102C303.443 82.4886 301.227 80.1023 299.676 77.0511C298.142 74 297.375 70.4886 297.375 66.517C297.375 62.4943 298.15 58.9659 299.702 55.9318C301.27 52.8807 303.494 50.5028 306.375 48.7983C309.255 47.0767 312.682 46.2159 316.653 46.2159C320.079 46.2159 323.079 46.8381 325.653 48.0824C328.227 49.3267 330.264 51.0739 331.764 53.3239C333.264 55.5739 334.091 58.2159 334.244 61.25H323.966C323.676 59.2898 322.909 57.7131 321.665 56.5199C320.437 55.3097 318.827 54.7045 316.832 54.7045C315.145 54.7045 313.67 55.1648 312.409 56.0852C311.165 56.9886 310.193 58.3097 309.494 60.0483C308.795 61.7869 308.446 63.892 308.446 66.3636C308.446 68.8693 308.787 71 309.469 72.7557C310.167 74.5114 311.148 75.8494 312.409 76.7699C313.67 77.6903 315.145 78.1506 316.832 78.1506C318.077 78.1506 319.193 77.8949 320.182 77.3835C321.187 76.8722 322.014 76.1307 322.662 75.1591C323.327 74.1705 323.761 72.9858 323.966 71.6051H334.244C334.074 74.6051 333.255 77.2472 331.79 79.5312C330.341 81.7983 328.338 83.571 325.781 84.8494C323.224 86.1278 320.199 86.767 316.704 86.767ZM350.367 74.6989L350.393 61.6335H351.978L364.557 46.7273H377.06L360.16 66.4659H357.577L350.367 74.6989ZM340.498 86V33.6364H351.39V86H340.498ZM365.043 86L353.486 68.8949L360.748 61.1989L377.802 86H365.043Z" fill="#1968B3"/>
<path d="M281 31V70H293V31H281Z" fill="#1968B3"/>
<circle cx="287" cy="81" r="6" fill="#F26921"/>
<path d="M81.3872 98.0996C79.8507 100.541 74.1875 103.29 71.548 104.36C72.7574 112.331 78.7275 130.18 99.5875 143.638C87.8424 134.443 82.1099 106.584 81.3872 98.0996Z" fill="#734028"/>
<path d="M42.3155 75.794C43.4666 58.6139 39.4019 38.8934 37.2257 31.1807C36.3587 24.6612 60.5837 17.6546 62.4451 20.6936C66.4782 27.2774 75.044 45.3561 77.0432 65.0011C74.9922 70 91.5421 73.6466 100.492 92.5L106.026 90.5984C104.935 95.077 103.557 108.652 106.781 127.121C110.004 145.591 76.9922 96.9331 76.9922 96.9331C76.9922 96.9331 77.9524 96.9331 77.4922 96.5C65.3235 85.0491 73.3902 96.9331 73.3902 96.9331C72.4922 108.5 62.8146 105.419 53.282 102.023C40.9663 97.771 22.6665 74.7257 15.0561 63.7347C16.3721 64.5951 23.6665 68.2115 42.3155 75.794Z" fill="#794227"/>
<path d="M49.9922 78.5006C50.7922 61.3006 46.3255 41.6672 43.9922 34.0006C42.9922 27.5001 67.0691 20.0001 68.9922 23.0006C73.1589 29.5006 82.0922 47.4006 84.4922 67.0006C104.892 47.8006 128.659 80.3339 137.992 99.0006L113.992 92.0006C112.992 96.5006 111.892 110.101 115.492 128.501C119.092 146.901 137.992 160.834 146.992 165.501C136.659 164.001 112.892 158.201 100.492 147.001C88.0922 135.801 82.6589 110.334 81.4922 99.0006C78.8255 102.167 71.0922 107.701 61.4922 104.501C49.0922 100.501 30.3255 77.8339 22.4922 67.0006C23.8255 67.8339 31.1922 71.3006 49.9922 78.5006Z" fill="#F26921"/>
<path d="M136 136.5C143.5 136 157.45 114.329 160.823 94.7559C164.196 75.1831 160.261 55.0532 149.764 38.1921C139.267 21.3311 122.942 8.91427 103.89 3.30161C84.8382 -2.31105 64.3883 -0.728292 46.427 7.74906C28.4658 16.2264 14.2452 31.0074 6.46805 49.2828C-1.30908 67.5581 -2.10062 88.0539 4.24388 106.875C10.5884 125.695 23.6266 141.529 40.8806 151.366C58.1346 161.204 81.5 166 89.5 155.5C93 151.5 94.5 148.5 93 141.5C78.6864 144.54 64.1538 140.091 51.4418 132.843C38.7299 125.595 29.1239 113.93 24.4496 100.063C19.7752 86.197 20.3584 71.0967 26.0882 57.6322C31.8181 44.1677 42.2952 33.2778 55.5282 27.032C68.7613 20.7863 83.8278 19.6202 97.8643 23.7554C111.901 27.8905 123.929 37.0387 131.662 49.4611C139.396 61.8836 142.295 76.7144 139.81 91.1348C137.325 105.555 129.445 121.883 118 131C121.468 135.037 128.5 137 136 136.5Z" fill="#1968B3"/>
</svg>
