<?xml version="1.0"?>
<svg width="23.999999999999996" height="23.999999999999996" xmlns="http://www.w3.org/2000/svg" xmlns:svg="http://www.w3.org/2000/svg">
 <g class="layer">
  <title>Layer 1</title>
  <path d="m20.8,14.26l-17.15,0c-0.26,0 -0.5,0.18 -0.57,0.44l-1.36,4.8c-0.36,1.27 0.6,2.54 1.92,2.54l16.72,0c1.32,0 2.28,-1.27 1.92,-2.54l-1.48,-5.24zm0,0l0,-6.11" fill="#ffffff" id="svg_1" stroke="#006cf9" stroke-linecap="round" stroke-linejoin="round" stroke-width="2"/>
  <path d="m3.2,14.13l0,-10.22c0,-1.1 0.9,-2 2,-2l6.8,0" fill="#ffffff" id="svg_2" stroke="#006cf9" stroke-linecap="round" stroke-linejoin="round" stroke-width="2"/>
  <path d="m11,19l2,0" fill="#0065ff" id="svg_3" stroke="#006cf9" stroke-linecap="round" stroke-linejoin="round" stroke-width="2"/>
  <path d="m17.66,4.83l-2.83,2.83" fill="#0065ff" id="svg_4" stroke="#006cf9" stroke-linecap="round" stroke-linejoin="round" stroke-width="2"/>
  <path d="m20.49,4.83c-0.79,0.78 -2.05,0.78 -2.83,0c-0.78,-0.78 -0.78,-2.05 0,-2.83" fill="#0065ff" id="svg_5" stroke="#006cf9" stroke-linecap="round" stroke-linejoin="round" stroke-width="2"/>
  <path d="m14.83,10.49c0.78,-0.79 0.78,-2.05 0,-2.83c-0.78,-0.78 -2.05,-0.78 -2.83,0" fill="#0065ff" id="svg_6" stroke="#006cf9" stroke-linecap="round" stroke-linejoin="round" stroke-width="2"/>
 </g>
</svg>