<svg width="147" height="152" viewBox="0 0 147 152" fill="none" xmlns="http://www.w3.org/2000/svg">
<rect x="0.578467" y="0.15" width="145.414" height="151.7" rx="9.85" fill="white"/>
<rect x="0.578467" y="0.15" width="145.414" height="151.7" rx="9.85" stroke="#E1E1E1" stroke-width="0.3"/>
<g clip-path="url(#clip0_854_168)">
<path d="M96.8622 65.974C92.7658 68.5053 90.2357 72.8447 90.2357 77.6663C90.2357 83.0906 93.4887 88.0328 98.4285 90.082C97.4646 93.216 96.0188 96.109 94.2116 98.7608C91.561 102.498 88.7899 106.355 84.6935 106.355C80.5971 106.355 79.3923 103.944 74.573 103.944C69.8743 103.944 68.1875 106.475 64.3321 106.475C60.4767 106.475 57.8261 102.98 54.814 98.6403C50.8381 92.6133 48.5489 85.622 48.4285 78.269C48.4285 66.3356 56.1393 59.947 63.8502 59.947C67.9465 59.947 71.32 62.5988 73.8502 62.5988C76.2598 62.5988 80.1152 59.8264 84.6935 59.8264C89.5128 59.7059 94.0911 61.9961 96.8622 65.974ZM82.5249 54.7637C84.573 52.3529 85.6574 49.3394 85.7779 46.2054C85.7779 45.8438 85.7779 45.3616 85.6574 45C82.1634 45.3616 78.9104 47.0492 76.6212 49.7011C74.573 51.9913 73.3682 54.8843 73.2477 58.0183C73.2477 58.3799 73.2477 58.7416 73.3682 59.1032C73.6092 59.1032 73.9706 59.2237 74.2116 59.2237C77.4646 58.9826 80.4767 57.2951 82.5249 54.7637Z" fill="black"/>
</g>
<defs>
<clipPath id="clip0_854_168">
<rect width="50" height="61.4754" fill="white" transform="translate(48.4285 45)"/>
</clipPath>
</defs>
</svg>
