<svg width="146" height="152" viewBox="0 0 146 152" fill="none" xmlns="http://www.w3.org/2000/svg">
<rect x="0.15" y="0.15" width="145.414" height="151.7" rx="9.85" fill="white"/>
<rect x="0.15" y="0.15" width="145.414" height="151.7" rx="9.85" stroke="#E1E1E1" stroke-width="0.3"/>
<g clip-path="url(#clip0_854_157)">
<path d="M96.4337 65.974C92.3374 68.5053 89.8072 72.8447 89.8072 77.6663C89.8072 83.0906 93.0602 88.0328 98 90.082C97.0361 93.216 95.5904 96.109 93.7831 98.7608C91.1325 102.498 88.3614 106.355 84.2651 106.355C80.1687 106.355 78.9639 103.944 74.1446 103.944C69.4458 103.944 67.759 106.475 63.9036 106.475C60.0482 106.475 57.3976 102.98 54.3855 98.6403C50.4096 92.6133 48.1205 85.622 48 78.269C48 66.3356 55.7108 59.947 63.4217 59.947C67.5181 59.947 70.8916 62.5988 73.4217 62.5988C75.8313 62.5988 79.6867 59.8264 84.2651 59.8264C89.0843 59.7059 93.6627 61.9961 96.4337 65.974ZM82.0964 54.7637C84.1446 52.3529 85.2289 49.3394 85.3494 46.2054C85.3494 45.8438 85.3494 45.3616 85.2289 45C81.7349 45.3616 78.4819 47.0492 76.1928 49.7011C74.1446 51.9913 72.9398 54.8843 72.8193 58.0183C72.8193 58.3799 72.8193 58.7416 72.9398 59.1032C73.1807 59.1032 73.5422 59.2237 73.7831 59.2237C77.0361 58.9826 80.0482 57.2951 82.0964 54.7637Z" fill="black"/>
</g>
<defs>
<clipPath id="clip0_854_157">
<rect width="50" height="61.4754" fill="white" transform="translate(48 45)"/>
</clipPath>
</defs>
</svg>
