<svg width="146" height="152" viewBox="0 0 146 152" fill="none" xmlns="http://www.w3.org/2000/svg">
<rect x="0.292578" y="0.15" width="145.414" height="151.7" rx="9.85" fill="white"/>
<rect x="0.292578" y="0.15" width="145.414" height="151.7" rx="9.85" stroke="#E1E1E1" stroke-width="0.3"/>
<path d="M95.1426 76.521C95.1426 74.896 94.9967 73.3335 94.7259 71.8335H73.1426V80.6981H85.4759C84.9447 83.5627 83.3301 85.9897 80.903 87.6147V93.3647H88.3092C92.6426 89.3752 95.1426 83.5002 95.1426 76.521Z" fill="#4285F4"/>
<path d="M73.1427 98.9165C79.3302 98.9165 84.5177 96.8644 88.3094 93.3644L80.9032 87.6144C78.8511 88.9894 76.2261 89.8019 73.1427 89.8019C67.174 89.8019 62.1219 85.7707 60.3198 80.354H52.6636V86.2915C56.4344 93.7811 64.1844 98.9165 73.1427 98.9165Z" fill="#34A853"/>
<path d="M60.3198 80.3543C59.8615 78.9793 59.6011 77.5106 59.6011 76.0002C59.6011 74.4897 59.8615 73.021 60.3198 71.646V65.7085H52.6636C51.0594 68.902 50.2247 72.4264 50.2261 76.0002C50.2261 79.6981 51.1115 83.1981 52.6636 86.2918L60.3198 80.3543Z" fill="#FBBC05"/>
<path d="M73.1427 62.1981C76.5073 62.1981 79.5282 63.3543 81.9032 65.6252L88.4761 59.0522C84.5073 55.3543 79.3198 53.0835 73.1427 53.0835C64.1844 53.0835 56.4344 58.2189 52.6636 65.7085L60.3198 71.646C62.1219 66.2293 67.174 62.1981 73.1427 62.1981Z" fill="#EA4335"/>
</svg>
