<svg width="80" height="15" viewBox="0 0 80 15" fill="none" xmlns="http://www.w3.org/2000/svg">
<path d="M6.22474 5.14746L7.95674 1.87746C8.00716 1.78283 8.0847 1.70323 8.18067 1.6476C8.27664 1.59197 8.38724 1.5625 8.50008 1.5625C8.61291 1.5625 8.72351 1.59197 8.81948 1.6476C8.91545 1.70323 8.99299 1.78283 9.04341 1.87746L10.7754 5.14746L14.6474 5.67496C14.7591 5.68948 14.8642 5.73315 14.9507 5.80097C15.0371 5.86879 15.1015 5.95805 15.1365 6.05854C15.1715 6.15904 15.1756 6.26672 15.1484 6.36931C15.1212 6.4719 15.0638 6.56525 14.9827 6.63871L12.1814 9.18246L12.8427 12.7762C12.9274 13.2375 12.4074 13.5887 11.9627 13.3712L8.50008 11.6737L5.03674 13.3712C4.59274 13.5893 4.07274 13.2375 4.15741 12.7756L4.81874 9.18184L2.01741 6.63809C1.93673 6.56457 1.87968 6.47131 1.85272 6.36891C1.82576 6.26651 1.82999 6.15907 1.86492 6.0588C1.89985 5.95854 1.96409 5.86948 2.05032 5.80173C2.13656 5.73399 2.24133 5.69029 2.35274 5.67559L6.22474 5.14746Z" fill="#F4E027" stroke="#F4E027" stroke-width="1.5" stroke-linecap="round" stroke-linejoin="round"/>
<path d="M27.2247 5.14746L28.9567 1.87746C29.0072 1.78283 29.0847 1.70323 29.1807 1.6476C29.2766 1.59197 29.3872 1.5625 29.5001 1.5625C29.6129 1.5625 29.7235 1.59197 29.8195 1.6476C29.9155 1.70323 29.993 1.78283 30.0434 1.87746L31.7754 5.14746L35.6474 5.67496C35.7591 5.68948 35.8642 5.73315 35.9507 5.80097C36.0371 5.86879 36.1015 5.95805 36.1365 6.05854C36.1715 6.15904 36.1756 6.26672 36.1484 6.36931C36.1212 6.4719 36.0638 6.56525 35.9827 6.63871L33.1814 9.18246L33.8427 12.7762C33.9274 13.2375 33.4074 13.5887 32.9627 13.3712L29.5001 11.6737L26.0367 13.3712C25.5927 13.5893 25.0727 13.2375 25.1574 12.7756L25.8187 9.18184L23.0174 6.63809C22.9367 6.56457 22.8797 6.47131 22.8527 6.36891C22.8258 6.26651 22.83 6.15907 22.8649 6.0588C22.8999 5.95854 22.9641 5.86948 23.0503 5.80173C23.1366 5.73399 23.2413 5.69029 23.3527 5.67559L27.2247 5.14746Z" fill="#F4E027" stroke="#F4E027" stroke-width="1.5" stroke-linecap="round" stroke-linejoin="round"/>
<path d="M48.2247 5.14746L49.9567 1.87746C50.0072 1.78283 50.0847 1.70323 50.1807 1.6476C50.2766 1.59197 50.3872 1.5625 50.5001 1.5625C50.6129 1.5625 50.7235 1.59197 50.8195 1.6476C50.9155 1.70323 50.993 1.78283 51.0434 1.87746L52.7754 5.14746L56.6474 5.67496C56.7591 5.68948 56.8642 5.73315 56.9507 5.80097C57.0371 5.86879 57.1015 5.95805 57.1365 6.05854C57.1715 6.15904 57.1756 6.26672 57.1484 6.36931C57.1212 6.4719 57.0638 6.56525 56.9827 6.63871L54.1814 9.18246L54.8427 12.7762C54.9274 13.2375 54.4074 13.5887 53.9627 13.3712L50.5001 11.6737L47.0367 13.3712C46.5927 13.5893 46.0727 13.2375 46.1574 12.7756L46.8187 9.18184L44.0174 6.63809C43.9367 6.56457 43.8797 6.47131 43.8527 6.36891C43.8258 6.26651 43.83 6.15907 43.8649 6.0588C43.8999 5.95854 43.9641 5.86948 44.0503 5.80173C44.1366 5.73399 44.2413 5.69029 44.3527 5.67559L48.2247 5.14746Z" fill="#F4E027" stroke="#F4E027" stroke-width="1.5" stroke-linecap="round" stroke-linejoin="round"/>
<path d="M69.2247 5.14746L70.9567 1.87746C71.0072 1.78283 71.0847 1.70323 71.1807 1.6476C71.2766 1.59197 71.3872 1.5625 71.5001 1.5625C71.6129 1.5625 71.7235 1.59197 71.8195 1.6476C71.9155 1.70323 71.993 1.78283 72.0434 1.87746L73.7754 5.14746L77.6474 5.67496C77.7591 5.68948 77.8642 5.73315 77.9507 5.80097C78.0371 5.86879 78.1015 5.95805 78.1365 6.05854C78.1715 6.15904 78.1756 6.26672 78.1484 6.36931C78.1212 6.4719 78.0638 6.56525 77.9827 6.63871L75.1814 9.18246L75.8427 12.7762C75.9274 13.2375 75.4074 13.5887 74.9627 13.3712L71.5001 11.6737L68.0367 13.3712C67.5927 13.5893 67.0727 13.2375 67.1574 12.7756L67.8187 9.18184L65.0174 6.63809C64.9367 6.56457 64.8797 6.47131 64.8527 6.36891C64.8258 6.26651 64.83 6.15907 64.8649 6.0588C64.8999 5.95854 64.9641 5.86948 65.0503 5.80173C65.1366 5.73399 65.2413 5.69029 65.3527 5.67559L69.2247 5.14746Z" fill="#F4E027" stroke="#F4E027" stroke-width="1.5" stroke-linecap="round" stroke-linejoin="round"/>
</svg>
