<svg width="5" height="11" viewBox="0 0 5 11" fill="none" xmlns="http://www.w3.org/2000/svg">
<path fill-rule="evenodd" clip-rule="evenodd" d="M0.206923 10.2811C0.0851743 10.1407 0.0167891 9.9504 0.0167891 9.75201C0.0167891 9.55362 0.0851743 9.36334 0.206923 9.22296L3.43158 5.50967L0.206923 1.79637C0.143048 1.72783 0.0918152 1.64518 0.0562816 1.55335C0.0207479 1.46151 0.00164138 1.36238 0.00010118 1.26186C-0.00143902 1.16133 0.0146188 1.06149 0.047317 0.968266C0.0800153 0.875046 0.128684 0.790366 0.19042 0.719275C0.252155 0.648184 0.325693 0.592141 0.406646 0.554488C0.487599 0.516835 0.574308 0.498343 0.661602 0.500117C0.748895 0.50189 0.834985 0.523893 0.914734 0.56481C0.994483 0.605729 1.06626 0.664725 1.12578 0.738279L4.80987 4.98062C4.93161 5.12099 5 5.31127 5 5.50967C5 5.70806 4.93161 5.89834 4.80987 6.03871L1.12578 10.2811C1.00388 10.4213 0.838636 10.5 0.66635 10.5C0.494064 10.5 0.328823 10.4213 0.206923 10.2811Z" fill="black"/>
</svg>
