<svg width="60" height="59" viewBox="0 0 60 59" fill="none" xmlns="http://www.w3.org/2000/svg">
<path d="M38.7 22.9H35.8V21.4333C35.8 20.6554 35.4945 19.9093 34.9506 19.3592C34.4068 18.809 33.6691 18.5 32.9 18.5H18.4C17.6309 18.5 16.8932 18.809 16.3494 19.3592C15.8055 19.9093 15.5 20.6554 15.5 21.4333V36.1H18.4C18.4 36.6778 18.5125 37.25 18.7311 37.7838C18.9497 38.3176 19.2702 38.8027 19.6741 39.2113C20.078 39.6198 20.5576 39.944 21.0853 40.1651C21.6131 40.3862 22.1788 40.5 22.75 40.5C23.3213 40.5 23.8869 40.3862 24.4147 40.1651C24.9424 39.944 25.422 39.6198 25.8259 39.2113C26.2298 38.8027 26.5503 38.3176 26.7689 37.7838C26.9875 37.25 27.1 36.6778 27.1 36.1H32.9C32.9 37.267 33.3583 38.3861 34.1741 39.2113C34.9899 40.0364 36.0963 40.5 37.25 40.5C38.4037 40.5 39.5101 40.0364 40.3259 39.2113C41.1417 38.3861 41.6 37.267 41.6 36.1H44.5V28.7667L38.7 22.9ZM22.75 38.3C22.4643 38.2999 22.1814 38.2429 21.9174 38.1322C21.6535 38.0215 21.4137 37.8593 21.2117 37.6549C21.0098 37.4505 20.8496 37.2078 20.7403 36.9408C20.6311 36.6737 20.5749 36.3875 20.575 36.0985C20.5751 35.8095 20.6315 35.5234 20.7409 35.2564C20.8503 34.9894 21.0107 34.7469 21.2128 34.5426C21.4149 34.3383 21.6548 34.1763 21.9188 34.0658C22.1828 33.9553 22.4657 33.8984 22.7515 33.8985C23.3285 33.8987 23.8818 34.1308 24.2897 34.5436C24.6976 34.9565 24.9266 35.5163 24.9265 36.1C24.9263 36.6837 24.6968 37.2434 24.2887 37.6559C23.8805 38.0685 23.327 38.3002 22.75 38.3ZM18.4 31.7V21.4333H32.9V31.7H18.4ZM37.25 38.3C36.9643 38.2999 36.6814 38.2429 36.4174 38.1322C36.1535 38.0215 35.9137 37.8593 35.7117 37.6549C35.5098 37.4505 35.3496 37.2078 35.2403 36.9408C35.1311 36.6737 35.0749 36.3875 35.075 36.0985C35.0751 35.8095 35.1315 35.5234 35.2409 35.2564C35.3503 34.9894 35.5107 34.7469 35.7128 34.5426C35.9149 34.3383 36.1548 34.1763 36.4188 34.0658C36.6828 33.9553 36.9657 33.8984 37.2514 33.8985C37.8285 33.8987 38.3818 34.1308 38.7897 34.5436C39.1976 34.9565 39.4266 35.5163 39.4265 36.1C39.4263 36.6837 39.1968 37.2434 38.7887 37.6559C38.3805 38.0685 37.827 38.3002 37.25 38.3Z" fill="black"/>
</svg>
