<svg width="60" height="59" viewBox="0 0 60 59" fill="none" xmlns="http://www.w3.org/2000/svg">
<path d="M12 17.5H48V41.5H12V17.5ZM30 23.5C31.5913 23.5 33.1174 24.1321 34.2426 25.2574C35.3679 26.3826 36 27.9087 36 29.5C36 31.0913 35.3679 32.6174 34.2426 33.7426C33.1174 34.8679 31.5913 35.5 30 35.5C28.4087 35.5 26.8826 34.8679 25.7574 33.7426C24.6321 32.6174 24 31.0913 24 29.5C24 27.9087 24.6321 26.3826 25.7574 25.2574C26.8826 24.1321 28.4087 23.5 30 23.5ZM20 21.5C20 22.5609 19.5786 23.5783 18.8284 24.3284C18.0783 25.0786 17.0609 25.5 16 25.5V33.5C17.0609 33.5 18.0783 33.9214 18.8284 34.6716C19.5786 35.4217 20 36.4391 20 37.5H40C40 36.4391 40.4214 35.4217 41.1716 34.6716C41.9217 33.9214 42.9391 33.5 44 33.5V25.5C42.9391 25.5 41.9217 25.0786 41.1716 24.3284C40.4214 23.5783 40 22.5609 40 21.5H20Z" fill="black"/>
</svg>
