<svg width="33" height="32" viewBox="0 0 33 32" fill="none" xmlns="http://www.w3.org/2000/svg">
<path d="M20.266 9.38899C19.4649 9.19325 18.6322 9.16437 17.8196 9.30415C17.0069 9.44392 16.2317 9.74936 15.5421 10.2015C15.4912 10.2353 15.4483 10.2797 15.4164 10.3318C15.3845 10.3839 15.3644 10.4423 15.3574 10.503C15.3504 10.5637 15.3568 10.6251 15.3761 10.6831C15.3954 10.741 15.4271 10.7941 15.469 10.8385C15.5573 10.9372 15.6777 11.0015 15.8088 11.02C15.94 11.0384 16.0735 11.0098 16.1856 10.9392C16.7525 10.5674 17.3898 10.3162 18.058 10.2013C18.7261 10.0864 19.4108 10.1102 20.0693 10.2714C21.2261 10.47 22.2577 11.1173 22.9396 12.0726C23.6216 13.0278 23.8988 14.2137 23.711 15.3722L23.6671 15.5656C23.6145 15.7955 23.5427 16.0205 23.4526 16.2384C23.4061 16.3662 23.4084 16.5067 23.4591 16.6329C23.5098 16.7592 23.6052 16.8623 23.7272 16.9225C23.7827 16.9546 23.8442 16.9749 23.908 16.9819C23.9717 16.989 24.0362 16.9827 24.0974 16.9634C24.1585 16.9442 24.215 16.9124 24.2632 16.8701C24.3113 16.8278 24.3502 16.7759 24.3772 16.7177C24.5214 16.3808 24.6272 16.0286 24.6925 15.668L24.7071 15.6046C24.9354 14.1924 24.5969 12.7471 23.7652 11.5832C22.9335 10.4192 21.676 9.63064 20.266 9.38899ZM25.141 30.6602H23.6443L25.3717 28.7769C25.5616 28.5384 25.6662 28.2433 25.6688 27.9384C25.6715 27.6336 25.572 27.3367 25.3863 27.095C25.1874 26.8465 24.9337 26.6473 24.645 26.5131C24.3564 26.3789 24.0406 26.3133 23.7223 26.3215C23.2235 26.2722 22.7252 26.4196 22.3334 26.7322C21.9416 27.0448 21.6872 27.498 21.6245 27.9952C21.6593 28.1496 21.7455 28.2876 21.8691 28.3864C21.9927 28.4852 22.1463 28.5391 22.3045 28.5391C22.4628 28.5391 22.6163 28.4852 22.7399 28.3864C22.8635 28.2876 22.9498 28.1496 22.9846 27.9952C23.0081 27.8189 23.0996 27.6587 23.2396 27.5488C23.3795 27.4389 23.5568 27.3881 23.7337 27.407C23.8262 27.4055 23.9177 27.4259 24.0007 27.4665C24.0838 27.5072 24.156 27.567 24.2115 27.641C24.2692 27.716 24.303 27.8066 24.3085 27.9011C24.3141 27.9956 24.291 28.0895 24.2423 28.1707L21.7545 30.8829C21.6822 30.9567 21.6372 31.0529 21.6269 31.1556C21.6165 31.2584 21.6415 31.3616 21.6976 31.4484C21.7665 31.5437 21.8579 31.6206 21.9636 31.6722C22.0693 31.7238 22.1861 31.7485 22.3037 31.7441H25.1393C25.2207 31.7626 25.3052 31.7625 25.3865 31.7439C25.4679 31.7253 25.544 31.6886 25.6092 31.6365C25.6744 31.5844 25.7271 31.5184 25.7632 31.4432C25.7994 31.368 25.8182 31.2856 25.8182 31.2022C25.8182 31.1187 25.7994 31.0364 25.7632 30.9612C25.7271 30.886 25.6744 30.8199 25.6092 30.7678C25.544 30.7158 25.4679 30.6791 25.3865 30.6604C25.3052 30.6418 25.2223 30.6417 25.141 30.6602ZM11.2358 27.875C10.8433 28.026 10.4263 28.1031 10.0057 28.1025C9.34419 28.1683 8.68311 27.9733 8.1632 27.559C7.64329 27.1447 7.30562 26.5439 7.22208 25.8844C7.30562 25.2248 7.64329 24.624 8.1632 24.2097C8.68311 23.7954 9.34419 23.6004 10.0057 23.6662C10.4216 23.6657 10.8341 23.7411 11.2228 23.8889C11.3804 23.9547 11.5555 23.9659 11.7202 23.9205C11.8849 23.8751 12.0296 23.7759 12.1312 23.6386C12.1681 23.5719 12.1892 23.4975 12.1929 23.4214C12.1965 23.3452 12.1827 23.2692 12.1524 23.1992C12.1221 23.1292 12.0762 23.0671 12.0181 23.0176C11.9601 22.9682 11.8915 22.9327 11.8176 22.9139C11.2387 22.6952 10.6245 22.585 10.0057 22.5889C9.02119 22.4921 8.03771 22.7828 7.26404 23.3993C6.49037 24.0158 5.98743 24.9096 5.86196 25.8909C5.98704 26.8724 6.48982 27.7666 7.26354 28.3834C8.03725 29.0003 9.02094 29.2912 10.0057 29.1945C10.6326 29.1958 11.2543 29.0801 11.8387 28.8532C11.9126 28.8342 11.9811 28.7984 12.039 28.7486C12.0968 28.6989 12.1424 28.6365 12.1723 28.5662C12.2021 28.496 12.2154 28.4198 12.2111 28.3436C12.2068 28.2675 12.185 28.1933 12.1475 28.1269C12.0459 27.9886 11.9007 27.8885 11.7353 27.8428C11.5699 27.7971 11.394 27.8085 11.2358 27.875ZM16.6812 22.5775C15.6967 22.4799 14.713 22.7704 13.9394 23.3871C13.1658 24.0038 12.6634 24.898 12.5391 25.8795C12.6642 26.8607 13.1667 27.7546 13.9401 28.3714C14.7134 28.9883 15.6967 29.2794 16.6812 29.1831C17.666 29.2799 18.6497 28.9889 19.4234 28.3721C20.1971 27.7552 20.6999 26.8611 20.825 25.8795C20.6995 24.8982 20.1965 24.0045 19.4229 23.388C18.6492 22.7714 17.6657 22.4807 16.6812 22.5775ZM16.6812 28.1025C16.0184 28.1691 15.3558 27.9739 14.8351 27.5585C14.3143 27.1431 13.9767 26.5405 13.8943 25.8795C13.9779 25.2203 14.3153 24.6197 14.8349 24.2054C15.3544 23.7912 16.0151 23.596 16.6763 23.6614C17.3379 23.5955 17.9989 23.7905 18.5188 24.2048C19.0388 24.6191 19.3764 25.22 19.46 25.8795C19.3764 26.5381 19.0394 27.1382 18.5206 27.5523C18.0018 27.9665 17.3419 28.1621 16.6812 28.0976V28.1025ZM10.1373 21.0955C10.2759 21.0879 10.4064 21.0275 10.5018 20.9267C10.5972 20.8259 10.6504 20.6924 10.6504 20.5536C10.6504 20.4147 10.5972 20.2812 10.5018 20.1804C10.4064 20.0796 10.2759 20.0192 10.1373 20.0116H6.13658C4.96806 20.0129 3.83647 19.6023 2.94075 18.8518C2.04504 18.1014 1.44254 17.0592 1.23918 15.9085C1.03582 14.7578 1.24461 13.5723 1.82885 12.5603C2.4131 11.5483 3.33539 10.7746 4.43358 10.3754C4.56311 10.3265 4.669 10.2299 4.72945 10.1054C4.7899 9.98082 4.80033 9.83785 4.75858 9.70586C4.48693 8.88921 4.3811 8.02654 4.44728 7.16844C4.51346 6.31034 4.75033 5.47409 5.14399 4.70876C5.53766 3.94342 6.08019 3.26439 6.73976 2.71152C7.39934 2.15864 8.16268 1.74303 8.98501 1.48909C9.80733 1.23514 10.6721 1.14796 11.5286 1.23266C12.385 1.31736 13.216 1.57223 13.9726 1.98234C14.7293 2.39244 15.3964 2.94951 15.9349 3.62087C16.4734 4.29223 16.8725 5.06437 17.1086 5.89199C17.1395 5.98807 17.1961 6.07385 17.2723 6.14003C17.3485 6.2062 17.4414 6.25024 17.5408 6.26736C17.6403 6.28403 17.7425 6.27229 17.8357 6.23348C17.9288 6.19468 18.0091 6.13038 18.0673 6.04799C18.5703 5.34918 19.2319 4.77965 19.9977 4.38615C20.7635 3.99265 21.6117 3.78641 22.4727 3.78436H22.5085C23.234 3.78272 23.9521 3.92965 24.6186 4.21611C25.2852 4.50257 25.886 4.92249 26.3841 5.44999C26.8927 5.97695 27.289 6.60165 27.549 7.28627C27.8091 7.97088 27.9274 8.70116 27.897 9.43286C27.8939 9.5743 27.9462 9.71133 28.0427 9.81477C28.1392 9.91822 28.2723 9.9799 28.4136 9.98668C28.5549 9.99346 28.6932 9.9448 28.7992 9.85107C28.9052 9.75733 28.9703 9.62594 28.9808 9.48486C29.0181 8.60597 28.8766 7.72866 28.5649 6.90606C28.2532 6.08346 27.7777 5.3327 27.1673 4.69924C26.5695 4.06747 25.8493 3.56413 25.0505 3.21992C24.2518 2.87572 23.3912 2.69787 22.5215 2.69724C21.6449 2.69524 20.7768 2.86926 19.9687 3.20896C19.1606 3.54867 18.429 4.04715 17.8171 4.67486C17.1037 3.10441 15.874 1.8256 14.3327 1.05123C12.7914 0.276856 11.0314 0.053621 9.34555 0.418669C7.65972 0.783717 6.14972 1.71503 5.06682 3.05765C3.98392 4.40026 3.39342 6.07321 3.39358 7.79811C3.39408 8.38743 3.46279 8.97472 3.59833 9.54824C2.34497 10.126 1.32673 11.1148 0.71249 12.3507C0.0982461 13.5865 -0.0751031 14.9953 0.221191 16.3432C0.517485 17.6911 1.26562 18.8973 2.34153 19.7616C3.41744 20.626 4.75647 21.0966 6.13658 21.0955H10.1373ZM30.367 10.3607C30.2549 10.2771 30.1148 10.24 29.976 10.2571C29.8372 10.2742 29.7104 10.3443 29.622 10.4526C29.5336 10.5609 29.4904 10.6992 29.5014 10.8386C29.5124 10.978 29.5768 11.1078 29.6812 11.2009C30.4728 11.8504 31.0443 12.7285 31.3178 13.7153C31.5912 14.702 31.5532 15.7491 31.2089 16.7134C30.8646 17.6777 30.2308 18.5121 29.3942 19.1024C28.5576 19.6928 27.5591 20.0103 26.5352 20.0116H12.3587C12.2201 20.0192 12.0897 20.0796 11.9943 20.1804C11.8988 20.2812 11.8456 20.4147 11.8456 20.5536C11.8456 20.6924 11.8988 20.8259 11.9943 20.9267C12.0897 21.0275 12.2201 21.0879 12.3587 21.0955H26.5352C27.783 21.0944 28.9999 20.7078 30.0194 19.9885C31.039 19.2692 31.8113 18.2524 32.2308 17.0773C32.6502 15.9021 32.6963 14.6261 32.3627 13.4238C32.029 12.2215 31.332 11.1517 30.367 10.3607Z" fill="black"/>
</svg>
