<svg width="28" height="28" viewBox="0 0 28 28" fill="none" xmlns="http://www.w3.org/2000/svg">
<g clip-path="url(#clip0_4503_13534)">
<path d="M10.1738 12.1288H17.8274M10.1738 15.1347H17.8274M13.4534 12.1288C14.1824 12.3105 15.6404 12.9496 15.6404 14.8611C15.6404 18.1406 11.2664 18.1406 11.2664 18.1406C11.2664 18.1406 13.4534 20.054 16.7329 20.8748" stroke="black" stroke-width="2" stroke-linecap="round" stroke-linejoin="round"/>
<path d="M14 26.184C20.5591 26.184 25.2442 23.8639 25.2442 18.6991C25.2442 13.0864 22.4331 9.34397 16.8111 6.53667L19.0224 3.6919C19.135 3.5053 19.1962 3.29218 19.1996 3.07425C19.2031 2.85632 19.1487 2.64137 19.0421 2.4513C18.9354 2.26122 18.7803 2.10281 18.5925 1.9922C18.4047 1.88159 18.1909 1.82273 17.9729 1.82162H10.0271C9.80959 1.82389 9.59654 1.88346 9.40942 1.99434C9.2223 2.10522 9.06772 2.26348 8.96129 2.45316C8.85485 2.64284 8.80032 2.85724 8.80319 3.07472C8.80606 3.29221 8.86623 3.50509 8.97763 3.6919L11.189 6.55541C5.5669 9.38145 2.75586 13.1239 2.75586 18.7366C2.75586 23.8639 7.44092 26.184 14 26.184Z" stroke="black" stroke-width="2" stroke-linecap="round" stroke-linejoin="round"/>
</g>
<defs>
<clipPath id="clip0_4503_13534">
<rect width="26.2364" height="26.2364" fill="white" transform="translate(0.880859 0.884613)"/>
</clipPath>
</defs>
</svg>
