<svg width="19" height="28" viewBox="0 0 19 28" fill="none" xmlns="http://www.w3.org/2000/svg">
<path d="M15.9115 0.884613H3.42056C2.59217 0.934373 1.81687 1.30898 1.26307 1.92705C0.709277 2.54513 0.421718 3.35675 0.462862 4.18562V23.82C0.421718 24.6488 0.709277 25.4605 1.26307 26.0785C1.81687 26.6966 2.59217 27.0712 3.42056 27.121H15.9115C16.7399 27.0712 17.5152 26.6966 18.069 26.0785C18.6228 25.4605 18.9104 24.6488 18.8692 23.82V4.18562C18.9104 3.35675 18.6228 2.54513 18.069 1.92705C17.5152 1.30898 16.7399 0.934373 15.9115 0.884613ZM17.5488 23.82C17.5895 24.2987 17.4408 24.7743 17.1347 25.1446C16.8285 25.5149 16.3894 25.7505 15.9115 25.8006H3.42056C2.94272 25.7505 2.50358 25.5149 2.19745 25.1446C1.89133 24.7743 1.74262 24.2987 1.78326 23.82V4.18562C1.74262 3.70687 1.89133 3.23128 2.19745 2.86096C2.50358 2.49065 2.94272 2.25514 3.42056 2.20501H5.44077V2.87842C5.44077 3.22861 5.57989 3.56446 5.82751 3.81208C6.07513 4.05971 6.41098 4.19882 6.76117 4.19882H12.5709C12.9211 4.19882 13.257 4.05971 13.5046 3.81208C13.7522 3.56446 13.8913 3.22861 13.8913 2.87842V2.20501H15.9115C16.3894 2.25514 16.8285 2.49065 17.1347 2.86096C17.4408 3.23128 17.5895 3.70687 17.5488 4.18562V23.82Z" fill="black"/>
</svg>
