<svg width="28" height="28" viewBox="0 0 28 28" fill="none" xmlns="http://www.w3.org/2000/svg">
<path d="M9.04 19L19.04 9M1 22C0.999999 22.5297 1.21016 23.0378 1.58437 23.4128C1.95858 23.7878 2.46626 23.9989 2.996 24H25.004C25.5337 23.9989 26.0414 23.7878 26.4156 23.4128C26.7898 23.0378 27 22.5297 27 22V17.932C26.1365 17.6978 25.374 17.1859 24.8304 16.4752C24.2868 15.7646 23.9922 14.8947 23.9922 14C23.9922 13.1053 24.2868 12.2354 24.8304 11.5248C25.374 10.8141 26.1365 10.3022 27 10.068V6C27 5.47026 26.7898 4.96216 26.4156 4.5872C26.0414 4.21224 25.5337 4.00106 25.004 4H2.996C2.46626 4.00106 1.95858 4.21224 1.58437 4.5872C1.21016 4.96216 0.999999 5.47026 1 6V10.06C1.87044 10.2889 2.64056 10.7997 3.19012 11.5125C3.73967 12.2253 4.03772 13.1 4.03772 14C4.03772 14.9 3.73967 15.7747 3.19012 16.4875C2.64056 17.2003 1.87044 17.7111 1 17.94V22Z" stroke="black" stroke-width="1.5" stroke-linecap="round" stroke-linejoin="round"/>
<path d="M10.0391 11C10.3043 11 10.5586 10.8946 10.7462 10.7071C10.9337 10.5196 11.0391 10.2652 11.0391 10C11.0391 9.73478 10.9337 9.48043 10.7462 9.29289C10.5586 9.10536 10.3043 9 10.0391 9C9.77385 9 9.51949 9.10536 9.33196 9.29289C9.14442 9.48043 9.03906 9.73478 9.03906 10C9.03906 10.2652 9.14442 10.5196 9.33196 10.7071C9.51949 10.8946 9.77385 11 10.0391 11ZM18.0391 19C18.3043 19 18.5586 18.8946 18.7462 18.7071C18.9337 18.5196 19.0391 18.2652 19.0391 18C19.0391 17.7348 18.9337 17.4804 18.7462 17.2929C18.5586 17.1054 18.3043 17 18.0391 17C17.7738 17 17.5195 17.1054 17.332 17.2929C17.1444 17.4804 17.0391 17.7348 17.0391 18C17.0391 18.2652 17.1444 18.5196 17.332 18.7071C17.5195 18.8946 17.7738 19 18.0391 19Z" stroke="black" stroke-width="1.5" stroke-linecap="round" stroke-linejoin="round"/>
</svg>
