<svg width="28" height="28" viewBox="0 0 28 28" fill="none" xmlns="http://www.w3.org/2000/svg">
<path d="M25.0827 13.9998H22.6198M22.6198 13.9998C22.6198 16.2863 21.7121 18.4785 20.0954 20.0953C18.4786 21.712 16.2858 22.6203 13.9993 22.6203M22.6198 13.9998C22.6198 11.7134 21.7121 9.51999 20.0954 7.90323C18.4786 6.28646 16.2858 5.37934 13.9993 5.37934M13.9993 2.9165V5.37934M13.9993 5.37934C11.713 5.37934 9.52039 6.2864 7.90373 7.90306C6.28708 9.51971 5.37885 11.7124 5.37885 13.9987C5.37885 16.285 6.28708 18.4776 7.90373 20.0943C9.52039 21.7109 11.713 22.6203 13.9993 22.6203M2.91602 13.9998H5.37885M13.9993 25.0832V22.6203" stroke="black" stroke-width="1.5" stroke-miterlimit="10" stroke-linecap="round"/>
<path d="M13.9999 18.9256C15.3063 18.9256 16.5591 18.4066 17.4829 17.4829C18.4066 16.5591 18.9256 15.3063 18.9256 13.9999C18.9256 12.6935 18.4066 11.4407 17.4829 10.5169C16.5591 9.59317 15.3063 9.07422 13.9999 9.07422C12.6935 9.07422 11.4407 9.59317 10.5169 10.5169C9.59317 11.4407 9.07422 12.6935 9.07422 13.9999C9.07422 15.3063 9.59317 16.5591 10.5169 17.4829C11.4407 18.4066 12.6935 18.9256 13.9999 18.9256Z" stroke="black" stroke-width="1.5" stroke-miterlimit="10" stroke-linecap="round"/>
</svg>
