<svg width="28" height="28" viewBox="0 0 28 28" fill="none" xmlns="http://www.w3.org/2000/svg">
<path d="M13.417 3.40039C16.383 3.40039 19.2279 4.5785 21.3252 6.67578C23.4223 8.77297 24.6005 11.6172 24.6006 14.583C24.6006 17.549 23.4225 20.3939 21.3252 22.4912C19.2279 24.5885 16.383 25.7666 13.417 25.7666C10.4512 25.7665 7.60695 24.5883 5.50977 22.4912C3.41248 20.3939 2.23438 17.549 2.23438 14.583C2.23446 11.6171 3.41256 8.77299 5.50977 6.67578C7.60697 4.57858 10.4511 3.40048 13.417 3.40039ZM13.417 4.7666C10.8136 4.76669 8.31649 5.8007 6.47559 7.6416C4.63468 9.48251 3.60067 11.9796 3.60059 14.583C3.60059 17.1864 4.63481 19.6835 6.47559 21.5244C8.31649 23.3653 10.8136 24.4003 13.417 24.4004C14.7061 24.4004 15.9828 24.1457 17.1738 23.6523C18.3648 23.159 19.4468 22.436 20.3584 21.5244C21.27 20.6129 21.993 19.5309 22.4863 18.3398C22.9797 17.1488 23.2344 15.8722 23.2344 14.583C23.2343 11.9796 22.1993 9.48251 20.3584 7.6416C18.5174 5.80082 16.0204 4.7666 13.417 4.7666ZM14.1006 13.9004V19.9336H12.7344V13.9004H14.1006ZM14.1006 9.2334V11.7666H12.7344V9.2334H14.1006Z" fill="black" stroke="black" stroke-width="0.2"/>
</svg>
