<svg width="28" height="28" viewBox="0 0 28 28" fill="none" xmlns="http://www.w3.org/2000/svg">
<path d="M14 15.167C15.933 15.167 17.5 13.6 17.5 11.667C17.5 9.734 15.933 8.16699 14 8.16699C12.067 8.16699 10.5 9.734 10.5 11.667C10.5 13.6 12.067 15.167 14 15.167Z" stroke="black" stroke-width="1.5" stroke-linecap="round" stroke-linejoin="round"/>
<path d="M13.9993 2.3335C11.524 2.3335 9.15003 3.31683 7.39969 5.06717C5.64935 6.81751 4.66602 9.19148 4.66602 11.6668C4.66602 13.8742 5.13502 15.3185 6.41602 16.9168L13.9993 25.6668L21.5827 16.9168C22.8637 15.3185 23.3327 13.8742 23.3327 11.6668C23.3327 9.19148 22.3494 6.81751 20.599 5.06717C18.8487 3.31683 16.4747 2.3335 13.9993 2.3335Z" stroke="black" stroke-width="1.5" stroke-linecap="round" stroke-linejoin="round"/>
</svg>
