<svg version="1.1" id="Layer_1" xmlns="http://www.w3.org/2000/svg" xmlns:xlink="http://www.w3.org/1999/xlink" x="0px" y="0px"
	 width="100%" viewBox="0 0 3132 3132" enable-background="new 0 0 3132 3132" xml:space="preserve">
<path fill="#FFFFFF" opacity="1.000000" stroke="none" 
	d="
M1.999987,3122.000000 
	C2.000000,2082.065918 2.000000,1042.131836 2.000000,2.098841 
	C1045.867920,2.098841 2089.735840,2.098841 3133.801758,2.098841 
	C3133.801758,1045.801758 3133.801758,2089.603760 3133.801758,3134.000000 
	C2091.930176,3134.000000 1049.860352,3134.000000 7.056599,3133.157227 
	C6.055136,3129.361572 6.001169,3126.361084 5.368289,3123.488525 
	C5.212104,3122.779541 3.173331,3122.485107 1.999987,3122.000000 
M1102.034668,1881.951782 
	C1102.034668,1881.951782 1101.906128,1881.957520 1102.526367,1883.078613 
	C1104.292358,1884.262207 1106.058228,1885.445801 1108.425659,1887.778442 
	C1110.681152,1889.750732 1113.019409,1891.636719 1115.179932,1893.708130 
	C1145.983276,1923.240234 1182.219971,1943.833618 1221.917847,1958.786743 
	C1258.507690,1972.569336 1296.342041,1981.523682 1334.804443,1988.054810 
	C1343.700562,1989.565308 1352.633301,1990.860107 1361.549316,1992.254150 
	C1359.873779,1989.085205 1357.689697,1987.701294 1355.571045,1986.223755 
	C1331.540649,1969.465820 1306.999756,1953.385376 1283.604980,1935.781860 
	C1234.230469,1898.629883 1204.741211,1849.449097 1195.393555,1787.951904 
	C1187.460205,1735.758179 1185.614014,1683.236206 1184.264893,1630.632080 
	C1184.226318,1629.131958 1184.774658,1627.616699 1185.001343,1626.372314 
	C1206.352417,1629.355713 1227.010254,1632.597656 1247.762085,1635.041626 
	C1268.309326,1637.461182 1288.760986,1641.126831 1310.774780,1642.139038 
	C1309.434570,1639.543701 1308.970093,1638.362183 1308.274048,1637.337891 
	C1290.301880,1610.891479 1272.494507,1584.330200 1254.258423,1558.066650 
	C1237.331787,1533.688843 1219.293457,1510.162354 1197.997437,1489.336426 
	C1185.316162,1476.935059 1171.586670,1465.906738 1155.842163,1457.573608 
	C1129.863770,1443.823853 1102.775513,1440.257690 1074.795776,1450.160034 
	C1061.054443,1455.023438 1047.836426,1461.364746 1034.376587,1467.025391 
	C1032.950928,1467.624756 1031.491943,1468.144653 1029.845093,1468.780029 
	C1029.191895,1467.317627 1028.577393,1466.492310 1028.460815,1465.601807 
	C1022.729614,1421.825928 1011.249817,1379.431641 996.144897,1338.109741 
	C985.531921,1309.076416 972.991150,1280.747681 962.915955,1251.546387 
	C996.204590,1244.829468 1029.778931,1243.745117 1063.280640,1248.639038 
	C1138.707397,1259.657959 1201.352417,1294.684937 1249.555664,1353.499878 
	C1311.054932,1428.538086 1334.426880,1515.371338 1322.254150,1611.241943 
	C1312.132080,1690.961670 1274.371338,1755.733276 1211.419678,1805.757446 
	C1209.394165,1807.367065 1207.498657,1809.140259 1204.873779,1811.417358 
	C1228.544922,1825.940430 1252.024414,1839.089722 1279.134033,1843.641479 
	C1299.894531,1847.127197 1318.136963,1841.484253 1332.845703,1826.048462 
	C1338.123779,1820.509644 1343.339844,1814.833252 1347.925415,1808.725098 
	C1415.314697,1718.962891 1442.049316,1618.279663 1428.393188,1506.923340 
	C1420.265625,1440.647583 1397.338135,1379.720093 1360.542725,1324.115967 
	C1314.819946,1255.021240 1254.878174,1202.696533 1177.122070,1172.454468 
	C1106.010254,1144.796387 1032.423096,1138.130005 957.161743,1149.599243 
	C867.339050,1163.287598 789.840820,1202.144287 725.598694,1266.221924 
	C647.539673,1344.081055 606.501404,1439.186401 598.531250,1548.690186 
	C593.325317,1620.215698 606.986267,1688.323975 642.085815,1750.929321 
	C714.510376,1880.109009 826.616943,1951.072998 971.992310,1971.825684 
	C984.605652,1973.626343 997.242798,1974.248901 1009.607971,1970.484497 
	C1047.520996,1958.942505 1069.058472,1931.935547 1079.936401,1895.160645 
	C1082.529175,1886.395508 1082.985474,1877.448975 1079.477173,1868.653198 
	C1079.189697,1867.932495 1079.736694,1866.878784 1081.267212,1866.091553 
	C1087.500610,1870.767944 1093.734009,1875.444336 1100.001709,1880.002319 
	C1100.001709,1880.002319 1099.878784,1880.009766 1100.148926,1881.082275 
	C1100.784912,1881.414429 1101.421021,1881.746582 1102.034668,1881.951782 
M1785.236084,1349.758667 
	C1768.223999,1320.188232 1742.969727,1301.339233 1710.133423,1292.752930 
	C1688.592651,1287.120239 1666.686279,1286.296021 1644.688110,1289.837891 
	C1596.080566,1297.663940 1562.173706,1324.131348 1545.514404,1370.656982 
	C1530.997070,1411.200562 1531.221069,1452.547485 1544.777466,1493.284912 
	C1557.066528,1530.213989 1581.783081,1556.049072 1618.857544,1569.100708 
	C1639.878784,1576.500977 1661.674438,1579.120972 1683.841675,1576.633423 
	C1695.647949,1575.308594 1707.322632,1572.809204 1719.664673,1570.737915 
	C1724.498901,1577.804565 1729.849976,1585.033325 1734.525757,1592.675293 
	C1737.521484,1597.571289 1741.228638,1599.137207 1746.818604,1598.991089 
	C1760.475098,1598.634399 1774.147217,1598.905884 1787.812744,1598.842407 
	C1789.957764,1598.832397 1792.100708,1598.391968 1795.197876,1598.043335 
	C1783.259521,1579.978516 1771.935181,1562.842896 1760.468140,1545.491333 
	C1780.340698,1527.971069 1792.852783,1506.920776 1798.488647,1482.307983 
	C1801.739136,1468.112183 1803.826538,1453.450317 1804.509766,1438.907837 
	C1805.954346,1408.161011 1800.870117,1378.480713 1785.236084,1349.758667 
M2418.389893,1525.102539 
	C2418.391602,1519.769409 2418.159668,1514.421387 2418.497314,1509.109619 
	C2418.655762,1506.616333 2419.300537,1503.706665 2420.790527,1501.833862 
	C2424.429688,1497.260742 2428.690186,1493.182129 2433.192383,1488.379883 
	C2436.077881,1492.280884 2438.291260,1495.155029 2440.380615,1498.116577 
	C2456.325195,1520.716553 2472.361816,1543.253784 2488.077148,1566.012207 
	C2491.246338,1570.601685 2494.607666,1572.595337 2500.295654,1572.464111 
	C2516.620117,1572.087646 2532.958984,1572.347290 2549.292236,1572.310547 
	C2551.437988,1572.305664 2553.583252,1572.028931 2557.480957,1571.755005 
	C2529.327393,1531.562500 2502.131592,1492.737793 2474.924805,1453.896606 
	C2500.740967,1424.761597 2525.710693,1396.585571 2550.661865,1368.392944 
	C2551.079102,1367.921387 2551.311768,1367.264282 2551.542969,1366.660278 
	C2551.643066,1366.398804 2551.580322,1366.031494 2551.483154,1365.749390 
	C2551.377441,1365.442261 2551.146484,1365.178223 2550.687988,1364.442505 
	C2533.678223,1364.442505 2516.372314,1364.783081 2499.091553,1364.272583 
	C2492.326172,1364.072632 2488.065430,1366.467651 2483.899170,1371.483154 
	C2464.519287,1394.813354 2444.833008,1417.888916 2425.207031,1441.013916 
	C2423.652588,1442.845459 2421.722412,1444.357788 2418.389648,1447.510742 
	C2418.389648,1432.796387 2418.389404,1420.256226 2418.389404,1407.715942 
	C2418.389404,1395.049316 2418.389404,1382.382812 2418.389404,1369.716187 
	C2418.389404,1356.716309 2418.411621,1343.716309 2418.383301,1330.716431 
	C2418.355957,1318.208862 2418.514404,1305.691528 2418.277832,1293.408447 
	C2401.646240,1291.592041 2369.382324,1292.132690 2362.672607,1294.120117 
	C2362.672607,1386.665771 2362.672607,1479.168701 2362.672607,1571.634033 
	C2381.505615,1571.634033 2399.646973,1571.634033 2418.389893,1571.634033 
	C2418.389893,1556.320557 2418.389893,1541.697144 2418.389893,1525.102539 
M1970.458496,1454.999512 
	C1970.414062,1465.991577 1970.718750,1476.998413 1970.257446,1487.973022 
	C1969.050537,1516.684326 1948.788452,1532.997437 1920.568237,1528.325073 
	C1906.734985,1526.034668 1897.341553,1518.288818 1893.788086,1504.759766 
	C1891.954590,1497.780029 1891.308105,1490.319702 1891.257690,1483.068848 
	C1891.010254,1447.427979 1891.142578,1411.784424 1891.140869,1376.141846 
	C1891.140625,1372.570801 1891.140747,1368.999634 1891.140747,1365.629028 
	C1878.693237,1363.628418 1841.658447,1364.055176 1834.276611,1366.227173 
	C1834.276611,1372.382812 1834.275391,1378.693237 1834.276611,1385.003662 
	C1834.283569,1423.644287 1833.976196,1462.288086 1834.385742,1500.924438 
	C1834.811646,1541.114014 1856.806152,1568.697876 1893.568848,1574.973267 
	C1902.945801,1576.573975 1912.938965,1576.577148 1922.387207,1575.329956 
	C1942.004639,1572.739868 1957.067993,1562.474854 1966.844849,1544.958008 
	C1968.060059,1542.780762 1969.420044,1540.684326 1970.712891,1538.550537 
	C1971.327148,1538.657471 1971.941406,1538.764526 1972.555664,1538.871460 
	C1972.555664,1549.846802 1972.555664,1560.822021 1972.555664,1571.583618 
	C1989.305298,1573.395996 2020.185669,1572.834351 2026.855103,1570.811157 
	C2026.855103,1502.286133 2026.855103,1433.817627 2026.855103,1365.444092 
	C2013.735474,1363.555176 1977.737427,1364.065674 1970.458740,1366.297363 
	C1970.458740,1395.085449 1970.458740,1424.042603 1970.458496,1454.999512 
M1670.892822,1822.436768 
	C1674.100830,1830.100464 1677.308838,1837.764160 1680.553711,1845.516113 
	C1688.852295,1845.516113 1696.761597,1845.516113 1705.048584,1845.516113 
	C1715.323853,1820.682739 1725.427856,1796.067627 1735.689087,1771.518311 
	C1745.961182,1746.942627 1755.397949,1721.993774 1766.597900,1697.826050 
	C1767.420776,1698.022461 1768.243530,1698.218872 1769.066406,1698.415283 
	C1769.066406,1747.869385 1769.066406,1797.323486 1769.066406,1847.006104 
	C1779.588257,1847.006104 1789.002197,1847.006104 1798.307983,1847.006104 
	C1800.385986,1831.665771 1799.646973,1643.845215 1797.533936,1636.898071 
	C1785.651489,1636.898071 1773.725098,1636.898071 1761.061523,1636.898071 
	C1749.860474,1664.349365 1738.695679,1691.734619 1727.512939,1719.112305 
	C1716.245117,1746.698608 1704.959229,1774.277466 1692.776855,1804.071289 
	C1680.646851,1774.481812 1669.427002,1747.137329 1658.226807,1719.784790 
	C1646.895996,1692.112915 1635.584473,1664.433350 1624.182251,1636.556030 
	C1611.184204,1636.548950 1599.036377,1636.333740 1586.822998,1636.686523 
	C1586.822998,1707.560547 1586.822998,1777.071777 1586.822998,1846.962891 
	C1596.771729,1846.962891 1606.180054,1846.962891 1616.396973,1846.962891 
	C1616.396973,1796.450317 1616.396973,1746.685913 1616.396973,1696.658325 
	C1617.790283,1697.113892 1618.721313,1697.146851 1618.871094,1697.505615 
	C1636.039429,1738.667847 1653.149536,1779.854248 1670.892822,1822.436768 
M2237.907227,1576.649048 
	C2259.250488,1577.769897 2279.845215,1574.876587 2298.661865,1564.132812 
	C2324.412109,1549.430176 2337.143311,1526.668823 2339.519775,1496.787598 
	C2321.713867,1496.787598 2304.557861,1496.787598 2287.218506,1496.787598 
	C2286.055420,1500.471802 2285.127441,1503.984863 2283.846924,1507.364136 
	C2279.004150,1520.144287 2269.894775,1528.247803 2256.592041,1531.380859 
	C2236.190674,1536.185913 2217.473145,1527.462646 2208.388184,1508.455688 
	C2200.562256,1492.082275 2199.133545,1474.590454 2200.975342,1456.733032 
	C2202.217285,1444.693970 2204.838867,1433.077759 2211.746338,1422.843018 
	C2221.026367,1409.093018 2234.197021,1403.425049 2250.418701,1405.006592 
	C2267.376709,1406.659912 2278.496826,1416.070801 2284.217529,1431.991089 
	C2285.321289,1435.062622 2286.212646,1438.210571 2287.190186,1441.286133 
	C2304.663574,1441.286133 2321.779053,1441.286133 2339.396973,1441.286133 
	C2336.339111,1408.053833 2321.066406,1384.036133 2291.387207,1369.841553 
	C2274.155273,1361.600098 2255.749756,1359.317139 2236.872314,1360.326904 
	C2191.002930,1362.780029 2157.598633,1390.180054 2146.895264,1434.598267 
	C2144.726807,1443.598022 2143.120850,1453.041016 2143.325439,1462.233521 
	C2143.634033,1476.124756 2144.208984,1490.344116 2147.400146,1503.775635 
	C2157.829590,1547.670898 2189.632080,1573.123047 2237.907227,1576.649048 
M2029.140991,1653.182129 
	C2029.140991,1647.944824 2029.140991,1642.707520 2029.140991,1637.131104 
	C2018.128784,1637.131104 2008.336792,1637.131104 1998.379272,1637.131104 
	C1998.379272,1707.476074 1998.379272,1777.196045 1998.379272,1847.002686 
	C2008.544678,1847.002686 2018.001099,1847.002686 2028.342163,1847.002686 
	C2028.342163,1839.193726 2028.342163,1832.082153 2028.342163,1822.947144 
	C2031.556885,1826.799438 2033.368652,1829.004517 2035.216797,1831.178833 
	C2042.319702,1839.536133 2051.116699,1845.241333 2061.744629,1848.061035 
	C2092.268555,1856.159668 2121.279785,1842.160889 2133.899902,1812.934326 
	C2141.894043,1794.421143 2143.351318,1774.964844 2140.949463,1755.138672 
	C2139.329834,1741.768921 2135.390625,1729.181396 2128.083008,1717.704346 
	C2106.098633,1683.177002 2054.113770,1683.489868 2034.089111,1712.706055 
	C2033.253174,1713.925659 2032.096191,1714.925171 2031.088867,1716.027344 
	C2030.439209,1715.848267 2029.789551,1715.669312 2029.139893,1715.490234 
	C2029.139893,1695.372437 2029.139893,1675.254517 2029.140991,1653.182129 
M2335.244873,1815.979004 
	C2324.310059,1806.238037 2320.236084,1794.020752 2321.180420,1778.651245 
	C2357.281006,1778.651245 2392.450439,1778.651245 2428.268555,1778.651245 
	C2429.043213,1766.067993 2428.610352,1754.574585 2425.929443,1743.187500 
	C2418.696533,1712.464355 2397.260742,1694.057007 2365.433350,1691.247192 
	C2334.701172,1688.534180 2307.933350,1703.848389 2296.349121,1731.851318 
	C2285.851074,1757.228516 2285.644043,1783.208496 2295.511719,1808.862671 
	C2303.031738,1828.414185 2317.283203,1841.401489 2337.427979,1847.259766 
	C2352.773926,1851.722534 2368.415283,1851.667358 2383.825928,1847.362915 
	C2397.316895,1843.594604 2408.966797,1836.643799 2417.330322,1825.113647 
	C2422.011230,1818.660156 2426.123535,1811.822998 2425.914795,1802.765381 
	C2416.122070,1802.765381 2406.642822,1802.765381 2397.439697,1802.765381 
	C2389.642090,1816.425293 2382.046387,1822.351685 2369.720703,1824.015869 
	C2357.830078,1825.621460 2346.414307,1824.443726 2335.244873,1815.979004 
M1827.817383,1756.614868 
	C1827.907349,1766.903687 1826.854492,1777.356445 1828.303345,1787.450195 
	C1832.512939,1816.776978 1847.191650,1838.562866 1876.814331,1847.211670 
	C1885.267456,1849.679565 1894.562378,1850.185303 1903.451782,1850.071899 
	C1934.796387,1849.672119 1958.698364,1831.254272 1967.990967,1801.357056 
	C1972.424316,1787.093384 1973.062866,1772.488403 1971.620850,1757.834961 
	C1967.735229,1718.348511 1942.052979,1693.325684 1903.579468,1691.055420 
	C1866.965454,1688.894897 1838.711792,1709.593872 1829.895264,1745.094360 
	C1829.095215,1748.316040 1828.618286,1751.617920 1827.817383,1756.614868 
M2062.451172,1417.000000 
	C2062.451172,1441.513916 2062.451172,1466.027832 2062.451172,1490.767334 
	C2082.009033,1490.767334 2100.376221,1490.767334 2118.657471,1490.767334 
	C2120.523438,1473.651978 2119.790283,1301.916260 2117.905762,1294.889404 
	C2099.753906,1294.889404 2081.603271,1294.889404 2062.451416,1294.889404 
	C2062.451416,1335.317017 2062.451416,1375.158569 2062.451172,1417.000000 
M2231.899902,1693.000000 
	C2232.043213,1743.903320 2232.186279,1794.806519 2232.351807,1845.709717 
	C2232.352783,1845.976562 2232.649414,1846.265869 2232.856445,1846.502075 
	C2233.074463,1846.749878 2233.350342,1846.946533 2234.151611,1847.646606 
	C2243.393799,1847.498169 2253.205078,1848.322510 2262.789551,1847.190063 
	C2264.923584,1825.692505 2263.979492,1644.010254 2261.898193,1637.332031 
	C2252.006104,1637.332031 2242.216309,1637.332031 2231.899902,1637.332031 
	C2231.899902,1655.766968 2231.899902,1673.383545 2231.899902,1693.000000 
M2198.357178,1803.000000 
	C2198.325928,1766.835815 2198.427490,1730.669922 2198.289795,1694.328613 
	C2187.274414,1694.328613 2177.713379,1694.328613 2168.233643,1694.328613 
	C2166.301514,1705.012939 2166.679932,1839.861938 2168.607666,1847.181885 
	C2178.140137,1847.181885 2187.689453,1847.181885 2198.357422,1847.181885 
	C2198.357422,1832.796997 2198.357422,1818.898438 2198.357178,1803.000000 
M2082.976562,1515.528442 
	C2080.812500,1516.351196 2078.535400,1516.959106 2076.502686,1518.031006 
	C2061.245117,1526.078003 2056.077881,1544.423340 2064.903320,1558.930664 
	C2073.588623,1573.208008 2093.429199,1577.544312 2107.812988,1568.308838 
	C2122.119141,1559.123413 2125.813232,1540.020996 2115.449463,1526.502319 
	C2107.694092,1516.385620 2097.111084,1512.766113 2082.976562,1515.528442 
M2166.313965,1645.758057 
	C2165.719238,1647.999023 2164.738770,1650.216187 2164.598389,1652.485229 
	C2164.072510,1660.994873 2169.944824,1668.574951 2178.484375,1670.800659 
	C2186.345215,1672.849487 2195.019531,1669.144409 2198.945312,1662.061768 
	C2202.918945,1654.892822 2201.453613,1645.736572 2195.437500,1640.144409 
	C2187.097168,1632.391968 2175.565674,1634.128296 2166.313965,1645.758057 
z"/>
<path fill="#BFBFBF" opacity="1.000000" stroke="none" 
	d="
M1.999987,3122.999023 
	C3.173331,3122.485107 5.212104,3122.779541 5.368289,3123.488525 
	C6.001169,3126.361084 6.055136,3129.361572 6.161335,3133.157227 
	C4.755360,3134.000000 3.510720,3134.000000 2.000000,3134.000000 
	C2.000000,3130.667480 2.000000,3127.332520 1.999987,3122.999023 
z"/>
<path fill="#1A69B3" opacity="1.000000" stroke="none" 
	d="
M1079.895996,1865.979858 
	C1079.736694,1866.878784 1079.189697,1867.932495 1079.477173,1868.653198 
	C1082.985474,1877.448975 1082.529175,1886.395508 1079.936401,1895.160645 
	C1069.058472,1931.935547 1047.520996,1958.942505 1009.607971,1970.484497 
	C997.242798,1974.248901 984.605652,1973.626343 971.992310,1971.825684 
	C826.616943,1951.072998 714.510376,1880.109009 642.085815,1750.929321 
	C606.986267,1688.323975 593.325317,1620.215698 598.531250,1548.690186 
	C606.501404,1439.186401 647.539673,1344.081055 725.598694,1266.221924 
	C789.840820,1202.144287 867.339050,1163.287598 957.161743,1149.599243 
	C1032.423096,1138.130005 1106.010254,1144.796387 1177.122070,1172.454468 
	C1254.878174,1202.696533 1314.819946,1255.021240 1360.542725,1324.115967 
	C1397.338135,1379.720093 1420.265625,1440.647583 1428.393188,1506.923340 
	C1442.049316,1618.279663 1415.314697,1718.962891 1347.925415,1808.725098 
	C1343.339844,1814.833252 1338.123779,1820.509644 1332.845703,1826.048462 
	C1318.136963,1841.484253 1299.894531,1847.127197 1279.134033,1843.641479 
	C1252.024414,1839.089722 1228.544922,1825.940430 1204.873779,1811.417358 
	C1207.498657,1809.140259 1209.394165,1807.367065 1211.419678,1805.757446 
	C1274.371338,1755.733276 1312.132080,1690.961670 1322.254150,1611.241943 
	C1334.426880,1515.371338 1311.054932,1428.538086 1249.555664,1353.499878 
	C1201.352417,1294.684937 1138.707397,1259.657959 1063.280640,1248.639038 
	C1029.778931,1243.745117 996.204590,1244.829468 961.339783,1251.759766 
	C909.687195,1261.373779 864.820679,1282.064941 824.619385,1314.291260 
	C813.930908,1324.234741 803.800598,1333.963135 793.109985,1344.051514 
	C769.950989,1368.300903 751.860413,1395.275757 737.950439,1425.019043 
	C729.215210,1443.697388 721.455688,1462.773315 717.189697,1483.583252 
	C716.771240,1485.056885 716.707031,1486.117920 716.398071,1487.629883 
	C715.841187,1489.329834 715.529053,1490.578979 714.891235,1492.747070 
	C707.552673,1526.373047 704.528381,1559.289551 707.484192,1592.786377 
	C711.262695,1635.605835 723.028015,1675.961060 745.573853,1712.459351 
	C805.629456,1809.680054 895.642273,1856.215088 1007.496155,1864.134644 
	C1029.370361,1865.683472 1051.422363,1864.739136 1073.392700,1864.876831 
	C1074.968384,1864.886719 1076.547607,1864.337158 1078.039551,1864.052002 
	C1077.953979,1864.056519 1077.922241,1863.888062 1077.747803,1864.656494 
	C1078.424438,1865.633423 1079.275513,1865.841919 1080.055908,1866.075439 
	C1079.985229,1866.100586 1079.895996,1865.979858 1079.895996,1865.979858 
z"/>
<path fill="#F26922" opacity="1.000000" stroke="none" 
	d="
M825.177612,1314.076050 
	C864.820679,1282.064941 909.687195,1261.373779 960.537415,1252.038818 
	C972.991150,1280.747681 985.531921,1309.076416 996.144897,1338.109741 
	C1011.249817,1379.431641 1022.729614,1421.825928 1028.460815,1465.601807 
	C1028.577393,1466.492310 1029.191895,1467.317627 1029.845093,1468.780029 
	C1031.491943,1468.144653 1032.950928,1467.624756 1034.376587,1467.025391 
	C1047.836426,1461.364746 1061.054443,1455.023438 1074.795776,1450.160034 
	C1102.775513,1440.257690 1129.863770,1443.823853 1155.842163,1457.573608 
	C1171.586670,1465.906738 1185.316162,1476.935059 1197.997437,1489.336426 
	C1219.293457,1510.162354 1237.331787,1533.688843 1254.258423,1558.066650 
	C1272.494507,1584.330200 1290.301880,1610.891479 1308.274048,1637.337891 
	C1308.970093,1638.362183 1309.434570,1639.543701 1310.774780,1642.139038 
	C1288.760986,1641.126831 1268.309326,1637.461182 1247.762085,1635.041626 
	C1227.010254,1632.597656 1206.352417,1629.355713 1185.001343,1626.372314 
	C1184.774658,1627.616699 1184.226318,1629.131958 1184.264893,1630.632080 
	C1185.614014,1683.236206 1187.460205,1735.758179 1195.393555,1787.951904 
	C1204.741211,1849.449097 1234.230469,1898.629883 1283.604980,1935.781860 
	C1306.999756,1953.385376 1331.540649,1969.465820 1355.571045,1986.223755 
	C1357.689697,1987.701294 1359.873779,1989.085205 1361.549316,1992.254150 
	C1352.633301,1990.860107 1343.700562,1989.565308 1334.804443,1988.054810 
	C1296.342041,1981.523682 1258.507690,1972.569336 1221.917847,1958.786743 
	C1182.219971,1943.833618 1145.983276,1923.240234 1115.179932,1893.708130 
	C1113.019409,1891.636719 1110.681152,1889.750732 1107.831299,1886.602051 
	C1105.459961,1884.269531 1103.683105,1883.113525 1101.906128,1881.957520 
	C1101.906128,1881.957520 1102.034668,1881.951782 1101.921631,1881.460205 
	C1101.165405,1880.649048 1100.522095,1880.329468 1099.878784,1880.009766 
	C1099.878784,1880.009766 1100.001709,1880.002319 1100.053223,1879.347168 
	C1097.884644,1875.410400 1095.901245,1871.935547 1093.406006,1868.878296 
	C1076.864502,1848.612549 1064.449219,1825.883057 1054.290771,1801.967529 
	C1036.138550,1759.233032 1026.184326,1714.291382 1019.649658,1668.493530 
	C1018.546753,1660.763916 1017.064270,1653.088501 1015.537598,1644.094727 
	C1009.773071,1648.583130 1005.504761,1652.942627 1000.374023,1655.693237 
	C988.439270,1662.091431 976.088928,1667.714233 963.042969,1673.627686 
	C952.654236,1673.984009 943.100952,1675.015869 933.610901,1674.601196 
	C916.466797,1673.852051 901.000000,1666.974121 885.296265,1659.340332 
	C864.433167,1646.913452 845.856018,1632.588013 828.710022,1616.226074 
	C795.205811,1584.254639 766.542236,1548.126953 737.868469,1511.969849 
	C731.113586,1503.452148 723.734741,1495.429443 716.642883,1487.178955 
	C716.707031,1486.117920 716.771240,1485.056885 717.937500,1483.871338 
	C746.837219,1494.842163 774.618103,1505.979858 802.442993,1517.006592 
	C810.455017,1520.181763 818.593872,1523.036987 827.038940,1526.162109 
	C827.403381,1526.285278 828.183472,1526.257690 828.585449,1526.804932 
	C834.675354,1529.738281 840.363220,1532.124268 846.821411,1534.833374 
	C847.347778,1531.736084 847.860779,1530.188110 847.835815,1528.648804 
	C847.255249,1492.805420 846.797485,1456.958496 845.924744,1421.121826 
	C845.340881,1397.146729 840.457825,1373.806519 834.341064,1350.691040 
	C831.122803,1338.529419 828.221863,1326.283813 825.177612,1314.076050 
z"/>
<path fill="#1B6AB4" opacity="1.000000" stroke="none" 
	d="
M1785.588135,1350.400146 
	C1800.870117,1378.480713 1805.954346,1408.161011 1804.509766,1438.907837 
	C1803.826538,1453.450317 1801.739136,1468.112183 1798.488647,1482.307983 
	C1792.852783,1506.920776 1780.340698,1527.971069 1760.468140,1545.491333 
	C1771.935181,1562.842896 1783.259521,1579.978516 1795.197876,1598.043335 
	C1792.100708,1598.391968 1789.957764,1598.832397 1787.812744,1598.842407 
	C1774.147217,1598.905884 1760.475098,1598.634399 1746.818604,1598.991089 
	C1741.228638,1599.137207 1737.521484,1597.571289 1734.525757,1592.675293 
	C1729.849976,1585.033325 1724.498901,1577.804565 1719.664673,1570.737915 
	C1707.322632,1572.809204 1695.647949,1575.308594 1683.841675,1576.633423 
	C1661.674438,1579.120972 1639.878784,1576.500977 1618.857544,1569.100708 
	C1581.783081,1556.049072 1557.066528,1530.213989 1544.777466,1493.284912 
	C1531.221069,1452.547485 1530.997070,1411.200562 1545.514404,1370.656982 
	C1562.173706,1324.131348 1596.080566,1297.663940 1644.688110,1289.837891 
	C1666.686279,1286.296021 1688.592651,1287.120239 1710.133423,1292.752930 
	C1742.969727,1301.339233 1768.223999,1320.188232 1785.588135,1350.400146 
M1625.654297,1513.428345 
	C1644.387695,1528.500244 1665.453125,1531.452759 1689.911743,1526.081787 
	C1685.879883,1519.986572 1682.627197,1515.045776 1679.349976,1510.121216 
	C1676.216187,1505.412109 1672.863037,1500.835938 1669.963379,1495.987671 
	C1667.050415,1491.117310 1662.254272,1487.122803 1661.775269,1480.248413 
	C1677.354492,1480.248413 1692.305786,1480.359253 1707.253418,1480.171875 
	C1711.075562,1480.124146 1713.467651,1481.685059 1715.525269,1484.599854 
	C1718.330811,1488.574219 1721.316284,1492.421631 1725.284302,1497.745239 
	C1729.606812,1489.829224 1733.411987,1483.622925 1736.482910,1477.072510 
	C1742.211914,1464.851807 1744.467896,1451.667480 1745.173950,1438.351074 
	C1746.468262,1413.943115 1742.438477,1390.492310 1729.356445,1369.411743 
	C1701.114014,1323.901245 1636.370117,1324.892090 1609.566162,1371.268555 
	C1605.612915,1378.108521 1602.517578,1385.640991 1600.247192,1393.219116 
	C1594.035156,1413.953857 1593.472656,1435.252808 1596.708008,1456.493530 
	C1599.981689,1477.986694 1607.696777,1497.602173 1625.654297,1513.428345 
z"/>
<path fill="#1B6AB4" opacity="1.000000" stroke="none" 
	d="
M2418.389893,1526.088135 
	C2418.389893,1541.697144 2418.389893,1556.320557 2418.389893,1571.634033 
	C2399.646973,1571.634033 2381.505615,1571.634033 2362.672607,1571.634033 
	C2362.672607,1479.168701 2362.672607,1386.665771 2362.672607,1294.120117 
	C2369.382324,1292.132690 2401.646240,1291.592041 2418.277832,1293.408447 
	C2418.514404,1305.691528 2418.355957,1318.208862 2418.383301,1330.716431 
	C2418.411621,1343.716309 2418.389404,1356.716309 2418.389404,1369.716187 
	C2418.389404,1382.382812 2418.389404,1395.049316 2418.389404,1407.715942 
	C2418.389404,1420.256226 2418.389648,1432.796387 2418.389648,1447.510742 
	C2421.722412,1444.357788 2423.652588,1442.845459 2425.207031,1441.013916 
	C2444.833008,1417.888916 2464.519287,1394.813354 2483.899170,1371.483154 
	C2488.065430,1366.467651 2492.326172,1364.072632 2499.091553,1364.272583 
	C2516.372314,1364.783081 2533.678223,1364.442505 2550.687988,1364.442505 
	C2551.146484,1365.178223 2551.377441,1365.442261 2551.483154,1365.749390 
	C2551.580322,1366.031494 2551.643066,1366.398804 2551.542969,1366.660278 
	C2551.311768,1367.264282 2551.079102,1367.921387 2550.661865,1368.392944 
	C2525.710693,1396.585571 2500.740967,1424.761597 2474.924805,1453.896606 
	C2502.131592,1492.737793 2529.327393,1531.562500 2557.480957,1571.755005 
	C2553.583252,1572.028931 2551.437988,1572.305664 2549.292236,1572.310547 
	C2532.958984,1572.347290 2516.620117,1572.087646 2500.295654,1572.464111 
	C2494.607666,1572.595337 2491.246338,1570.601685 2488.077148,1566.012207 
	C2472.361816,1543.253784 2456.325195,1520.716553 2440.380615,1498.116577 
	C2438.291260,1495.155029 2436.077881,1492.280884 2433.192383,1488.379883 
	C2428.690186,1493.182129 2424.429688,1497.260742 2420.790527,1501.833862 
	C2419.300537,1503.706665 2418.655762,1506.616333 2418.497314,1509.109619 
	C2418.159668,1514.421387 2418.391602,1519.769409 2418.389893,1526.088135 
z"/>
<path fill="#1B6AB4" opacity="1.000000" stroke="none" 
	d="
M1970.458618,1453.999634 
	C1970.458740,1424.042603 1970.458740,1395.085449 1970.458740,1366.297363 
	C1977.737427,1364.065674 2013.735474,1363.555176 2026.855103,1365.444092 
	C2026.855103,1433.817627 2026.855103,1502.286133 2026.855103,1570.811157 
	C2020.185669,1572.834351 1989.305298,1573.395996 1972.555664,1571.583618 
	C1972.555664,1560.822021 1972.555664,1549.846802 1972.555664,1538.871460 
	C1971.941406,1538.764526 1971.327148,1538.657471 1970.712891,1538.550537 
	C1969.420044,1540.684326 1968.060059,1542.780762 1966.844849,1544.958008 
	C1957.067993,1562.474854 1942.004639,1572.739868 1922.387207,1575.329956 
	C1912.938965,1576.577148 1902.945801,1576.573975 1893.568848,1574.973267 
	C1856.806152,1568.697876 1834.811646,1541.114014 1834.385742,1500.924438 
	C1833.976196,1462.288086 1834.283569,1423.644287 1834.276611,1385.003662 
	C1834.275391,1378.693237 1834.276611,1372.382812 1834.276611,1366.227173 
	C1841.658447,1364.055176 1878.693237,1363.628418 1891.140747,1365.629028 
	C1891.140747,1368.999634 1891.140625,1372.570801 1891.140869,1376.141846 
	C1891.142578,1411.784424 1891.010254,1447.427979 1891.257690,1483.068848 
	C1891.308105,1490.319702 1891.954590,1497.780029 1893.788086,1504.759766 
	C1897.341553,1518.288818 1906.734985,1526.034668 1920.568237,1528.325073 
	C1948.788452,1532.997437 1969.050537,1516.684326 1970.257446,1487.973022 
	C1970.718750,1476.998413 1970.414062,1465.991577 1970.458618,1453.999634 
z"/>
<path fill="#F26C26" opacity="1.000000" stroke="none" 
	d="
M1670.577881,1821.738037 
	C1653.149536,1779.854248 1636.039429,1738.667847 1618.871094,1697.505615 
	C1618.721313,1697.146851 1617.790283,1697.113892 1616.396973,1696.658325 
	C1616.396973,1746.685913 1616.396973,1796.450317 1616.396973,1846.962891 
	C1606.180054,1846.962891 1596.771729,1846.962891 1586.822998,1846.962891 
	C1586.822998,1777.071777 1586.822998,1707.560547 1586.822998,1636.686523 
	C1599.036377,1636.333740 1611.184204,1636.548950 1624.182251,1636.556030 
	C1635.584473,1664.433350 1646.895996,1692.112915 1658.226807,1719.784790 
	C1669.427002,1747.137329 1680.646851,1774.481812 1692.776855,1804.071289 
	C1704.959229,1774.277466 1716.245117,1746.698608 1727.512939,1719.112305 
	C1738.695679,1691.734619 1749.860474,1664.349365 1761.061523,1636.898071 
	C1773.725098,1636.898071 1785.651489,1636.898071 1797.533936,1636.898071 
	C1799.646973,1643.845215 1800.385986,1831.665771 1798.307983,1847.006104 
	C1789.002197,1847.006104 1779.588257,1847.006104 1769.066406,1847.006104 
	C1769.066406,1797.323486 1769.066406,1747.869385 1769.066406,1698.415283 
	C1768.243530,1698.218872 1767.420776,1698.022461 1766.597900,1697.826050 
	C1755.397949,1721.993774 1745.961182,1746.942627 1735.689087,1771.518311 
	C1725.427856,1796.067627 1715.323853,1820.682739 1705.048584,1845.516113 
	C1696.761597,1845.516113 1688.852295,1845.516113 1680.553711,1845.516113 
	C1677.308838,1837.764160 1674.100830,1830.100464 1670.577881,1821.738037 
z"/>
<path fill="#1B6AB4" opacity="1.000000" stroke="none" 
	d="
M2237.016602,1576.564697 
	C2189.632080,1573.123047 2157.829590,1547.670898 2147.400146,1503.775635 
	C2144.208984,1490.344116 2143.634033,1476.124756 2143.325439,1462.233521 
	C2143.120850,1453.041016 2144.726807,1443.598022 2146.895264,1434.598267 
	C2157.598633,1390.180054 2191.002930,1362.780029 2236.872314,1360.326904 
	C2255.749756,1359.317139 2274.155273,1361.600098 2291.387207,1369.841553 
	C2321.066406,1384.036133 2336.339111,1408.053833 2339.396973,1441.286133 
	C2321.779053,1441.286133 2304.663574,1441.286133 2287.190186,1441.286133 
	C2286.212646,1438.210571 2285.321289,1435.062622 2284.217529,1431.991089 
	C2278.496826,1416.070801 2267.376709,1406.659912 2250.418701,1405.006592 
	C2234.197021,1403.425049 2221.026367,1409.093018 2211.746338,1422.843018 
	C2204.838867,1433.077759 2202.217285,1444.693970 2200.975342,1456.733032 
	C2199.133545,1474.590454 2200.562256,1492.082275 2208.388184,1508.455688 
	C2217.473145,1527.462646 2236.190674,1536.185913 2256.592041,1531.380859 
	C2269.894775,1528.247803 2279.004150,1520.144287 2283.846924,1507.364136 
	C2285.127441,1503.984863 2286.055420,1500.471802 2287.218506,1496.787598 
	C2304.557861,1496.787598 2321.713867,1496.787598 2339.519775,1496.787598 
	C2337.143311,1526.668823 2324.412109,1549.430176 2298.661865,1564.132812 
	C2279.845215,1574.876587 2259.250488,1577.769897 2237.016602,1576.564697 
z"/>
<path fill="#F26C26" opacity="1.000000" stroke="none" 
	d="
M2029.140381,1654.159424 
	C2029.139893,1675.254517 2029.139893,1695.372437 2029.139893,1715.490234 
	C2029.789551,1715.669312 2030.439209,1715.848267 2031.088867,1716.027344 
	C2032.096191,1714.925171 2033.253174,1713.925659 2034.089111,1712.706055 
	C2054.113770,1683.489868 2106.098633,1683.177002 2128.083008,1717.704346 
	C2135.390625,1729.181396 2139.329834,1741.768921 2140.949463,1755.138672 
	C2143.351318,1774.964844 2141.894043,1794.421143 2133.899902,1812.934326 
	C2121.279785,1842.160889 2092.268555,1856.159668 2061.744629,1848.061035 
	C2051.116699,1845.241333 2042.319702,1839.536133 2035.216797,1831.178833 
	C2033.368652,1829.004517 2031.556885,1826.799438 2028.342163,1822.947144 
	C2028.342163,1832.082153 2028.342163,1839.193726 2028.342163,1847.002686 
	C2018.001099,1847.002686 2008.544678,1847.002686 1998.379272,1847.002686 
	C1998.379272,1777.196045 1998.379272,1707.476074 1998.379272,1637.131104 
	C2008.336792,1637.131104 2018.128784,1637.131104 2029.140991,1637.131104 
	C2029.140991,1642.707520 2029.140991,1647.944824 2029.140381,1654.159424 
M2028.818726,1774.409058 
	C2029.211670,1777.709473 2029.079590,1781.183350 2030.101807,1784.275635 
	C2032.582275,1791.780029 2034.429443,1799.857910 2038.609131,1806.371704 
	C2054.276855,1830.788452 2089.386963,1829.071777 2102.300781,1803.078125 
	C2112.967285,1781.607788 2112.210693,1759.368652 2102.055908,1737.704712 
	C2097.944824,1728.933960 2090.868408,1722.987183 2081.527344,1719.923340 
	C2063.825195,1714.116943 2046.079102,1721.232788 2036.507202,1738.079346 
	C2030.406006,1748.817627 2028.992432,1760.637817 2028.818726,1774.409058 
z"/>
<path fill="#F26C26" opacity="1.000000" stroke="none" 
	d="
M2335.835449,1816.434082 
	C2346.414307,1824.443726 2357.830078,1825.621460 2369.720703,1824.015869 
	C2382.046387,1822.351685 2389.642090,1816.425293 2397.439697,1802.765381 
	C2406.642822,1802.765381 2416.122070,1802.765381 2425.914795,1802.765381 
	C2426.123535,1811.822998 2422.011230,1818.660156 2417.330322,1825.113647 
	C2408.966797,1836.643799 2397.316895,1843.594604 2383.825928,1847.362915 
	C2368.415283,1851.667358 2352.773926,1851.722534 2337.427979,1847.259766 
	C2317.283203,1841.401489 2303.031738,1828.414185 2295.511719,1808.862671 
	C2285.644043,1783.208496 2285.851074,1757.228516 2296.349121,1731.851318 
	C2307.933350,1703.848389 2334.701172,1688.534180 2365.433350,1691.247192 
	C2397.260742,1694.057007 2418.696533,1712.464355 2425.929443,1743.187500 
	C2428.610352,1754.574585 2429.043213,1766.067993 2428.268555,1778.651245 
	C2392.450439,1778.651245 2357.281006,1778.651245 2321.180420,1778.651245 
	C2320.236084,1794.020752 2324.310059,1806.238037 2335.835449,1816.434082 
M2376.946777,1756.282593 
	C2383.411377,1756.150879 2389.875977,1756.019165 2396.298828,1755.888306 
	C2395.848877,1731.647461 2379.714844,1715.379395 2358.293945,1716.406738 
	C2337.044434,1717.426025 2320.501221,1735.379639 2322.354004,1756.282715 
	C2339.836670,1756.282715 2357.400879,1756.282715 2376.946777,1756.282593 
z"/>
<path fill="#F26C26" opacity="1.000000" stroke="none" 
	d="
M1827.904297,1755.748779 
	C1828.618286,1751.617920 1829.095215,1748.316040 1829.895264,1745.094360 
	C1838.711792,1709.593872 1866.965454,1688.894897 1903.579468,1691.055420 
	C1942.052979,1693.325684 1967.735229,1718.348511 1971.620850,1757.834961 
	C1973.062866,1772.488403 1972.424316,1787.093384 1967.990967,1801.357056 
	C1958.698364,1831.254272 1934.796387,1849.672119 1903.451782,1850.071899 
	C1894.562378,1850.185303 1885.267456,1849.679565 1876.814331,1847.211670 
	C1847.191650,1838.562866 1832.512939,1816.776978 1828.303345,1787.450195 
	C1826.854492,1777.356445 1827.907349,1766.903687 1827.904297,1755.748779 
M1934.058838,1739.443359 
	C1933.445801,1738.264282 1932.884521,1737.054688 1932.212036,1735.910645 
	C1924.127930,1722.158569 1911.964844,1716.386353 1896.244873,1717.443848 
	C1881.039795,1718.466797 1870.450562,1726.488525 1864.917114,1740.119507 
	C1856.570801,1760.679932 1856.547852,1781.759277 1865.357178,1802.234131 
	C1871.219238,1815.858765 1882.107910,1823.455566 1897.212158,1824.156982 
	C1915.532715,1825.007690 1929.391235,1816.064575 1935.549805,1798.418091 
	C1942.232178,1779.270996 1942.123047,1759.935791 1934.058838,1739.443359 
z"/>
<path fill="#1B6AB4" opacity="1.000000" stroke="none" 
	d="
M2062.451172,1416.000000 
	C2062.451416,1375.158569 2062.451416,1335.317017 2062.451416,1294.889404 
	C2081.603271,1294.889404 2099.753906,1294.889404 2117.905762,1294.889404 
	C2119.790283,1301.916260 2120.523438,1473.651978 2118.657471,1490.767334 
	C2100.376221,1490.767334 2082.009033,1490.767334 2062.451172,1490.767334 
	C2062.451172,1466.027832 2062.451172,1441.513916 2062.451172,1416.000000 
z"/>
<path fill="#6F412A" opacity="1.000000" stroke="none" 
	d="
M963.906921,1673.651245 
	C976.088928,1667.714233 988.439270,1662.091431 1000.374023,1655.693237 
	C1005.504761,1652.942627 1009.773071,1648.583130 1015.537598,1644.094727 
	C1017.064270,1653.088501 1018.546753,1660.763916 1019.649658,1668.493530 
	C1026.184326,1714.291382 1036.138550,1759.233032 1054.290771,1801.967529 
	C1064.449219,1825.883057 1076.864502,1848.612549 1093.406006,1868.878296 
	C1095.901245,1871.935547 1097.884644,1875.410400 1100.036133,1879.406372 
	C1093.734009,1875.444336 1087.500610,1870.767944 1080.581543,1866.035645 
	C1079.895996,1865.979858 1079.985229,1866.100586 1079.937134,1865.515381 
	C1079.233398,1864.582886 1078.577881,1864.235474 1077.922241,1863.888062 
	C1077.922241,1863.888062 1077.953979,1864.056519 1077.736816,1863.446899 
	C1062.300537,1848.900391 1046.551758,1835.493896 1031.963623,1820.925293 
	C991.263367,1780.279541 968.944092,1730.898560 963.906921,1673.651245 
z"/>
<path fill="#F26C26" opacity="1.000000" stroke="none" 
	d="
M2231.899902,1692.000000 
	C2231.899902,1673.383545 2231.899902,1655.766968 2231.899902,1637.332031 
	C2242.216309,1637.332031 2252.006104,1637.332031 2261.898193,1637.332031 
	C2263.979492,1644.010254 2264.923584,1825.692505 2262.789551,1847.190063 
	C2253.205078,1848.322510 2243.393799,1847.498169 2234.151611,1847.646606 
	C2233.350342,1846.946533 2233.074463,1846.749878 2232.856445,1846.502075 
	C2232.649414,1846.265869 2232.352783,1845.976562 2232.351807,1845.709717 
	C2232.186279,1794.806519 2232.043213,1743.903320 2231.899902,1692.000000 
z"/>
<path fill="#F26922" opacity="1.000000" stroke="none" 
	d="
M2198.357422,1803.999878 
	C2198.357422,1818.898438 2198.357422,1832.796997 2198.357422,1847.181885 
	C2187.689453,1847.181885 2178.140137,1847.181885 2168.607666,1847.181885 
	C2166.679932,1839.861938 2166.301514,1705.012939 2168.233643,1694.328613 
	C2177.713379,1694.328613 2187.274414,1694.328613 2198.289795,1694.328613 
	C2198.427490,1730.669922 2198.325928,1766.835815 2198.357422,1803.999878 
z"/>
<path fill="#F26C26" opacity="1.000000" stroke="none" 
	d="
M2083.760742,1515.317017 
	C2097.111084,1512.766113 2107.694092,1516.385620 2115.449463,1526.502319 
	C2125.813232,1540.020996 2122.119141,1559.123413 2107.812988,1568.308838 
	C2093.429199,1577.544312 2073.588623,1573.208008 2064.903320,1558.930664 
	C2056.077881,1544.423340 2061.245117,1526.078003 2076.502686,1518.031006 
	C2078.535400,1516.959106 2080.812500,1516.351196 2083.760742,1515.317017 
z"/>
<path fill="#F26C26" opacity="1.000000" stroke="none" 
	d="
M2166.671875,1645.090088 
	C2175.565674,1634.128296 2187.097168,1632.391968 2195.437500,1640.144409 
	C2201.453613,1645.736572 2202.918945,1654.892822 2198.945312,1662.061768 
	C2195.019531,1669.144409 2186.345215,1672.849487 2178.484375,1670.800659 
	C2169.944824,1668.574951 2164.072510,1660.994873 2164.598389,1652.485229 
	C2164.738770,1650.216187 2165.719238,1647.999023 2166.671875,1645.090088 
z"/>
<path fill="#6F412A" opacity="1.000000" stroke="none" 
	d="
M1102.216309,1882.518066 
	C1103.683105,1883.113525 1105.459961,1884.269531 1107.530518,1886.027466 
	C1106.058228,1885.445801 1104.292358,1884.262207 1102.216309,1882.518066 
z"/>
<path fill="#6F412A" opacity="1.000000" stroke="none" 
	d="
M1100.013916,1880.546143 
	C1100.522095,1880.329468 1101.165405,1880.649048 1101.932861,1881.523682 
	C1101.421021,1881.746582 1100.784912,1881.414429 1100.013916,1880.546143 
z"/>
<path fill="#FFFFFF" opacity="1.000000" stroke="none" 
	d="
M963.042969,1673.627686 
	C968.944092,1730.898560 991.263367,1780.279541 1031.963623,1820.925293 
	C1046.551758,1835.493896 1062.300537,1848.900391 1077.822266,1863.442383 
	C1076.547607,1864.337158 1074.968384,1864.886719 1073.392700,1864.876831 
	C1051.422363,1864.739136 1029.370361,1865.683472 1007.496155,1864.134644 
	C895.642273,1856.215088 805.629456,1809.680054 745.573853,1712.459351 
	C723.028015,1675.961060 711.262695,1635.605835 707.484192,1592.786377 
	C704.528381,1559.289551 707.552673,1526.373047 715.107605,1493.560791 
	C717.887878,1499.658936 718.961548,1506.655518 722.556763,1511.934570 
	C743.153992,1542.178223 764.967468,1571.534912 790.141418,1598.212524 
	C808.019714,1617.158936 827.334412,1634.392090 850.454651,1646.814819 
	C861.569702,1652.786987 872.932434,1658.279785 885.713135,1659.828857 
	C901.000000,1666.974121 916.466797,1673.852051 933.610901,1674.601196 
	C943.100952,1675.015869 952.654236,1673.984009 963.042969,1673.627686 
z"/>
<path fill="#FFFFFF" opacity="1.000000" stroke="none" 
	d="
M826.674561,1526.039062 
	C818.593872,1523.036987 810.455017,1520.181763 802.442993,1517.006592 
	C774.618103,1505.979858 746.837219,1494.842163 718.291748,1483.458740 
	C721.455688,1462.773315 729.215210,1443.697388 737.950439,1425.019043 
	C751.860413,1395.275757 769.950989,1368.300903 793.474854,1344.715332 
	C798.948547,1356.050049 803.572266,1367.050659 808.030945,1378.117798 
	C818.905334,1405.109863 825.637939,1433.044067 826.466614,1462.222778 
	C827.050659,1482.788940 827.311951,1503.364380 827.418335,1524.215088 
	C826.776428,1524.953125 826.628174,1525.468018 826.674561,1526.039062 
z"/>
<path fill="#6F412A" opacity="1.000000" stroke="none" 
	d="
M827.717346,1523.935669 
	C827.311951,1503.364380 827.050659,1482.788940 826.466614,1462.222778 
	C825.637939,1433.044067 818.905334,1405.109863 808.030945,1378.117798 
	C803.572266,1367.050659 798.948547,1356.050049 794.035095,1344.355469 
	C803.800598,1333.963135 813.930908,1324.234741 824.619385,1314.291260 
	C828.221863,1326.283813 831.122803,1338.529419 834.341064,1350.691040 
	C840.457825,1373.806519 845.340881,1397.146729 845.924744,1421.121826 
	C846.797485,1456.958496 847.255249,1492.805420 847.835815,1528.648804 
	C847.860779,1530.188110 847.347778,1531.736084 846.821411,1534.833374 
	C840.363220,1532.124268 834.675354,1529.738281 828.575806,1526.202515 
	C828.015259,1524.680420 827.866333,1524.308105 827.717346,1523.935669 
z"/>
<path fill="#6F412A" opacity="1.000000" stroke="none" 
	d="
M885.296265,1659.340332 
	C872.932434,1658.279785 861.569702,1652.786987 850.454651,1646.814819 
	C827.334412,1634.392090 808.019714,1617.158936 790.141418,1598.212524 
	C764.967468,1571.534912 743.153992,1542.178223 722.556763,1511.934570 
	C718.961548,1506.655518 717.887878,1499.658936 715.433228,1492.641968 
	C715.529053,1490.578979 715.841187,1489.329834 716.398071,1487.629883 
	C723.734741,1495.429443 731.113586,1503.452148 737.868469,1511.969849 
	C766.542236,1548.126953 795.205811,1584.254639 828.710022,1616.226074 
	C845.856018,1632.588013 864.433167,1646.913452 885.296265,1659.340332 
z"/>
<path fill="#FFFFFF" opacity="1.000000" stroke="none" 
	d="
M1077.747803,1864.656494 
	C1078.577881,1864.235474 1079.233398,1864.582886 1080.007812,1865.490356 
	C1079.275513,1865.841919 1078.424438,1865.633423 1077.747803,1864.656494 
z"/>
<path fill="#979797" opacity="1.000000" stroke="none" 
	d="
M827.418335,1524.215088 
	C827.866333,1524.308105 828.015259,1524.680420 828.173828,1525.655273 
	C828.183472,1526.257690 827.403381,1526.285278 827.038940,1526.162109 
	C826.628174,1525.468018 826.776428,1524.953125 827.418335,1524.215088 
z"/>
<path fill="#FFFFFF" opacity="1.000000" stroke="none" 
	d="
M1625.110352,1512.960205 
	C1607.696777,1497.602173 1599.981689,1477.986694 1596.708008,1456.493530 
	C1593.472656,1435.252808 1594.035156,1413.953857 1600.247192,1393.219116 
	C1602.517578,1385.640991 1605.612915,1378.108521 1609.566162,1371.268555 
	C1636.370117,1324.892090 1701.114014,1323.901245 1729.356445,1369.411743 
	C1742.438477,1390.492310 1746.468262,1413.943115 1745.173950,1438.351074 
	C1744.467896,1451.667480 1742.211914,1464.851807 1736.482910,1477.072510 
	C1733.411987,1483.622925 1729.606812,1489.829224 1725.284302,1497.745239 
	C1721.316284,1492.421631 1718.330811,1488.574219 1715.525269,1484.599854 
	C1713.467651,1481.685059 1711.075562,1480.124146 1707.253418,1480.171875 
	C1692.305786,1480.359253 1677.354492,1480.248413 1661.775269,1480.248413 
	C1662.254272,1487.122803 1667.050415,1491.117310 1669.963379,1495.987671 
	C1672.863037,1500.835938 1676.216187,1505.412109 1679.349976,1510.121216 
	C1682.627197,1515.045776 1685.879883,1519.986572 1689.911743,1526.081787 
	C1665.453125,1531.452759 1644.387695,1528.500244 1625.110352,1512.960205 
z"/>
<path fill="#FFFFFF" opacity="1.000000" stroke="none" 
	d="
M2028.762695,1773.554443 
	C2028.992432,1760.637817 2030.406006,1748.817627 2036.507202,1738.079346 
	C2046.079102,1721.232788 2063.825195,1714.116943 2081.527344,1719.923340 
	C2090.868408,1722.987183 2097.944824,1728.933960 2102.055908,1737.704712 
	C2112.210693,1759.368652 2112.967285,1781.607788 2102.300781,1803.078125 
	C2089.386963,1829.071777 2054.276855,1830.788452 2038.609131,1806.371704 
	C2034.429443,1799.857910 2032.582275,1791.780029 2030.101807,1784.275635 
	C2029.079590,1781.183350 2029.211670,1777.709473 2028.762695,1773.554443 
z"/>
<path fill="#FFFFFF" opacity="1.000000" stroke="none" 
	d="
M2375.956055,1756.282715 
	C2357.400879,1756.282715 2339.836670,1756.282715 2322.354004,1756.282715 
	C2320.501221,1735.379639 2337.044434,1717.426025 2358.293945,1716.406738 
	C2379.714844,1715.379395 2395.848877,1731.647461 2396.298828,1755.888306 
	C2389.875977,1756.019165 2383.411377,1756.150879 2375.956055,1756.282715 
z"/>
<path fill="#FFFFFF" opacity="1.000000" stroke="none" 
	d="
M1934.364990,1740.151123 
	C1942.123047,1759.935791 1942.232178,1779.270996 1935.549805,1798.418091 
	C1929.391235,1816.064575 1915.532715,1825.007690 1897.212158,1824.156982 
	C1882.107910,1823.455566 1871.219238,1815.858765 1865.357178,1802.234131 
	C1856.547852,1781.759277 1856.570801,1760.679932 1864.917114,1740.119507 
	C1870.450562,1726.488525 1881.039795,1718.466797 1896.244873,1717.443848 
	C1911.964844,1716.386353 1924.127930,1722.158569 1932.212036,1735.910645 
	C1932.884521,1737.054688 1933.445801,1738.264282 1934.364990,1740.151123 
z"/>
</svg>