<svg width="28" height="28" viewBox="0 0 28 28" fill="none" xmlns="http://www.w3.org/2000/svg">
<path d="M4.66602 20.9997C4.66602 19.762 5.15768 18.575 6.03285 17.6998C6.90802 16.8247 8.09501 16.333 9.33268 16.333H18.666C19.9037 16.333 21.0907 16.8247 21.9658 17.6998C22.841 18.575 23.3327 19.762 23.3327 20.9997C23.3327 21.6185 23.0868 22.212 22.6493 22.6496C22.2117 23.0872 21.6182 23.333 20.9993 23.333H6.99935C6.38051 23.333 5.78702 23.0872 5.34943 22.6496C4.91185 22.212 4.66602 21.6185 4.66602 20.9997Z" stroke="black" stroke-width="1.5" stroke-linejoin="round"/>
<path d="M14 11.6665C15.933 11.6665 17.5 10.0995 17.5 8.1665C17.5 6.23351 15.933 4.6665 14 4.6665C12.067 4.6665 10.5 6.23351 10.5 8.1665C10.5 10.0995 12.067 11.6665 14 11.6665Z" stroke="black" stroke-width="1.5"/>
</svg>
