<svg width="25" height="24" viewBox="0 0 25 24" fill="none" xmlns="http://www.w3.org/2000/svg">
<path d="M8.47005 9.88601H16.53M8.47005 14.114H14.218M12.5 21.25C14.5094 21.2496 16.464 20.5948 18.0682 19.3848C19.6725 18.1748 20.839 16.4753 21.3915 14.5434C21.944 12.6115 21.8524 10.5521 21.1305 8.6769C20.4086 6.80167 19.0958 5.21249 17.3904 4.14971C15.6851 3.08694 13.6801 2.60837 11.6786 2.78638C9.67712 2.96439 7.78803 3.7893 6.29703 5.13636C4.80603 6.48341 3.79422 8.27934 3.41462 10.2525C3.03501 12.2258 3.30827 14.2689 4.19305 16.073C4.30105 16.293 4.33705 16.541 4.28205 16.779L3.46605 20.315C3.44304 20.4142 3.44568 20.5177 3.47372 20.6156C3.50175 20.7136 3.55425 20.8027 3.62628 20.8748C3.69831 20.9468 3.78749 20.9993 3.88543 21.0273C3.98336 21.0554 4.08681 21.058 4.18605 21.035L7.72105 20.218C7.95972 20.1657 8.20912 20.1975 8.42705 20.308C9.69444 20.9304 11.0881 21.2527 12.5 21.25Z" stroke="white" stroke-width="1.5" stroke-linecap="round" stroke-linejoin="round"/>
</svg>
