<svg width="28" height="28" viewBox="0 0 28 28" fill="none" xmlns="http://www.w3.org/2000/svg">
<mask id="path-1-outside-1_4545_14596" maskUnits="userSpaceOnUse" x="2.5" y="4.8335" width="23" height="18" fill="black">
<rect fill="white" x="2.5" y="4.8335" width="23" height="18"/>
<path d="M13.9323 17.1408C14.0801 17.1408 14.2034 17.0918 14.3022 16.9938C14.4002 16.8966 14.4492 16.7737 14.4492 16.6252V14.7188H17.276C17.6213 14.7188 17.9169 14.5956 18.1627 14.349C18.4092 14.1032 18.5325 13.8077 18.5325 13.4623V12.116C18.5325 11.7707 18.4092 11.4747 18.1627 11.2282C17.9169 10.9824 17.6213 10.8595 17.276 10.8595H14.3593C14.0887 10.8595 13.8639 10.9489 13.685 11.1278C13.5061 11.3067 13.4167 11.5315 13.4167 11.8022V16.6252C13.4167 16.7729 13.4657 16.8958 13.5637 16.9938C13.6617 17.0918 13.7846 17.1408 13.9323 17.1408ZM20.664 17.1408C20.8118 17.1408 20.9347 17.0918 21.0327 16.9938C21.1307 16.8958 21.1797 16.7729 21.1797 16.6252V11.3752C21.1797 11.2274 21.1307 11.1045 21.0327 11.0065C20.9347 10.9085 20.8118 10.8595 20.664 10.8595C20.5162 10.8595 20.3929 10.9085 20.2942 11.0065C20.1954 11.1045 20.1464 11.2274 20.1472 11.3752V16.6252C20.1472 16.7729 20.1962 16.8958 20.2942 16.9938C20.3922 17.0918 20.5162 17.1408 20.664 17.1408ZM14.4492 13.6863V11.8908H17.1407C17.2309 11.8908 17.3133 11.9286 17.388 12.004C17.4627 12.0787 17.5 12.1607 17.5 12.2502V13.327C17.5 13.4172 17.4627 13.4997 17.388 13.5743C17.3133 13.649 17.2309 13.6863 17.1407 13.6863H14.4492ZM7.94267 17.1408H10.5443C10.8904 17.1408 11.1864 17.0179 11.4322 16.7722C11.6787 16.5264 11.802 16.2308 11.802 15.8855V11.3752C11.802 11.2274 11.753 11.1045 11.655 11.0065C11.557 10.9085 11.4337 10.8595 11.2852 10.8595C11.1366 10.8595 11.0137 10.9085 10.9165 11.0065C10.8193 11.1045 10.7703 11.2274 10.7695 11.3752V15.7502C10.7695 15.8404 10.7322 15.9228 10.6575 15.9975C10.5828 16.0722 10.5004 16.1095 10.4102 16.1095H8.07683C7.98739 16.1095 7.90533 16.0722 7.83067 15.9975C7.756 15.9228 7.71867 15.8404 7.71867 15.7502V11.3752C7.71867 11.2274 7.66967 11.1045 7.57167 11.0065C7.47367 10.9085 7.35039 10.8595 7.20183 10.8595C7.05328 10.8595 6.93039 10.9085 6.83317 11.0065C6.73594 11.1045 6.68694 11.2274 6.68617 11.3752V15.8855C6.68617 16.2308 6.80906 16.5264 7.05483 16.7722C7.30139 17.0179 7.59811 17.1408 7.94267 17.1408ZM5.38533 22.1668C4.84867 22.1668 4.40028 21.9872 4.04017 21.6278C3.68006 21.2685 3.5 20.8197 3.5 20.2815V7.71883C3.5 7.18139 3.68006 6.733 4.04017 6.37366C4.40028 6.01433 4.84828 5.83427 5.38417 5.8335H22.6158C23.1525 5.8335 23.6005 6.01355 23.9598 6.37366C24.3192 6.73377 24.4992 7.18216 24.5 7.71883V20.2827C24.5 20.8193 24.3199 21.2677 23.9598 21.6278C23.5997 21.9879 23.1517 22.1676 22.6158 22.1668H5.38533ZM5.38533 21.0002H22.617C22.7959 21.0002 22.9604 20.9255 23.1105 20.7762C23.2606 20.6268 23.3353 20.4619 23.3345 20.2815V7.71883C23.3345 7.53916 23.2598 7.37427 23.1105 7.22416C22.9612 7.07405 22.7963 6.99939 22.6158 7.00016H5.38417C5.20528 7.00016 5.04078 7.07483 4.89067 7.22416C4.74056 7.3735 4.66589 7.53839 4.66667 7.71883V20.2827C4.66667 20.4616 4.74133 20.6261 4.89067 20.7762C5.04 20.9263 5.2045 21.0009 5.38417 21.0002"/>
</mask>
<path d="M13.9323 17.1408C14.0801 17.1408 14.2034 17.0918 14.3022 16.9938C14.4002 16.8966 14.4492 16.7737 14.4492 16.6252V14.7188H17.276C17.6213 14.7188 17.9169 14.5956 18.1627 14.349C18.4092 14.1032 18.5325 13.8077 18.5325 13.4623V12.116C18.5325 11.7707 18.4092 11.4747 18.1627 11.2282C17.9169 10.9824 17.6213 10.8595 17.276 10.8595H14.3593C14.0887 10.8595 13.8639 10.9489 13.685 11.1278C13.5061 11.3067 13.4167 11.5315 13.4167 11.8022V16.6252C13.4167 16.7729 13.4657 16.8958 13.5637 16.9938C13.6617 17.0918 13.7846 17.1408 13.9323 17.1408ZM20.664 17.1408C20.8118 17.1408 20.9347 17.0918 21.0327 16.9938C21.1307 16.8958 21.1797 16.7729 21.1797 16.6252V11.3752C21.1797 11.2274 21.1307 11.1045 21.0327 11.0065C20.9347 10.9085 20.8118 10.8595 20.664 10.8595C20.5162 10.8595 20.3929 10.9085 20.2942 11.0065C20.1954 11.1045 20.1464 11.2274 20.1472 11.3752V16.6252C20.1472 16.7729 20.1962 16.8958 20.2942 16.9938C20.3922 17.0918 20.5162 17.1408 20.664 17.1408ZM14.4492 13.6863V11.8908H17.1407C17.2309 11.8908 17.3133 11.9286 17.388 12.004C17.4627 12.0787 17.5 12.1607 17.5 12.2502V13.327C17.5 13.4172 17.4627 13.4997 17.388 13.5743C17.3133 13.649 17.2309 13.6863 17.1407 13.6863H14.4492ZM7.94267 17.1408H10.5443C10.8904 17.1408 11.1864 17.0179 11.4322 16.7722C11.6787 16.5264 11.802 16.2308 11.802 15.8855V11.3752C11.802 11.2274 11.753 11.1045 11.655 11.0065C11.557 10.9085 11.4337 10.8595 11.2852 10.8595C11.1366 10.8595 11.0137 10.9085 10.9165 11.0065C10.8193 11.1045 10.7703 11.2274 10.7695 11.3752V15.7502C10.7695 15.8404 10.7322 15.9228 10.6575 15.9975C10.5828 16.0722 10.5004 16.1095 10.4102 16.1095H8.07683C7.98739 16.1095 7.90533 16.0722 7.83067 15.9975C7.756 15.9228 7.71867 15.8404 7.71867 15.7502V11.3752C7.71867 11.2274 7.66967 11.1045 7.57167 11.0065C7.47367 10.9085 7.35039 10.8595 7.20183 10.8595C7.05328 10.8595 6.93039 10.9085 6.83317 11.0065C6.73594 11.1045 6.68694 11.2274 6.68617 11.3752V15.8855C6.68617 16.2308 6.80906 16.5264 7.05483 16.7722C7.30139 17.0179 7.59811 17.1408 7.94267 17.1408ZM5.38533 22.1668C4.84867 22.1668 4.40028 21.9872 4.04017 21.6278C3.68006 21.2685 3.5 20.8197 3.5 20.2815V7.71883C3.5 7.18139 3.68006 6.733 4.04017 6.37366C4.40028 6.01433 4.84828 5.83427 5.38417 5.8335H22.6158C23.1525 5.8335 23.6005 6.01355 23.9598 6.37366C24.3192 6.73377 24.4992 7.18216 24.5 7.71883V20.2827C24.5 20.8193 24.3199 21.2677 23.9598 21.6278C23.5997 21.9879 23.1517 22.1676 22.6158 22.1668H5.38533ZM5.38533 21.0002H22.617C22.7959 21.0002 22.9604 20.9255 23.1105 20.7762C23.2606 20.6268 23.3353 20.4619 23.3345 20.2815V7.71883C23.3345 7.53916 23.2598 7.37427 23.1105 7.22416C22.9612 7.07405 22.7963 6.99939 22.6158 7.00016H5.38417C5.20528 7.00016 5.04078 7.07483 4.89067 7.22416C4.74056 7.3735 4.66589 7.53839 4.66667 7.71883V20.2827C4.66667 20.4616 4.74133 20.6261 4.89067 20.7762C5.04 20.9263 5.2045 21.0009 5.38417 21.0002" fill="black"/>
<path d="M4.66667 21.0002H4.71667V7.00016H4.66667H4.61667V21.0002H4.66667ZM13.9323 17.1408L13.9323 17.0408L13.9323 17.1408ZM14.3022 16.9938L14.2317 16.9228L14.2317 16.9228L14.3022 16.9938ZM14.4492 14.7188V14.6188H14.3492V14.7188H14.4492ZM18.1627 14.349L18.0921 14.2782L18.0918 14.2784L18.1627 14.349ZM13.4167 11.8022H13.3167H13.4167ZM20.664 17.1408V17.0408V17.1408ZM21.1797 16.6252H21.2797H21.1797ZM20.1472 11.3752H20.2472L20.2472 11.3746L20.1472 11.3752ZM14.4492 13.6863H14.3492V13.7863H14.4492V13.6863ZM14.4492 11.8908V11.7908H14.3492V11.8908H14.4492ZM17.388 12.004L17.3169 12.0743L17.3173 12.0747L17.388 12.004ZM11.4322 16.7722L11.3616 16.7013L11.3615 16.7015L11.4322 16.7722ZM10.7695 11.3752L10.6695 11.3746V11.3752H10.7695ZM6.68617 11.3752L6.58617 11.3746V11.3752H6.68617ZM7.05483 16.7722L6.98412 16.8429L6.98423 16.843L7.05483 16.7722ZM3.5 20.2815H3.6H3.5ZM5.38417 5.8335L5.38417 5.7335L5.38402 5.7335L5.38417 5.8335ZM24.5 7.71883H24.6L24.6 7.71868L24.5 7.71883ZM22.6158 22.1668L22.616 22.0668H22.6158V22.1668ZM23.3345 20.2815L23.2345 20.2815L23.2345 20.2819L23.3345 20.2815ZM22.6158 7.00016L22.6158 7.10016L22.6163 7.10016L22.6158 7.00016ZM4.66667 7.71883L4.76667 7.71883L4.76667 7.7184L4.66667 7.71883ZM13.9323 17.1408V17.2408C14.1047 17.2408 14.2538 17.1826 14.3726 17.0648L14.3022 16.9938L14.2317 16.9228C14.1529 17.001 14.0555 17.0408 13.9323 17.0408V17.1408ZM14.3022 16.9938L14.3726 17.0648C14.4911 16.9473 14.5492 16.7981 14.5492 16.6252H14.4492H14.3492C14.3492 16.7493 14.3093 16.8459 14.2317 16.9228L14.3022 16.9938ZM14.4492 16.6252H14.5492V14.7188H14.4492H14.3492V16.6252H14.4492ZM14.4492 14.7188V14.8188H17.276V14.7188V14.6188H14.4492V14.7188ZM17.276 14.7188V14.8188C17.6482 14.8188 17.9691 14.6848 18.2335 14.4196L18.1627 14.349L18.0918 14.2784C17.8647 14.5063 17.5945 14.6188 17.276 14.6188V14.7188ZM18.1627 14.349L18.2333 14.4198C18.4985 14.1554 18.6325 13.8345 18.6325 13.4623H18.5325H18.4325C18.4325 13.7808 18.32 14.051 18.0921 14.2782L18.1627 14.349ZM18.5325 13.4623H18.6325V12.116H18.5325H18.4325V13.4623H18.5325ZM18.5325 12.116H18.6325C18.6325 11.7439 18.4985 11.4226 18.2334 11.1575L18.1627 11.2282L18.092 11.2989C18.32 11.5269 18.4325 11.7975 18.4325 12.116H18.5325ZM18.1627 11.2282L18.2334 11.1575C17.969 10.8931 17.648 10.7595 17.276 10.7595V10.8595V10.9595C17.5946 10.9595 17.8648 11.0717 18.092 11.2989L18.1627 11.2282ZM17.276 10.8595V10.7595H14.3593V10.8595V10.9595H17.276V10.8595ZM14.3593 10.8595V10.7595C14.0642 10.7595 13.8133 10.8581 13.6143 11.0571L13.685 11.1278L13.7557 11.1985C13.9144 11.0398 14.1131 10.9595 14.3593 10.9595V10.8595ZM13.685 11.1278L13.6143 11.0571C13.4152 11.2562 13.3167 11.507 13.3167 11.8022H13.4167H13.5167C13.5167 11.556 13.597 11.3573 13.7557 11.1985L13.685 11.1278ZM13.4167 11.8022H13.3167V16.6252H13.4167H13.5167V11.8022H13.4167ZM13.4167 16.6252H13.3167C13.3167 16.7975 13.3749 16.9465 13.493 17.0645L13.5637 16.9938L13.6344 16.9231C13.5565 16.8452 13.5167 16.7484 13.5167 16.6252H13.4167ZM13.5637 16.9938L13.493 17.0645C13.611 17.1826 13.76 17.2408 13.9323 17.2408L13.9323 17.1408L13.9323 17.0408C13.8091 17.0408 13.7123 17.001 13.6344 16.9231L13.5637 16.9938ZM20.664 17.1408V17.2408C20.8364 17.2408 20.9853 17.1826 21.1034 17.0645L21.0327 16.9938L20.962 16.9231C20.884 17.001 20.7872 17.0408 20.664 17.0408V17.1408ZM21.0327 16.9938L21.1034 17.0645C21.2215 16.9465 21.2797 16.7975 21.2797 16.6252H21.1797H21.0797C21.0797 16.7484 21.0399 16.8452 20.962 16.9231L21.0327 16.9938ZM21.1797 16.6252H21.2797V11.3752H21.1797H21.0797V16.6252H21.1797ZM21.1797 11.3752H21.2797C21.2797 11.2028 21.2215 11.0539 21.1034 10.9358L21.0327 11.0065L20.962 11.0772C21.0399 11.1551 21.0797 11.252 21.0797 11.3752H21.1797ZM21.0327 11.0065L21.1034 10.9358C20.9853 10.8177 20.8364 10.7595 20.664 10.7595V10.8595V10.9595C20.7872 10.9595 20.884 10.9993 20.962 11.0772L21.0327 11.0065ZM20.664 10.8595V10.7595C20.4917 10.7595 20.3425 10.8177 20.2237 10.9355L20.2942 11.0065L20.3646 11.0775C20.4434 10.9993 20.5408 10.9595 20.664 10.9595V10.8595ZM20.2942 11.0065L20.2237 10.9355C20.1046 11.0537 20.0463 11.2029 20.0472 11.3757L20.1472 11.3752L20.2472 11.3746C20.2465 11.2518 20.2862 11.1553 20.3646 11.0775L20.2942 11.0065ZM20.1472 11.3752H20.0472V16.6252H20.1472H20.2472V11.3752H20.1472ZM20.1472 16.6252H20.0472C20.0472 16.7975 20.1054 16.9465 20.2235 17.0645L20.2942 16.9938L20.3649 16.9231C20.287 16.8452 20.2472 16.7484 20.2472 16.6252H20.1472ZM20.2942 16.9938L20.2235 17.0645C20.3417 17.1828 20.4919 17.2408 20.664 17.2408V17.1408V17.0408C20.5406 17.0408 20.4426 17.0009 20.3649 16.9231L20.2942 16.9938ZM14.4492 13.6863H14.5492V11.8908H14.4492H14.3492V13.6863H14.4492ZM14.4492 11.8908V11.9908H17.1407V11.8908V11.7908H14.4492V11.8908ZM17.1407 11.8908V11.9908C17.1995 11.9908 17.2575 12.0143 17.3169 12.0743L17.388 12.004L17.4591 11.9337C17.3692 11.8428 17.2623 11.7908 17.1407 11.7908V11.8908ZM17.388 12.004L17.3173 12.0747C17.3768 12.1343 17.4 12.192 17.4 12.2502H17.5H17.6C17.6 12.1295 17.5485 12.0231 17.4587 11.9333L17.388 12.004ZM17.5 12.2502H17.4V13.327H17.5H17.6V12.2502H17.5ZM17.5 13.327H17.4C17.4 13.3862 17.3766 13.4443 17.3173 13.5036L17.388 13.5743L17.4587 13.645C17.5487 13.5551 17.6 13.4482 17.6 13.327H17.5ZM17.388 13.5743L17.3173 13.5036C17.2579 13.563 17.1999 13.5863 17.1407 13.5863V13.6863V13.7863C17.2619 13.7863 17.3687 13.735 17.4587 13.645L17.388 13.5743ZM17.1407 13.6863V13.5863H14.4492V13.6863V13.7863H17.1407V13.6863ZM7.94267 17.1408V17.2408H10.5443V17.1408V17.0408H7.94267V17.1408ZM10.5443 17.1408V17.2408C10.9171 17.2408 11.2384 17.1073 11.5029 16.8429L11.4322 16.7722L11.3615 16.7015C11.1343 16.9286 10.8638 17.0408 10.5443 17.0408V17.1408ZM11.4322 16.7722L11.5028 16.843C11.768 16.5786 11.902 16.2576 11.902 15.8855H11.802H11.702C11.702 16.204 11.5895 16.4742 11.3616 16.7013L11.4322 16.7722ZM11.802 15.8855H11.902V11.3752H11.802H11.702V15.8855H11.802ZM11.802 11.3752H11.902C11.902 11.2028 11.8438 11.0539 11.7257 10.9358L11.655 11.0065L11.5843 11.0772C11.6622 11.1551 11.702 11.252 11.702 11.3752H11.802ZM11.655 11.0065L11.7257 10.9358C11.6075 10.8176 11.4581 10.7595 11.2852 10.7595V10.8595V10.9595C11.4093 10.9595 11.5065 10.9994 11.5843 11.0772L11.655 11.0065ZM11.2852 10.8595V10.7595C11.1122 10.7595 10.963 10.8176 10.8455 10.9361L10.9165 11.0065L10.9875 11.0769C11.0644 10.9994 11.161 10.9595 11.2852 10.9595V10.8595ZM10.9165 11.0065L10.8455 10.9361C10.7284 11.0541 10.6704 11.2027 10.6695 11.3746L10.7695 11.3752L10.8695 11.3757C10.8701 11.2521 10.9101 11.1549 10.9875 11.0769L10.9165 11.0065ZM10.7695 11.3752H10.6695V15.7502H10.7695H10.8695V11.3752H10.7695ZM10.7695 15.7502H10.6695C10.6695 15.8094 10.6461 15.8674 10.5868 15.9268L10.6575 15.9975L10.7282 16.0682C10.8182 15.9782 10.8695 15.8714 10.8695 15.7502H10.7695ZM10.6575 15.9975L10.5868 15.9268C10.5274 15.9861 10.4694 16.0095 10.4102 16.0095V16.1095V16.2095C10.5314 16.2095 10.6382 16.1582 10.7282 16.0682L10.6575 15.9975ZM10.4102 16.1095V16.0095H8.07683V16.1095V16.2095H10.4102V16.1095ZM8.07683 16.1095V16.0095C8.01865 16.0095 7.96093 15.9863 7.90138 15.9268L7.83067 15.9975L7.75996 16.0682C7.84973 16.158 7.95612 16.2095 8.07683 16.2095V16.1095ZM7.83067 15.9975L7.90138 15.9268C7.84202 15.8674 7.81867 15.8094 7.81867 15.7502H7.71867H7.61867C7.61867 15.8714 7.66998 15.9782 7.75996 16.0682L7.83067 15.9975ZM7.71867 15.7502H7.81867V11.3752H7.71867H7.61867V15.7502H7.71867ZM7.71867 11.3752H7.81867C7.81867 11.2028 7.76046 11.0539 7.64238 10.9358L7.57167 11.0065L7.50096 11.0772C7.57887 11.1551 7.61867 11.252 7.61867 11.3752H7.71867ZM7.57167 11.0065L7.64238 10.9358C7.52418 10.8176 7.3748 10.7595 7.20183 10.7595L7.20183 10.8595L7.20183 10.9595C7.32598 10.9595 7.42315 10.9994 7.50096 11.0772L7.57167 11.0065ZM7.20183 10.8595L7.20183 10.7595C7.02886 10.7595 6.8797 10.8176 6.76217 10.9361L6.83317 11.0065L6.90416 11.0769C6.98108 10.9994 7.07769 10.9595 7.20183 10.9595L7.20183 10.8595ZM6.83317 11.0065L6.76217 10.9361C6.64511 11.0541 6.58707 11.2027 6.58617 11.3746L6.68617 11.3752L6.78617 11.3757C6.78682 11.2521 6.82678 11.1549 6.90416 11.0769L6.83317 11.0065ZM6.68617 11.3752H6.58617V15.8855H6.68617H6.78617V11.3752H6.68617ZM6.68617 15.8855H6.58617C6.58617 16.2575 6.71973 16.5785 6.98412 16.8429L7.05483 16.7722L7.12554 16.7015C6.89838 16.4743 6.78617 16.2041 6.78617 15.8855H6.68617ZM7.05483 16.7722L6.98423 16.843C7.24939 17.1073 7.57144 17.2408 7.94267 17.2408V17.1408V17.0408C7.62478 17.0408 7.35339 16.9286 7.12543 16.7013L7.05483 16.7722ZM5.38533 22.1668V22.0668C4.87353 22.0668 4.45105 21.8966 4.1108 21.557L4.04017 21.6278L3.96953 21.6986C4.3495 22.0778 4.8238 22.2668 5.38533 22.2668V22.1668ZM4.04017 21.6278L4.1108 21.557C3.77067 21.2176 3.6 20.7949 3.6 20.2815H3.5H3.4C3.4 20.8446 3.58944 21.3193 3.96953 21.6986L4.04017 21.6278ZM3.5 20.2815H3.6V7.71883H3.5H3.4V20.2815H3.5ZM3.5 7.71883H3.6C3.6 7.20628 3.77064 6.78388 4.1108 6.44445L4.04017 6.37366L3.96953 6.30288C3.58947 6.68211 3.4 7.15649 3.4 7.71883H3.5ZM4.04017 6.37366L4.1108 6.44445C4.45112 6.10487 4.87329 5.93424 5.38431 5.9335L5.38417 5.8335L5.38402 5.7335C4.82327 5.73431 4.34944 5.92379 3.96953 6.30288L4.04017 6.37366ZM5.38417 5.8335V5.9335H22.6158V5.8335V5.7335H5.38417V5.8335ZM22.6158 5.8335V5.9335C23.1276 5.9335 23.5496 6.1041 23.889 6.4443L23.9598 6.37366L24.0306 6.30303C23.6514 5.923 23.1774 5.7335 22.6158 5.7335V5.8335ZM23.9598 6.37366L23.889 6.4443C24.2286 6.78458 24.3993 7.20713 24.4 7.71897L24.5 7.71883L24.6 7.71868C24.5992 7.1572 24.4097 6.68296 24.0306 6.30303L23.9598 6.37366ZM24.5 7.71883H24.4V20.2827H24.5H24.6V7.71883H24.5ZM24.5 20.2827H24.4C24.4 20.7944 24.2294 21.2169 23.8891 21.5571L23.9598 21.6278L24.0305 21.6985C24.4105 21.3186 24.6 20.8443 24.6 20.2827H24.5ZM23.9598 21.6278L23.8891 21.5571C23.5489 21.8974 23.1268 22.0676 22.616 22.0668L22.6158 22.1668L22.6157 22.2668C23.1766 22.2676 23.6506 22.0785 24.0305 21.6985L23.9598 21.6278ZM22.6158 22.1668V22.0668H5.38533V22.1668V22.2668H22.6158V22.1668ZM5.38533 21.0002V21.1002H22.617V21.0002V20.9002H5.38533V21.0002ZM22.617 21.0002V21.1002C22.8271 21.1002 23.0159 21.0114 23.181 20.8471L23.1105 20.7762L23.04 20.7053C22.9049 20.8396 22.7647 20.9002 22.617 20.9002V21.0002ZM23.1105 20.7762L23.181 20.8471C23.3466 20.6824 23.4354 20.4929 23.4345 20.2811L23.3345 20.2815L23.2345 20.2819C23.2351 20.431 23.1747 20.5713 23.04 20.7053L23.1105 20.7762ZM23.3345 20.2815H23.4345V7.71883H23.3345H23.2345V20.2815H23.3345ZM23.3345 7.71883H23.4345C23.4345 7.50806 23.3458 7.31889 23.1814 7.15364L23.1105 7.22416L23.0396 7.29469C23.1739 7.42966 23.2345 7.57027 23.2345 7.71883H23.3345ZM23.1105 7.22416L23.1814 7.15364C23.0167 6.98811 22.8272 6.89925 22.6154 6.90016L22.6158 7.00016L22.6163 7.10016C22.7653 7.09952 22.9056 7.16 23.0396 7.29469L23.1105 7.22416ZM22.6158 7.00016V6.90016H5.38417V7.00016V7.10016H22.6158V7.00016ZM5.38417 7.00016V6.90016C5.17405 6.90016 4.98529 6.98897 4.82014 7.15327L4.89067 7.22416L4.96119 7.29506C5.09626 7.16069 5.2365 7.10016 5.38417 7.10016V7.00016ZM4.89067 7.22416L4.82014 7.15327C4.65461 7.31794 4.56575 7.50743 4.56667 7.71926L4.66667 7.71883L4.76667 7.7184C4.76602 7.56934 4.8265 7.42905 4.96119 7.29506L4.89067 7.22416ZM4.66667 7.71883H4.56667V20.2827H4.66667H4.76667V7.71883H4.66667ZM4.66667 20.2827H4.56667C4.56667 20.4928 4.65547 20.6815 4.81977 20.8467L4.89067 20.7762L4.96156 20.7056C4.82719 20.5706 4.76667 20.4303 4.76667 20.2827H4.66667ZM4.89067 20.7762L4.81977 20.8467C4.98435 21.0121 5.17342 21.1011 5.3846 21.1002L5.38417 21.0002L5.38373 20.9002C5.23558 20.9008 5.09565 20.8404 4.96156 20.7056L4.89067 20.7762Z" fill="black" mask="url(#path-1-outside-1_4545_14596)"/>
</svg>
