<svg width="28" height="28" viewBox="0 0 28 28" fill="none" xmlns="http://www.w3.org/2000/svg">
<path d="M22.1667 23.3332H5.83333C5.21449 23.3332 4.621 23.0873 4.18342 22.6498C3.74583 22.2122 3.5 21.6187 3.5 20.9998V10.4998C3.5 9.881 3.74583 9.28751 4.18342 8.84992C4.621 8.41234 5.21449 8.1665 5.83333 8.1665H22.1667C22.7855 8.1665 23.379 8.41234 23.8166 8.84992C24.2542 9.28751 24.5 9.881 24.5 10.4998V20.9998C24.5 21.6187 24.2542 22.2122 23.8166 22.6498C23.379 23.0873 22.7855 23.3332 22.1667 23.3332Z" stroke="black" stroke-width="1.5"/>
<path d="M19.2493 16.3332C19.0946 16.3332 18.9463 16.2717 18.8369 16.1623C18.7275 16.0529 18.666 15.9045 18.666 15.7498C18.666 15.5951 18.7275 15.4468 18.8369 15.3374C18.9463 15.228 19.0946 15.1665 19.2493 15.1665C19.4041 15.1665 19.5524 15.228 19.6618 15.3374C19.7712 15.4468 19.8327 15.5951 19.8327 15.7498C19.8327 15.9045 19.7712 16.0529 19.6618 16.1623C19.5524 16.2717 19.4041 16.3332 19.2493 16.3332Z" fill="black" stroke="black" stroke-width="1.5" stroke-linecap="round" stroke-linejoin="round"/>
<path d="M21 8.16662V6.53679C20.9999 6.17921 20.9176 5.82643 20.7595 5.50571C20.6014 5.18498 20.3717 4.90488 20.0881 4.68705C19.8045 4.46921 19.4747 4.31947 19.1241 4.24937C18.7734 4.17928 18.4114 4.19071 18.0658 4.28279L5.2325 7.70462C4.73556 7.83705 4.2963 8.12994 3.98299 8.53777C3.66968 8.94559 3.49989 9.4455 3.5 9.95979V10.5" stroke="black" stroke-width="1.5"/>
</svg>
