<svg width="16" height="20" viewBox="0 0 16 20" fill="none" xmlns="http://www.w3.org/2000/svg">
<path d="M8.00039 8.57176C8.88405 8.57176 9.60039 7.93214 9.60039 7.14313C9.60039 6.35413 8.88405 5.71451 8.00039 5.71451C7.11673 5.71451 6.40039 6.35413 6.40039 7.14313C6.40039 7.93214 7.11673 8.57176 8.00039 8.57176Z" fill="black"/>
<path d="M8 0.75C12.1123 0.75 15.25 3.58626 15.25 6.83105C15.2499 8.30924 14.5286 10.3659 12.9678 12.9912L12.6445 13.5234C11.5765 15.2447 10.379 16.8473 9.4834 17.9795L8.7041 18.9424L8.70215 18.9443C8.64918 19.0089 8.58089 19.0689 8.49805 19.1182L8.41016 19.1631C8.2871 19.2188 8.1469 19.2499 8.00195 19.25C7.89312 19.25 7.78669 19.2324 7.68848 19.2002L7.59277 19.1631C7.50063 19.1213 7.42258 19.0674 7.35938 19.0068L7.30078 18.9443L7.29785 18.9414L6.51855 17.9795C5.77226 17.0362 4.81725 15.7661 3.90137 14.373L3.3584 13.5234C1.5706 10.6415 0.750154 8.40674 0.75 6.83105C0.75 3.58626 3.88771 0.75 8 0.75ZM9.48438 3.7998C8.86226 3.56978 8.18859 3.48889 7.52734 3.56152L7.24414 3.60254C6.58767 3.7192 5.97013 3.98677 5.45312 4.38477L5.2373 4.56348C4.67991 5.06129 4.28945 5.70659 4.12988 6.42285C3.99005 7.05066 4.03603 7.69744 4.25781 8.29785L4.36328 8.55176C4.63443 9.13624 5.06472 9.63645 5.60156 10.0107L5.83789 10.1631C6.40358 10.5006 7.05038 10.6974 7.71484 10.7412L8 10.75H8.00098C9.02227 10.7489 10.0166 10.387 10.7617 9.72168C11.5094 9.05387 11.949 8.12865 11.9502 7.14355L11.9385 6.86914C11.8856 6.23391 11.6498 5.62634 11.2607 5.10645C10.8725 4.5877 10.3486 4.17778 9.74707 3.90723L9.48438 3.7998Z" stroke="black" stroke-width="1.5"/>
</svg>
