<svg width="19" height="22" viewBox="0 0 19 22" fill="none" xmlns="http://www.w3.org/2000/svg">
<path d="M13.3174 6.05176C14.467 6.08774 14.9815 6.20884 15.3125 6.42773L15.4443 6.52734C15.673 6.72361 15.8662 7.01849 16.0566 7.63574C16.205 8.11676 16.3318 8.72145 16.4824 9.52734L16.6426 10.4033L17.4121 14.6445C17.734 16.4188 17.9549 17.6471 17.9941 18.5781C18.0276 19.372 17.92 19.8055 17.7295 20.1045L17.6436 20.2246C17.4052 20.5211 17.0327 20.7415 16.1797 20.8672C15.2948 20.9976 14.0931 21 12.3428 21H6.65723C4.90655 21 3.70507 20.9975 2.82031 20.8672C2.07421 20.7572 1.69572 20.5746 1.45312 20.332L1.35645 20.2246C1.11306 19.9218 0.967386 19.4852 1.00586 18.5781C1.03552 17.8798 1.1677 17.0145 1.36719 15.877L1.58789 14.6445L2.35742 10.4043C2.58767 9.13931 2.74555 8.27757 2.94336 7.63574C3.1099 7.09547 3.27913 6.80256 3.47168 6.60645L3.55566 6.52734C3.88464 6.24523 4.36901 6.09288 5.68262 6.05176L6.19043 6.03516V6.03613H12.8096V6.03516L13.3174 6.05176Z" stroke="black" stroke-width="2"/>
</svg>
