<svg width="21" height="20" viewBox="0 0 21 20" fill="none" xmlns="http://www.w3.org/2000/svg">
<path d="M18.725 11.875L12.4688 17.8333C12.2937 18 12.0969 18.125 11.8781 18.2083C11.6594 18.2917 11.4406 18.3333 11.2219 18.3333C11.0031 18.3333 10.7844 18.2917 10.5656 18.2083C10.3469 18.125 10.15 18 9.975 17.8333L2.25313 10.4792C2.09271 10.3264 1.96875 10.1494 1.88125 9.94834C1.79375 9.74723 1.75 9.53528 1.75 9.31251V3.33334C1.75 2.87501 1.9215 2.48278 2.2645 2.15667C2.6075 1.83056 3.01933 1.66723 3.5 1.66667H9.77812C10.0115 1.66667 10.2375 1.71195 10.4563 1.80251C10.675 1.89306 10.8646 2.01445 11.025 2.16667L18.725 9.52084C18.9 9.6875 19.0278 9.875 19.1082 10.0833C19.1887 10.2917 19.2287 10.5 19.2281 10.7083C19.2275 10.9167 19.1876 11.1217 19.1082 11.3233C19.0289 11.525 18.9012 11.7089 18.725 11.875ZM11.2219 16.6667L17.4781 10.7083L9.75625 3.33334H3.5V9.29167L11.2219 16.6667ZM5.6875 6.66667C6.05208 6.66667 6.36213 6.54528 6.61763 6.30251C6.87313 6.05973 7.00058 5.76445 7 5.41667C6.99942 5.06889 6.87196 4.77389 6.61763 4.53167C6.36329 4.28945 6.05325 4.16778 5.6875 4.16667C5.32175 4.16556 5.012 4.28723 4.75825 4.53167C4.5045 4.77612 4.37675 5.07112 4.375 5.41667C4.37325 5.76223 4.501 6.05751 4.75825 6.30251C5.0155 6.5475 5.32525 6.66889 5.6875 6.66667Z" fill="#1968b3"/>
</svg>
