<svg width="45" height="54" viewBox="0 0 45 54" fill="none" xmlns="http://www.w3.org/2000/svg">
<path d="M43.5904 18.4235C39.9036 20.6471 37.6265 24.4588 37.6265 28.6941C37.6265 33.4588 40.5542 37.8 45 39.6C44.1325 42.3529 42.8313 44.8941 41.2048 47.2235C38.8193 50.5059 36.3253 53.8941 32.6386 53.8941C28.9518 53.8941 27.8675 51.7765 23.5301 51.7765C19.3012 51.7765 17.7831 54 14.3133 54C10.8434 54 8.45783 50.9294 5.74699 47.1176C2.16867 41.8235 0.108434 35.6824 0 29.2235C0 18.7412 6.93976 13.1294 13.8795 13.1294C17.5663 13.1294 20.6024 15.4588 22.8795 15.4588C25.0482 15.4588 28.5181 13.0235 32.6386 13.0235C36.9759 12.9176 41.0964 14.9294 43.5904 18.4235ZM30.6867 8.57647C32.5301 6.45882 33.506 3.81176 33.6145 1.05882C33.6145 0.741176 33.6145 0.317647 33.506 0C30.3614 0.317647 27.4337 1.8 25.3735 4.12941C23.5301 6.14118 22.4458 8.68235 22.3374 11.4353C22.3374 11.7529 22.3374 12.0706 22.4458 12.3882C22.6627 12.3882 22.988 12.4941 23.2048 12.4941C26.1325 12.2824 28.8434 10.8 30.6867 8.57647Z" fill="black"/>
</svg>
