<svg width="50" height="50" viewBox="0 0 50 50" fill="none" xmlns="http://www.w3.org/2000/svg">
<path d="M47 25.5208C47 23.8958 46.8542 22.3333 46.5833 20.8333H25V29.6979H37.3333C36.8021 32.5625 35.1875 34.9896 32.7604 36.6146V42.3646H40.1667C44.5 38.375 47 32.5 47 25.5208Z" fill="#4285F4"/>
<path d="M25.0007 47.9167C31.1882 47.9167 36.3757 45.8646 40.1673 42.3646L32.7611 36.6146C30.709 37.9896 28.084 38.8021 25.0007 38.8021C19.0319 38.8021 13.9798 34.7709 12.1777 29.3542H4.52148V35.2917C8.29232 42.7813 16.0423 47.9167 25.0007 47.9167Z" fill="#34A853"/>
<path d="M12.1777 29.3541C11.7194 27.9791 11.459 26.5104 11.459 25C11.459 23.4896 11.7194 22.0208 12.1777 20.6458V14.7083H4.52149C2.91732 17.9018 2.08257 21.4263 2.08399 25C2.08399 28.6979 2.9694 32.1979 4.52149 35.2916L12.1777 29.3541Z" fill="#FBBC05"/>
<path d="M25.0007 11.1979C28.3652 11.1979 31.3861 12.3541 33.7611 14.625L40.334 8.05206C36.3652 4.35415 31.1777 2.08331 25.0007 2.08331C16.0423 2.08331 8.29232 7.21873 4.52148 14.7083L12.1777 20.6458C13.9798 15.2291 19.0319 11.1979 25.0007 11.1979Z" fill="#EA4335"/>
</svg>
