<svg width="61" height="61" viewBox="0 0 61 61" fill="none" xmlns="http://www.w3.org/2000/svg">
<path d="M57.1875 30.5C57.1875 31.1481 57.1875 31.7772 57.1875 32.4062C56.7428 38.832 53.9892 44.88 49.4346 49.4346C44.88 53.9892 38.832 56.7428 32.4062 57.1875C31.7772 57.1875 31.1481 57.1875 30.5 57.1875C29.8519 57.1875 29.2228 57.1875 28.5938 57.1875C22.168 56.7428 16.1199 53.9892 11.5654 49.4346C7.01086 44.88 4.25721 38.832 3.8125 32.4062C3.8125 31.7772 3.8125 31.1481 3.8125 30.5C3.8125 29.8519 3.8125 29.2228 3.8125 28.5938C4.25721 22.168 7.01086 16.1199 11.5654 11.5654C16.1199 7.01086 22.168 4.25721 28.5938 3.8125C29.2228 3.8125 29.8519 3.8125 30.5 3.8125C31.1481 3.8125 31.7772 3.8125 32.4062 3.8125C38.832 4.25721 44.88 7.01086 49.4346 11.5654C53.9892 16.1199 56.7428 22.168 57.1875 28.5938C57.1875 29.2228 57.1875 29.8519 57.1875 30.5Z" fill="#C2EA80"/>
<path d="M32.4062 53.375V57.1875C31.7772 57.1875 31.1481 57.1875 30.5 57.1875C29.8519 57.1875 29.2228 57.1875 28.5938 57.1875V53.375C28.5938 52.8695 28.7947 52.3845 29.1521 52.0271C29.5095 51.6697 29.9945 51.4688 30.5 51.4688C31.0055 51.4688 31.4905 51.6697 31.8479 52.0271C32.2053 52.3845 32.4062 52.8695 32.4062 53.375Z" fill="#EBFFCB"/>
<path d="M57.1875 30.5C57.1875 31.1481 57.1875 31.7772 57.1875 32.4062H53.375C52.8695 32.4062 52.3845 32.2053 52.0271 31.8479C51.6697 31.4905 51.4688 31.0055 51.4688 30.5C51.4688 29.9945 51.6697 29.5095 52.0271 29.1521C52.3845 28.7947 52.8695 28.5938 53.375 28.5938H57.1875C57.1875 29.2228 57.1875 29.8519 57.1875 30.5Z" fill="#EBFFCB"/>
<path d="M9.53125 30.5C9.53125 31.0055 9.33041 31.4905 8.97293 31.8479C8.61543 32.2053 8.13058 32.4062 7.625 32.4062H3.8125C3.8125 31.7772 3.8125 31.1481 3.8125 30.5C3.8125 29.8519 3.8125 29.2228 3.8125 28.5938H7.625C8.13058 28.5938 8.61543 28.7947 8.97293 29.1521C9.33041 29.5095 9.53125 29.9945 9.53125 30.5Z" fill="#304046"/>
<path d="M32.4062 3.8125V7.625C32.4062 8.13058 32.2053 8.61543 31.8479 8.97293C31.4905 9.33041 31.0055 9.53125 30.5 9.53125C29.9945 9.53125 29.5095 9.33041 29.1521 8.97293C28.7947 8.61543 28.5938 8.13058 28.5938 7.625V3.8125C29.2228 3.8125 29.8519 3.8125 30.5 3.8125C31.1481 3.8125 31.7772 3.8125 32.4062 3.8125Z" fill="#EBFFCB"/>
<path d="M30.5002 32.4064C30.1357 32.4064 29.7791 32.302 29.4721 32.1054C29.1652 31.9089 28.921 31.6285 28.7687 31.2976C28.6162 30.9666 28.5617 30.5989 28.6119 30.2379C28.662 29.877 28.8145 29.5379 29.0514 29.2611L40.4889 15.9173C40.6517 15.727 40.8502 15.5707 41.0734 15.4572C41.2964 15.3437 41.5399 15.2752 41.7894 15.2558C42.0389 15.2363 42.29 15.2662 42.5281 15.3437C42.7661 15.4212 42.9865 15.5449 43.1767 15.7076C43.367 15.8703 43.5233 16.0689 43.6369 16.292C43.7503 16.5152 43.8188 16.7585 43.8382 17.0081C43.8577 17.2577 43.8279 17.5086 43.7503 17.7467C43.6728 17.9847 43.5492 18.2052 43.3864 18.3954L31.9489 31.7393C31.7699 31.9484 31.5479 32.1163 31.2978 32.2316C31.0477 32.3468 30.7754 32.4064 30.5002 32.4064Z" fill="#EBFFCB"/>
<path d="M30.5 32.4062H20.9688C20.4632 32.4062 19.9783 32.2053 19.6208 31.8479C19.2634 31.4905 19.0625 31.0055 19.0625 30.5C19.0625 29.9945 19.2634 29.5095 19.6208 29.1521C19.9783 28.7947 20.4632 28.5938 20.9688 28.5938H30.5C31.0055 28.5938 31.4905 28.7947 31.8479 29.1521C32.2053 29.5095 32.4062 29.9945 32.4062 30.5C32.4062 31.0055 32.2053 31.4905 31.8479 31.8479C31.4905 32.2053 31.0055 32.4062 30.5 32.4062Z" fill="#EBFFCB"/>
<path d="M28.5938 3.8125C22.168 4.25721 16.1199 7.01086 11.5654 11.5654C7.01086 16.1199 4.25721 22.168 3.8125 28.5938C3.8125 29.2228 3.8125 29.8519 3.8125 30.5C3.8125 31.1481 3.8125 31.7772 3.8125 32.4062C4.25721 38.832 7.01086 44.88 11.5654 49.4346C16.1199 53.9892 22.168 56.7428 28.5938 57.1875C29.2228 57.1875 29.8519 57.1875 30.5 57.1875V3.8125C29.8519 3.8125 29.2228 3.8125 28.5938 3.8125Z" fill="#EBFFCB"/>
<path d="M28.5938 53.375V57.1875C29.2228 57.1875 29.8519 57.1875 30.5 57.1875V51.4688C29.9945 51.4688 29.5095 51.6697 29.1521 52.0271C28.7947 52.3845 28.5938 52.8695 28.5938 53.375Z" fill="#C2EA80"/>
<path d="M9.53125 30.5C9.53125 31.0055 9.33041 31.4905 8.97293 31.8479C8.61543 32.2053 8.13058 32.4062 7.625 32.4062H3.8125C3.8125 31.7772 3.8125 31.1481 3.8125 30.5C3.8125 29.8519 3.8125 29.2228 3.8125 28.5938H7.625C8.13058 28.5938 8.61543 28.7947 8.97293 29.1521C9.33041 29.5095 9.53125 29.9945 9.53125 30.5Z" fill="#C2EA80"/>
<path d="M28.5938 3.8125V7.625C28.5938 8.13058 28.7947 8.61543 29.1521 8.97293C29.5095 9.33041 29.9945 9.53125 30.5 9.53125V3.8125C29.8519 3.8125 29.2228 3.8125 28.5938 3.8125Z" fill="#C2EA80"/>
<path d="M29.0514 29.2609C28.8145 29.5377 28.662 29.8768 28.6119 30.2377C28.5617 30.5987 28.6162 30.9664 28.7687 31.2973C28.921 31.6285 29.1652 31.9087 29.4721 32.1052C29.7791 32.3017 30.1357 32.4062 30.5002 32.4062V27.5643L29.0514 29.2609Z" fill="#EBFFCB"/>
<path d="M20.9688 28.5938C20.4632 28.5938 19.9783 28.7947 19.6208 29.1521C19.2634 29.5095 19.0625 29.9945 19.0625 30.5C19.0625 31.0055 19.2634 31.4905 19.6208 31.8479C19.9783 32.2053 20.4632 32.4062 20.9688 32.4062H30.5V28.5938H20.9688Z" fill="#C2EA80"/>
</svg>
