<svg width="62" height="47" viewBox="0 0 62 47" fill="none" xmlns="http://www.w3.org/2000/svg">
<path d="M49.1324 24.4461C47.6844 24.4461 46.5518 23.22 46.5376 21.7179V10.8667C46.5376 9.37999 47.6701 8.15387 49.075 8.15387H59.5404L56.4294 1.50207C55.9994 0.582447 55.1248 0 54.1499 0H38.9251C37.5201 0 36.3876 1.21084 36.3876 2.71278V5.44097H3.37144C1.96657 5.44109 0.833984 6.65193 0.833984 8.154V21.718V35.2975C0.833984 36.7995 1.96657 38.0103 3.37144 38.0103H5.92331C5.92331 42.5009 9.33536 46.164 13.5501 46.164C17.7649 46.164 21.1769 42.5162 21.1769 38.0103H41.5055C41.5055 42.5009 44.9175 46.164 49.1323 46.164C53.3471 46.164 56.7591 42.5162 56.7591 38.0103H59.2965C60.7015 38.0103 61.834 36.7994 61.834 35.2975V24.4462H49.1324V24.4461ZM13.5358 40.723C12.1452 40.723 10.9984 39.5122 10.9984 38.0103C10.9984 37.4125 11.2134 36.876 11.5287 36.4316C12.4893 35.0368 14.5823 35.0368 15.5572 36.4316C15.8725 36.8913 16.0876 37.4124 16.0876 38.0103C16.0733 39.5122 14.9264 40.723 13.5358 40.723ZM36.4019 19.0053H5.92331V10.8515H36.4019V19.0053ZM49.0893 40.7383C47.6987 40.7383 46.5518 39.5275 46.5518 38.0255C46.5518 37.4278 46.7669 36.8913 47.0822 36.4468C48.0571 35.0521 50.1358 35.0521 51.0964 36.4468C51.4117 36.9066 51.6268 37.4277 51.6268 38.0255C51.6269 39.5122 50.4799 40.7383 49.0893 40.7383Z" fill="#D2CBFF"/>
<path d="M61.7925 13.5796H51.6426V19.0206H61.7925V13.5796Z" fill="#D2CBFF"/>
</svg>
