<svg width="53" height="54" viewBox="0 0 53 54" fill="none" xmlns="http://www.w3.org/2000/svg">
<path d="M39.9284 23.0021C38.0572 23.039 36.226 22.4584 34.718 21.35C34.4356 21.1622 34.1184 21.0329 33.7853 20.9695C33.4521 20.9062 33.1097 20.9102 32.7781 20.9812C32.4465 21.0523 32.1325 21.189 31.8545 21.3833C31.5765 21.5776 31.3403 21.8255 31.1596 22.1125C30.9592 22.3509 30.8096 22.6276 30.7199 22.9258C30.6303 23.224 30.6024 23.5374 30.6381 23.8468C30.6738 24.1561 30.7723 24.4549 30.9275 24.7248C31.0828 24.9948 31.2915 25.2302 31.5409 25.4167C33.1761 26.5643 35.0403 27.3446 37.0055 27.7042V30.5C37.0055 31.1741 37.2732 31.8206 37.7499 32.2972C38.2265 32.7739 38.873 33.0417 39.5471 33.0417C40.2212 33.0417 40.8677 32.7739 41.3444 32.2972C41.821 31.8206 42.0888 31.1741 42.0888 30.5V27.7042C43.4829 27.4986 44.798 26.9287 45.9013 26.0521C46.6979 25.4672 47.3439 24.7012 47.7859 23.8173C48.2278 22.9334 48.4531 21.957 48.443 20.9687C48.443 16.2667 44.1221 14.7417 40.4367 13.9792C36.7513 13.2167 35.9888 12.3271 35.9888 11.6917C35.9888 11.0562 36.243 10.9292 36.6242 10.5479C37.3253 10.171 38.1169 9.99508 38.9117 10.0396C40.3884 10.0268 41.8398 10.4226 43.1055 11.1833C43.3627 11.3933 43.6626 11.5447 43.9843 11.6271C44.306 11.7094 44.6417 11.7208 44.9682 11.6603C45.2948 11.5998 45.6042 11.469 45.875 11.2769C46.1459 11.0848 46.3717 10.8361 46.5367 10.5479C46.7545 10.288 46.9152 9.9852 47.0082 9.65912C47.1012 9.33303 47.1245 8.991 47.0766 8.65532C47.0286 8.31963 46.9105 7.99781 46.7299 7.71081C46.5493 7.42381 46.3103 7.17807 46.0284 6.98958C44.8199 6.24368 43.4845 5.72672 42.0888 5.46458V2.54167C42.0888 1.86757 41.821 1.22109 41.3444 0.744437C40.8677 0.267782 40.2212 0 39.5471 0C38.873 0 38.2265 0.267782 37.7499 0.744437C37.2732 1.22109 37.0055 1.86757 37.0055 2.54167V5.3375C33.193 5.97292 30.6513 8.51458 30.6513 11.9458C30.6513 15.3771 34.845 18.1729 38.9117 18.9354C42.9784 19.6979 43.1055 20.5875 43.1055 21.2229C43.1055 21.8583 41.7075 23.0021 39.9284 23.0021Z" fill="#FFEACB"/>
<path d="M49.9671 37.7437C49.261 37.1743 48.4454 36.7564 47.5708 36.5159C46.6963 36.2754 45.7816 36.2175 44.8837 36.3458L32.3025 38.6333C32.3091 37.8497 32.1546 37.073 31.8485 36.3516C31.5424 35.6302 31.0914 34.9794 30.5233 34.4395L21.5004 25.4166H2.69206C2.01797 25.4166 1.37148 25.6844 0.894827 26.1611C0.418173 26.6377 0.150391 27.2842 0.150391 27.9583V39.3958C0.150391 40.0699 0.418173 40.7164 0.894827 41.193C1.37148 41.6697 2.01797 41.9375 2.69206 41.9375H6.88581L21.1191 53.502L47.0441 48.8C48.2154 48.5713 49.2986 48.0173 50.1697 47.2016C51.0408 46.3859 51.6646 45.3414 51.9696 44.1876C52.2746 43.0338 52.2485 41.8175 51.8944 40.6779C51.5402 39.5382 50.8723 38.5214 49.9671 37.7437ZM46.1546 43.8437L22.39 48.1645L9.04622 37.1083V30.5H19.4671L26.965 37.9979C27.1672 38.2001 27.2808 38.4744 27.2808 38.7604C27.2808 39.0464 27.1672 39.3206 26.965 39.5229C26.7627 39.7251 26.4885 39.8387 26.2025 39.8387C25.9165 39.8387 25.6422 39.7251 25.44 39.5229L20.9921 35.075C20.5026 34.7079 19.8972 34.5296 19.2869 34.573C18.6766 34.6164 18.1024 34.8784 17.6698 35.3111C17.2372 35.7437 16.9752 36.3178 16.9318 36.9281C16.8884 37.5384 17.0666 38.1438 17.4337 38.6333L21.8816 43.0812C22.436 43.6653 23.1075 44.1256 23.852 44.4322C24.5966 44.7388 25.3976 44.8847 26.2025 44.8604C26.9805 44.857 27.7529 44.7282 28.49 44.4791L45.7733 41.4291C46.1323 41.3788 46.4969 41.4699 46.79 41.6833C46.9147 41.7947 47.0135 41.9321 47.0793 42.0858C47.1452 42.2395 47.1766 42.4057 47.1712 42.5729C47.1772 42.8702 47.0788 43.1602 46.893 43.3924C46.7072 43.6246 46.4459 43.7843 46.1546 43.8437Z" fill="#FFEACB"/>
</svg>
